<?xml version="1.0" encoding="utf-8"?>
<!-- Generator: Adobe Illustrator 16.0.0, SVG Export Plug-In . SVG Version: 6.00 Build 0)  -->
<!DOCTYPE svg PUBLIC "-//W3C//DTD SVG 1.1//EN" "http://www.w3.org/Graphics/SVG/1.1/DTD/svg11.dtd">
<svg version="1.1" id="Layer_1" xmlns="http://www.w3.org/2000/svg" xmlns:xlink="http://www.w3.org/1999/xlink" x="0px" y="0px"
	 width="159.74px" height="168.831px" viewBox="0 0 159.74 168.831" style="enable-background:new 0 0 159.74 168.831;"
	 xml:space="preserve">
<g>
	<defs>
		<path id="SVGID_1_" d="M4.144,85.504c0,41.459,33.611,75.076,75.081,75.076c41.468,0,75.083-33.616,75.083-75.076
			c0-41.467-33.615-75.082-75.083-75.082C37.755,10.422,4.144,44.037,4.144,85.504"/>
	</defs>
	<clipPath id="SVGID_2_">
		<use xlink:href="#SVGID_1_"  style="overflow:visible;"/>
	</clipPath>
	
		<linearGradient id="SVGID_3_" gradientUnits="userSpaceOnUse" x1="-309.4355" y1="306.6172" x2="-308.4355" y2="306.6172" gradientTransform="matrix(150.1641 0 0 -150.1641 46470.2617 46128.3477)">
		<stop  offset="0" style="stop-color:#24B574"/>
		<stop  offset="0.0226" style="stop-color:#25B174"/>
		<stop  offset="0.3522" style="stop-color:#148C7B"/>
		<stop  offset="0.6365" style="stop-color:#0B757B"/>
		<stop  offset="0.8618" style="stop-color:#07687A"/>
		<stop  offset="1" style="stop-color:#06637A"/>
	</linearGradient>
	<rect x="4.144" y="10.422" style="clip-path:url(#SVGID_2_);fill:url(#SVGID_3_);" width="150.164" height="150.158"/>
</g>
<g>
	<defs>
		<rect id="SVGID_4_" x="-310.429" y="-90.39" width="576" height="396"/>
	</defs>
	<clipPath id="SVGID_5_">
		<use xlink:href="#SVGID_4_"  style="overflow:visible;"/>
	</clipPath>
	<path style="clip-path:url(#SVGID_5_);fill:#FFFFFF;" d="M36.231,100.751h3.794v28.228h-3.794v-1.705
		c-1.667,1.937-3.72,2.207-4.881,2.207c-5.035,0-7.9-4.183-7.9-8.674c0-5.306,3.641-8.56,7.939-8.56
		c1.199,0,3.291,0.311,4.842,2.322V100.751z M27.324,120.884c0,2.827,1.78,5.19,4.529,5.19c2.402,0,4.609-1.744,4.609-5.151
		c0-3.562-2.207-5.269-4.609-5.269C29.104,115.654,27.324,117.979,27.324,120.884"/>
	<path style="clip-path:url(#SVGID_5_);fill:#FFFFFF;" d="M46.726,103.5c1.395,0,2.438,1.046,2.438,2.44s-1.044,2.438-2.438,2.438
		c-1.396,0-2.439-1.044-2.439-2.438S45.33,103.5,46.726,103.5 M48.622,128.979h-3.795v-16.306h3.795V128.979z"/>
	<path style="clip-path:url(#SVGID_5_);fill:#FFFFFF;" d="M60.551,116.972c-0.389-0.62-1.124-1.394-2.325-1.394
		c-0.541,0-0.929,0.192-1.161,0.427c-0.194,0.192-0.349,0.502-0.349,0.852c0,0.427,0.193,0.696,0.543,0.928
		c0.231,0.157,0.464,0.234,1.277,0.659l1.938,0.969c0.85,0.425,1.664,0.852,2.284,1.511c0.89,0.89,1.2,1.897,1.2,3.02
		c0,1.472-0.542,2.75-1.434,3.719c-1.277,1.395-2.866,1.819-4.57,1.819c-1.045,0-2.362-0.155-3.523-1.045
		c-0.929-0.697-1.704-1.821-2.092-2.983l3.099-1.471c0.193,0.542,0.543,1.239,0.892,1.548c0.232,0.234,0.773,0.622,1.664,0.622
		c0.582,0,1.201-0.195,1.549-0.543c0.311-0.311,0.543-0.812,0.543-1.278c0-0.465-0.155-0.854-0.503-1.239
		c-0.466-0.466-1.007-0.735-1.628-1.006l-1.393-0.658c-0.736-0.35-1.628-0.776-2.248-1.396c-0.851-0.811-1.161-1.703-1.161-2.747
		c0-1.317,0.502-2.596,1.355-3.485c0.736-0.776,1.976-1.551,3.988-1.551c1.162,0,2.092,0.233,3.021,0.854
		c0.543,0.348,1.278,0.967,1.86,2.012L60.551,116.972z"/>
	<path style="clip-path:url(#SVGID_5_);fill:#FFFFFF;" d="M67.364,100.75h3.795v13.317c1.627-1.665,3.408-1.82,4.377-1.82
		c2.981,0,4.338,1.551,4.802,2.207c1.007,1.471,1.046,3.369,1.046,4.531v9.993h-3.795v-9.645c0-0.968,0-2.013-0.736-2.827
		c-0.425-0.465-1.162-0.852-2.129-0.852c-1.279,0-2.285,0.619-2.789,1.355c-0.542,0.774-0.775,2.014-0.775,4.104v7.863h-3.795
		V100.75z"/>
	<path style="clip-path:url(#SVGID_5_);fill:#FFFFFF;" d="M98.114,112.674h3.794v16.305h-3.794v-1.705
		c-1.667,1.937-3.72,2.207-4.881,2.207c-5.035,0-7.9-4.183-7.9-8.674c0-5.306,3.641-8.56,7.939-8.56
		c1.201,0,3.291,0.311,4.842,2.322V112.674z M89.207,120.884c0,2.827,1.78,5.19,4.53,5.19c2.401,0,4.608-1.744,4.608-5.151
		c0-3.562-2.207-5.269-4.608-5.269C90.987,115.654,89.207,117.979,89.207,120.884"/>
	<path style="clip-path:url(#SVGID_5_);fill:#FFFFFF;" d="M68.015,21.486c0,1.222-0.99,2.211-2.212,2.211
		c-1.22,0-2.212-0.989-2.212-2.211c0-1.223,0.992-2.212,2.212-2.212C67.024,19.274,68.015,20.263,68.015,21.486"/>
	<path style="clip-path:url(#SVGID_5_);fill:#FFFFFF;" d="M98.979,21.486c0,1.222-0.991,2.211-2.213,2.211
		c-1.221,0-2.211-0.989-2.211-2.211c0-1.223,0.99-2.212,2.211-2.212C97.988,19.274,98.979,20.263,98.979,21.486"/>
	<path style="clip-path:url(#SVGID_5_);fill:#FFFFFF;" d="M48.311,36.265c0,1.276-1.034,2.313-2.313,2.313
		c-1.275,0-2.312-1.037-2.312-2.313c0-1.277,1.036-2.313,2.312-2.313C47.276,33.952,48.311,34.988,48.311,36.265"/>
	<path style="clip-path:url(#SVGID_5_);fill:#FFFFFF;" d="M38.457,47.424c0,1.221-0.99,2.211-2.212,2.211
		c-1.221,0-2.211-0.99-2.211-2.211c0-1.221,0.99-2.212,2.211-2.212C37.467,45.212,38.457,46.203,38.457,47.424"/>
	<path style="clip-path:url(#SVGID_5_);fill:#FFFFFF;" d="M29.109,85.425c0,1.276-1.036,2.313-2.313,2.313
		c-1.276,0-2.312-1.037-2.312-2.313s1.036-2.312,2.312-2.312C28.073,83.113,29.109,84.149,29.109,85.425"/>
	<path style="clip-path:url(#SVGID_5_);fill:#FFFFFF;" d="M52.332,84.622c0,1.22-0.99,2.211-2.213,2.211
		c-1.22,0-2.211-0.991-2.211-2.211c0-1.223,0.991-2.212,2.211-2.212C51.342,82.41,52.332,83.399,52.332,84.622"/>
	<path style="clip-path:url(#SVGID_5_);fill:#FFFFFF;" d="M84.703,57.275c0,1.223-0.99,2.212-2.212,2.212
		c-1.221,0-2.212-0.989-2.212-2.212c0-1.222,0.991-2.211,2.212-2.211C83.713,55.064,84.703,56.053,84.703,57.275"/>
	<path style="clip-path:url(#SVGID_5_);fill:#FFFFFF;" d="M70.628,52.049c0,1.221-0.989,2.21-2.212,2.21
		c-1.22,0-2.212-0.989-2.212-2.21c0-1.223,0.992-2.213,2.212-2.213C69.639,49.836,70.628,50.826,70.628,52.049"/>
	<path style="clip-path:url(#SVGID_5_);fill:#FFFFFF;" d="M69.02,69.541c0,1.221-0.989,2.212-2.212,2.212
		c-1.221,0-2.211-0.991-2.211-2.212c0-1.222,0.99-2.212,2.211-2.212C68.03,67.329,69.02,68.319,69.02,69.541"/>
	<path style="clip-path:url(#SVGID_5_);fill:#FFFFFF;" d="M86.513,69.943c0,1.22-0.99,2.211-2.212,2.211s-2.212-0.991-2.212-2.211
		c0-1.222,0.99-2.212,2.212-2.212S86.513,68.721,86.513,69.943"/>
	<path style="clip-path:url(#SVGID_5_);fill:#FFFFFF;" d="M115.266,50.641c0,1.221-0.99,2.211-2.213,2.211
		c-1.22,0-2.211-0.99-2.211-2.211c0-1.222,0.991-2.212,2.211-2.212C114.275,48.429,115.266,49.419,115.266,50.641"/>
	<path style="clip-path:url(#SVGID_5_);fill:#FFFFFF;" d="M109.233,71.953c0,1.222-0.991,2.213-2.211,2.213
		c-1.223,0-2.213-0.991-2.213-2.213c0-1.221,0.99-2.21,2.213-2.21C108.242,69.743,109.233,70.732,109.233,71.953"/>
	<path style="clip-path:url(#SVGID_5_);fill:#FFFFFF;" d="M97.773,97.891c0,1.222-0.991,2.212-2.213,2.212s-2.211-0.99-2.211-2.212
		c0-1.22,0.989-2.212,2.211-2.212S97.773,96.671,97.773,97.891"/>
	<path style="clip-path:url(#SVGID_5_);fill:#FFFFFF;" d="M68.364,51.01c-0.153,0-0.285-0.118-0.299-0.272l-0.041-0.402
		c-0.016-0.166,0.106-0.313,0.271-0.329c0.167-0.017,0.314,0.105,0.33,0.272l0.039,0.399c0.017,0.167-0.105,0.313-0.271,0.33
		C68.384,51.008,68.374,51.01,68.364,51.01 M68.229,49.608c-0.155,0-0.286-0.116-0.3-0.272l-0.039-0.4
		c-0.018-0.166,0.105-0.315,0.271-0.329c0.165-0.017,0.313,0.105,0.33,0.271l0.039,0.4c0.015,0.165-0.106,0.313-0.271,0.329
		C68.247,49.608,68.237,49.608,68.229,49.608 M68.092,48.207c-0.153,0-0.284-0.115-0.301-0.272l-0.038-0.4
		c-0.017-0.166,0.105-0.313,0.271-0.33c0.161-0.019,0.313,0.105,0.33,0.271l0.038,0.4c0.017,0.166-0.104,0.313-0.271,0.329
		C68.111,48.207,68.103,48.207,68.092,48.207 M67.956,46.806c-0.152,0-0.285-0.116-0.3-0.272l-0.04-0.4
		c-0.016-0.166,0.107-0.313,0.271-0.33c0.164-0.018,0.314,0.106,0.33,0.27l0.038,0.401c0.017,0.167-0.104,0.314-0.271,0.33
		C67.974,46.806,67.966,46.806,67.956,46.806 M67.819,45.406c-0.154,0-0.284-0.117-0.299-0.274l-0.04-0.399
		c-0.017-0.167,0.105-0.314,0.272-0.329c0.166-0.018,0.312,0.105,0.329,0.271l0.038,0.399c0.016,0.167-0.105,0.314-0.271,0.331
		C67.839,45.405,67.829,45.406,67.819,45.406 M67.683,44.005c-0.152,0-0.284-0.117-0.3-0.272l-0.038-0.401
		c-0.017-0.166,0.105-0.313,0.271-0.329c0.162-0.017,0.314,0.105,0.329,0.271l0.04,0.4c0.017,0.166-0.105,0.313-0.272,0.329
		C67.703,44.005,67.692,44.005,67.683,44.005 M67.549,42.604c-0.155,0-0.286-0.117-0.301-0.273l-0.039-0.401
		c-0.017-0.164,0.104-0.312,0.27-0.329c0.165-0.019,0.313,0.106,0.33,0.271l0.04,0.4c0.015,0.166-0.107,0.313-0.272,0.331
		C67.567,42.604,67.557,42.604,67.549,42.604 M67.41,41.203c-0.153,0-0.283-0.116-0.3-0.273l-0.038-0.4
		c-0.017-0.166,0.105-0.313,0.271-0.329c0.163-0.018,0.313,0.105,0.33,0.271l0.039,0.4c0.016,0.166-0.105,0.314-0.271,0.329
		C67.431,41.203,67.421,41.203,67.41,41.203 M67.275,39.802c-0.153,0-0.286-0.117-0.301-0.272l-0.039-0.4
		c-0.015-0.167,0.106-0.314,0.271-0.331c0.165-0.016,0.313,0.106,0.329,0.273l0.04,0.399c0.016,0.167-0.106,0.314-0.271,0.33
		C67.294,39.801,67.285,39.802,67.275,39.802 M67.139,38.401c-0.154,0-0.284-0.116-0.3-0.272L66.8,37.728
		c-0.016-0.166,0.105-0.314,0.27-0.329c0.166-0.016,0.315,0.106,0.33,0.271l0.04,0.401c0.017,0.165-0.105,0.312-0.272,0.33
		C67.158,38.401,67.148,38.401,67.139,38.401 M67.002,37c-0.153,0-0.284-0.117-0.3-0.272l-0.037-0.4
		c-0.018-0.166,0.104-0.313,0.271-0.33c0.163-0.019,0.312,0.106,0.327,0.271l0.041,0.401c0.016,0.165-0.105,0.313-0.272,0.329
		C67.021,37,67.013,37,67.002,37 M66.866,35.6c-0.153,0-0.285-0.117-0.301-0.274l-0.038-0.4c-0.017-0.165,0.105-0.313,0.272-0.329
		c0.162-0.018,0.312,0.105,0.329,0.271l0.038,0.402c0.017,0.164-0.105,0.312-0.271,0.327C66.885,35.599,66.876,35.6,66.866,35.6
		 M66.729,34.199c-0.153,0-0.283-0.117-0.3-0.272l-0.038-0.401c-0.017-0.166,0.105-0.314,0.271-0.331
		c0.165-0.015,0.312,0.107,0.328,0.273l0.039,0.4c0.018,0.166-0.105,0.313-0.271,0.329C66.749,34.198,66.739,34.199,66.729,34.199
		 M66.593,32.797c-0.152,0-0.283-0.116-0.299-0.271l-0.039-0.4c-0.016-0.166,0.104-0.313,0.271-0.331
		c0.161-0.016,0.312,0.106,0.329,0.271l0.04,0.402c0.015,0.164-0.105,0.312-0.271,0.329C66.613,32.797,66.604,32.797,66.593,32.797
		 M66.458,31.397c-0.154,0-0.286-0.116-0.301-0.273l-0.039-0.4c-0.015-0.166,0.105-0.313,0.271-0.329
		c0.16-0.018,0.313,0.105,0.33,0.27l0.038,0.401c0.018,0.167-0.105,0.313-0.271,0.329C66.478,31.397,66.468,31.397,66.458,31.397
		 M66.322,29.995c-0.155,0-0.286-0.115-0.301-0.272l-0.039-0.4c-0.017-0.165,0.106-0.313,0.271-0.33
		c0.166-0.016,0.313,0.106,0.33,0.271l0.039,0.401c0.015,0.167-0.106,0.314-0.271,0.329C66.341,29.995,66.329,29.995,66.322,29.995
		 M66.185,28.595c-0.153,0-0.283-0.116-0.3-0.271l-0.039-0.4c-0.017-0.167,0.105-0.315,0.271-0.33
		c0.164-0.017,0.313,0.104,0.332,0.27l0.038,0.4c0.015,0.166-0.105,0.313-0.271,0.331C66.203,28.595,66.194,28.595,66.185,28.595
		 M66.049,27.195c-0.153,0-0.284-0.118-0.3-0.273l-0.039-0.4c-0.016-0.167,0.105-0.315,0.271-0.329
		c0.165-0.019,0.315,0.105,0.329,0.27l0.04,0.401c0.017,0.166-0.104,0.313-0.271,0.329C66.068,27.195,66.06,27.195,66.049,27.195
		 M65.913,25.793c-0.154,0-0.285-0.116-0.301-0.272l-0.038-0.401c-0.017-0.165,0.105-0.313,0.271-0.329
		c0.164-0.017,0.312,0.106,0.331,0.271l0.038,0.4c0.015,0.166-0.106,0.314-0.271,0.33C65.932,25.793,65.922,25.793,65.913,25.793
		 M65.776,24.391c-0.152,0-0.284-0.114-0.3-0.271l-0.038-0.4c-0.017-0.166,0.105-0.313,0.271-0.33
		c0.161-0.017,0.313,0.106,0.329,0.271l0.039,0.4c0.017,0.167-0.105,0.314-0.271,0.329C65.796,24.391,65.786,24.391,65.776,24.391
		 M65.642,22.993c-0.154,0-0.287-0.118-0.301-0.275l-0.039-0.398c-0.018-0.167,0.104-0.315,0.271-0.329
		c0.165-0.018,0.315,0.103,0.329,0.271l0.039,0.398c0.016,0.166-0.105,0.314-0.271,0.33C65.659,22.991,65.65,22.993,65.642,22.993"
		/>
	<path style="clip-path:url(#SVGID_5_);fill:#FFFFFF;" d="M67.15,51.226c-0.06,0-0.119-0.017-0.172-0.053l-0.329-0.231
		c-0.139-0.094-0.172-0.281-0.076-0.418c0.094-0.137,0.283-0.171,0.418-0.076l0.332,0.229c0.137,0.096,0.172,0.283,0.076,0.42
		C67.34,51.181,67.247,51.226,67.15,51.226 M65.994,50.423c-0.06,0-0.119-0.016-0.172-0.053l-0.33-0.229
		c-0.138-0.095-0.171-0.284-0.076-0.42c0.095-0.137,0.282-0.17,0.419-0.076l0.332,0.229c0.136,0.096,0.172,0.283,0.074,0.42
		C66.183,50.378,66.091,50.423,65.994,50.423 M64.837,49.623c-0.06,0-0.118-0.018-0.171-0.054l-0.331-0.229
		c-0.137-0.095-0.171-0.283-0.076-0.42c0.096-0.136,0.284-0.17,0.42-0.075l0.33,0.229c0.138,0.094,0.171,0.282,0.076,0.419
		C65.027,49.577,64.932,49.623,64.837,49.623 M63.681,48.82c-0.06,0-0.119-0.017-0.171-0.054l-0.331-0.229
		c-0.137-0.095-0.171-0.283-0.079-0.419c0.098-0.137,0.285-0.172,0.423-0.076l0.33,0.229c0.137,0.095,0.171,0.283,0.076,0.419
		C63.869,48.775,63.775,48.82,63.681,48.82 M62.524,48.019c-0.061,0-0.119-0.017-0.175-0.055l-0.327-0.228
		c-0.138-0.094-0.173-0.282-0.078-0.42c0.096-0.136,0.283-0.17,0.421-0.076l0.33,0.231c0.138,0.093,0.171,0.282,0.077,0.419
		C62.713,47.974,62.619,48.019,62.524,48.019 M61.366,47.216c-0.06,0-0.119-0.016-0.172-0.053l-0.329-0.229
		c-0.138-0.095-0.171-0.284-0.077-0.419c0.095-0.138,0.283-0.171,0.42-0.077l0.331,0.23c0.136,0.094,0.172,0.281,0.076,0.418
		C61.557,47.171,61.463,47.216,61.366,47.216 M60.21,46.417c-0.059,0-0.119-0.018-0.172-0.056l-0.329-0.229
		c-0.138-0.093-0.173-0.281-0.077-0.419c0.094-0.137,0.283-0.17,0.419-0.076l0.331,0.23c0.137,0.094,0.171,0.282,0.076,0.419
		C60.4,46.371,60.305,46.417,60.21,46.417 M59.053,45.613c-0.058,0-0.12-0.018-0.171-0.053l-0.33-0.229
		c-0.137-0.096-0.172-0.284-0.077-0.42c0.096-0.137,0.282-0.172,0.42-0.076l0.33,0.229c0.138,0.094,0.172,0.284,0.076,0.419
		C59.243,45.566,59.148,45.613,59.053,45.613 M57.896,44.813c-0.059,0-0.12-0.019-0.172-0.055l-0.33-0.23
		c-0.136-0.093-0.171-0.282-0.077-0.42c0.096-0.137,0.282-0.17,0.421-0.076l0.329,0.229c0.138,0.096,0.173,0.284,0.077,0.421
		C58.085,44.767,57.992,44.813,57.896,44.813 M56.739,44.01c-0.059,0-0.119-0.018-0.172-0.054l-0.329-0.229
		c-0.139-0.095-0.171-0.282-0.077-0.419c0.096-0.138,0.283-0.171,0.42-0.076l0.331,0.229c0.137,0.095,0.171,0.282,0.076,0.419
		C56.929,43.963,56.836,44.01,56.739,44.01 M55.582,43.209c-0.06,0-0.118-0.019-0.171-0.055l-0.33-0.23
		c-0.138-0.093-0.171-0.281-0.076-0.419c0.094-0.137,0.282-0.17,0.42-0.076l0.33,0.229c0.137,0.095,0.17,0.284,0.076,0.421
		C55.771,43.164,55.679,43.209,55.582,43.209 M54.426,42.406c-0.06,0-0.119-0.016-0.171-0.053l-0.331-0.229
		c-0.137-0.095-0.171-0.284-0.075-0.42c0.094-0.137,0.281-0.172,0.417-0.076l0.333,0.228c0.136,0.095,0.17,0.284,0.076,0.421
		C54.614,42.36,54.522,42.406,54.426,42.406 M53.269,41.604c-0.059,0-0.119-0.017-0.171-0.053l-0.332-0.229
		c-0.136-0.095-0.169-0.282-0.073-0.421c0.094-0.137,0.281-0.169,0.418-0.076l0.332,0.23c0.136,0.095,0.17,0.283,0.073,0.419
		C53.458,41.561,53.364,41.604,53.269,41.604 M52.112,40.804c-0.059,0-0.119-0.018-0.172-0.054l-0.33-0.228
		c-0.137-0.096-0.171-0.284-0.076-0.42c0.095-0.137,0.283-0.171,0.419-0.077l0.33,0.23c0.138,0.095,0.171,0.282,0.077,0.419
		C52.302,40.757,52.208,40.804,52.112,40.804 M50.956,40.002c-0.061,0-0.121-0.018-0.172-0.055l-0.33-0.228
		c-0.138-0.095-0.172-0.283-0.077-0.421c0.095-0.136,0.282-0.17,0.42-0.076l0.33,0.229c0.138,0.095,0.171,0.284,0.077,0.42
		C51.146,39.957,51.05,40.002,50.956,40.002 M49.798,39.2c-0.059,0-0.119-0.017-0.17-0.053l-0.331-0.229
		c-0.137-0.095-0.171-0.284-0.076-0.419c0.094-0.137,0.282-0.172,0.419-0.076l0.331,0.228c0.136,0.094,0.17,0.283,0.076,0.419
		C49.988,39.154,49.895,39.2,49.798,39.2 M48.641,38.397c-0.059,0-0.118-0.017-0.169-0.054l-0.332-0.228
		c-0.136-0.095-0.17-0.282-0.076-0.419c0.095-0.137,0.283-0.171,0.42-0.076l0.329,0.228c0.138,0.095,0.173,0.282,0.077,0.419
		C48.831,38.353,48.737,38.397,48.641,38.397 M47.484,37.597c-0.059,0-0.119-0.018-0.17-0.053l-0.332-0.229
		c-0.138-0.095-0.171-0.283-0.076-0.42c0.097-0.137,0.282-0.171,0.421-0.076l0.33,0.228c0.137,0.095,0.171,0.283,0.076,0.42
		C47.675,37.551,47.581,37.597,47.484,37.597 M46.328,36.794c-0.059,0-0.119-0.016-0.172-0.053l-0.331-0.229
		c-0.137-0.095-0.171-0.284-0.075-0.42c0.096-0.137,0.282-0.17,0.421-0.076l0.329,0.228c0.138,0.096,0.171,0.284,0.076,0.42
		C46.519,36.75,46.423,36.794,46.328,36.794"/>
	<path style="clip-path:url(#SVGID_5_);fill:#FFFFFF;" d="M48.329,102.585c-0.051,0-0.102-0.012-0.149-0.039
		c-0.145-0.081-0.196-0.266-0.115-0.411l0.199-0.35c0.081-0.146,0.266-0.195,0.411-0.115c0.145,0.082,0.195,0.268,0.113,0.41
		l-0.197,0.351C48.536,102.53,48.434,102.585,48.329,102.585 M49.02,101.36c-0.051,0-0.102-0.013-0.147-0.04
		c-0.145-0.081-0.197-0.266-0.115-0.411l0.199-0.35c0.081-0.146,0.265-0.194,0.41-0.115c0.145,0.083,0.196,0.266,0.113,0.41
		l-0.197,0.352C49.228,101.304,49.126,101.36,49.02,101.36 M49.711,100.134c-0.049,0-0.1-0.013-0.147-0.039
		c-0.146-0.082-0.196-0.267-0.115-0.411l0.198-0.351c0.083-0.145,0.267-0.195,0.412-0.114c0.144,0.082,0.196,0.267,0.114,0.411
		l-0.199,0.35C49.919,100.078,49.817,100.134,49.711,100.134 M50.402,98.908c-0.05,0-0.101-0.012-0.147-0.04
		c-0.144-0.08-0.196-0.265-0.113-0.411l0.197-0.35c0.081-0.145,0.266-0.195,0.41-0.115c0.146,0.083,0.197,0.266,0.115,0.412
		l-0.197,0.35C50.611,98.853,50.509,98.908,50.402,98.908 M51.095,97.682c-0.049,0-0.101-0.012-0.148-0.04
		c-0.145-0.081-0.195-0.265-0.113-0.41l0.196-0.35c0.084-0.146,0.267-0.196,0.411-0.115c0.146,0.082,0.197,0.266,0.115,0.411
		l-0.197,0.351C51.303,97.626,51.2,97.682,51.095,97.682 M51.788,96.455c-0.051,0-0.102-0.01-0.148-0.037
		c-0.146-0.084-0.197-0.266-0.115-0.411l0.197-0.352c0.082-0.144,0.268-0.195,0.411-0.113c0.146,0.081,0.195,0.265,0.114,0.411
		l-0.198,0.35C51.995,96.401,51.893,96.455,51.788,96.455 M52.479,95.231c-0.049,0-0.102-0.013-0.146-0.039
		c-0.146-0.081-0.198-0.265-0.116-0.411l0.197-0.352c0.084-0.145,0.267-0.195,0.412-0.113s0.196,0.265,0.115,0.41l-0.197,0.351
		C52.686,95.176,52.584,95.231,52.479,95.231 M53.171,94.005c-0.049,0-0.101-0.012-0.148-0.039
		c-0.146-0.081-0.196-0.266-0.115-0.411l0.198-0.351c0.083-0.145,0.267-0.196,0.411-0.113c0.145,0.082,0.196,0.265,0.114,0.41
		l-0.197,0.35C53.379,93.95,53.275,94.005,53.171,94.005 M53.862,92.779c-0.051,0-0.102-0.013-0.148-0.039
		c-0.145-0.082-0.197-0.266-0.113-0.411l0.197-0.35c0.082-0.144,0.267-0.196,0.411-0.113c0.146,0.081,0.196,0.263,0.114,0.411
		l-0.197,0.349C54.069,92.723,53.968,92.779,53.862,92.779 M54.554,91.553c-0.049,0-0.101-0.012-0.146-0.039
		c-0.146-0.082-0.197-0.266-0.116-0.411l0.197-0.35c0.083-0.145,0.268-0.197,0.413-0.115c0.145,0.083,0.195,0.266,0.113,0.411
		l-0.197,0.352C54.763,91.498,54.659,91.553,54.554,91.553 M55.247,90.327c-0.051,0-0.103-0.012-0.148-0.038
		c-0.145-0.082-0.197-0.265-0.114-0.411l0.196-0.349c0.082-0.146,0.266-0.198,0.411-0.117c0.145,0.083,0.198,0.266,0.114,0.411
		l-0.197,0.351C55.454,90.272,55.351,90.327,55.247,90.327 M55.938,89.101c-0.051,0-0.101-0.011-0.148-0.037
		c-0.146-0.084-0.196-0.267-0.115-0.411l0.197-0.351c0.084-0.146,0.269-0.197,0.411-0.113c0.146,0.081,0.196,0.265,0.115,0.41
		l-0.198,0.35C56.145,89.046,56.043,89.101,55.938,89.101 M56.63,87.877c-0.051,0-0.102-0.012-0.148-0.04
		c-0.146-0.082-0.196-0.265-0.114-0.41l0.197-0.352c0.082-0.144,0.265-0.194,0.41-0.114c0.146,0.083,0.196,0.266,0.116,0.411
		l-0.198,0.35C56.837,87.821,56.735,87.877,56.63,87.877 M57.321,86.651c-0.05,0-0.1-0.013-0.147-0.039
		c-0.146-0.081-0.196-0.266-0.114-0.411l0.197-0.35c0.082-0.147,0.267-0.196,0.411-0.115c0.146,0.082,0.196,0.265,0.114,0.41
		l-0.197,0.351C57.53,86.596,57.427,86.651,57.321,86.651 M58.014,85.425c-0.05,0-0.103-0.012-0.147-0.038
		c-0.146-0.083-0.197-0.267-0.116-0.412l0.199-0.35c0.081-0.145,0.267-0.197,0.411-0.113c0.145,0.081,0.195,0.265,0.113,0.41
		l-0.197,0.348C58.221,85.369,58.118,85.425,58.014,85.425 M58.706,84.2c-0.051,0-0.103-0.013-0.149-0.04
		c-0.146-0.082-0.196-0.265-0.113-0.411l0.197-0.35c0.081-0.145,0.266-0.194,0.41-0.115c0.146,0.083,0.196,0.266,0.114,0.411
		l-0.196,0.351C58.913,84.144,58.812,84.2,58.706,84.2 M59.396,82.973c-0.049,0-0.101-0.012-0.149-0.039
		c-0.144-0.081-0.195-0.266-0.113-0.41l0.197-0.35c0.082-0.146,0.268-0.198,0.412-0.117c0.145,0.084,0.195,0.267,0.113,0.413
		l-0.197,0.35C59.605,82.918,59.502,82.973,59.396,82.973 M60.089,81.748c-0.051,0-0.102-0.012-0.148-0.039
		c-0.144-0.081-0.195-0.265-0.113-0.41l0.196-0.352c0.081-0.145,0.265-0.195,0.411-0.114c0.145,0.082,0.197,0.266,0.116,0.412
		l-0.199,0.349C60.297,81.692,60.194,81.748,60.089,81.748 M60.781,80.522c-0.052,0-0.103-0.012-0.148-0.038
		c-0.146-0.083-0.196-0.266-0.114-0.412l0.196-0.351c0.084-0.145,0.269-0.196,0.411-0.113c0.146,0.081,0.195,0.266,0.115,0.41
		l-0.197,0.351C60.987,80.466,60.886,80.522,60.781,80.522 M61.472,79.297c-0.051,0-0.1-0.014-0.146-0.04
		c-0.145-0.081-0.196-0.265-0.115-0.411l0.198-0.351c0.081-0.143,0.265-0.194,0.41-0.114c0.145,0.083,0.196,0.266,0.115,0.412
		l-0.198,0.349C61.68,79.241,61.578,79.297,61.472,79.297 M62.165,78.072c-0.052,0-0.102-0.014-0.148-0.04
		c-0.146-0.083-0.195-0.266-0.115-0.411l0.197-0.351c0.084-0.146,0.267-0.196,0.411-0.115c0.146,0.083,0.197,0.266,0.112,0.412
		l-0.195,0.35C62.372,78.015,62.27,78.072,62.165,78.072 M62.854,76.845c-0.048,0-0.1-0.012-0.146-0.039
		c-0.146-0.082-0.196-0.266-0.113-0.411l0.196-0.35c0.081-0.146,0.268-0.197,0.411-0.116c0.145,0.083,0.197,0.268,0.114,0.413
		l-0.197,0.35C63.062,76.789,62.961,76.845,62.854,76.845 M63.548,75.619c-0.051,0-0.102-0.013-0.148-0.039
		c-0.145-0.081-0.197-0.265-0.113-0.411l0.197-0.35c0.082-0.144,0.266-0.195,0.41-0.115c0.146,0.083,0.196,0.265,0.113,0.412
		l-0.196,0.35C63.755,75.564,63.653,75.619,63.548,75.619 M64.24,74.393c-0.051,0-0.103-0.011-0.148-0.039
		c-0.146-0.082-0.196-0.266-0.115-0.41l0.198-0.35c0.082-0.146,0.267-0.198,0.41-0.114c0.146,0.081,0.196,0.266,0.115,0.41
		l-0.198,0.35C64.446,74.338,64.345,74.393,64.24,74.393 M64.932,73.169c-0.052,0-0.101-0.013-0.147-0.041
		c-0.145-0.081-0.197-0.264-0.115-0.41l0.198-0.351c0.081-0.145,0.264-0.195,0.41-0.115c0.145,0.083,0.196,0.266,0.115,0.413
		l-0.198,0.349C65.138,73.112,65.036,73.169,64.932,73.169 M65.624,71.942c-0.052,0-0.102-0.012-0.149-0.038
		c-0.144-0.081-0.195-0.267-0.114-0.411l0.197-0.352c0.084-0.145,0.267-0.195,0.411-0.113c0.146,0.081,0.196,0.265,0.115,0.41
		l-0.196,0.351C65.831,71.887,65.729,71.942,65.624,71.942 M66.315,70.717c-0.051,0-0.102-0.014-0.148-0.04
		c-0.145-0.083-0.196-0.265-0.115-0.41l0.199-0.352c0.081-0.144,0.266-0.195,0.41-0.114c0.146,0.083,0.197,0.267,0.114,0.412
		l-0.197,0.349C66.522,70.66,66.42,70.717,66.315,70.717 M66.848,69.441c-0.012,0-0.021,0-0.03-0.002
		c-0.165-0.016-0.288-0.161-0.271-0.329l0.035-0.4c0.016-0.167,0.166-0.286,0.328-0.273c0.167,0.015,0.289,0.162,0.273,0.328
		l-0.037,0.4C67.132,69.323,67,69.441,66.848,69.441 M66.975,68.039l-0.028-0.001c-0.166-0.015-0.287-0.163-0.271-0.328l0.036-0.4
		c0.016-0.168,0.161-0.288,0.326-0.274c0.169,0.016,0.289,0.163,0.274,0.328l-0.036,0.401
		C67.259,67.921,67.129,68.039,66.975,68.039 M67.104,66.636c-0.01,0-0.019,0-0.028-0.001c-0.167-0.015-0.289-0.162-0.274-0.328
		l0.037-0.4c0.016-0.165,0.162-0.288,0.328-0.273c0.167,0.016,0.289,0.163,0.273,0.329l-0.037,0.4
		C67.389,66.52,67.257,66.636,67.104,66.636 M67.232,65.236c-0.009,0-0.019,0-0.028-0.002c-0.167-0.015-0.287-0.163-0.272-0.328
		l0.036-0.401c0.017-0.165,0.164-0.289,0.328-0.271c0.165,0.014,0.288,0.161,0.273,0.327l-0.036,0.4
		C67.519,65.117,67.386,65.236,67.232,65.236 M67.36,63.834c-0.008,0-0.018-0.002-0.027-0.002c-0.166-0.014-0.287-0.161-0.273-0.327
		l0.038-0.4c0.015-0.168,0.162-0.291,0.328-0.274c0.166,0.015,0.286,0.162,0.272,0.327l-0.038,0.401
		C67.647,63.716,67.515,63.834,67.36,63.834 M67.49,62.431c-0.01,0-0.019,0-0.029-0.001c-0.165-0.014-0.287-0.161-0.272-0.327
		l0.037-0.401c0.018-0.165,0.163-0.286,0.328-0.273c0.166,0.016,0.288,0.163,0.273,0.329l-0.037,0.4
		C67.775,62.315,67.644,62.431,67.49,62.431 M67.618,61.03c-0.008,0-0.018,0-0.026-0.001c-0.166-0.015-0.288-0.161-0.274-0.328
		l0.037-0.4c0.016-0.165,0.162-0.287,0.328-0.272s0.287,0.161,0.273,0.328l-0.037,0.399C67.905,60.913,67.772,61.03,67.618,61.03
		 M67.747,59.63c-0.009,0-0.017-0.002-0.027-0.002c-0.166-0.015-0.287-0.163-0.273-0.327l0.038-0.402
		c0.015-0.166,0.161-0.285,0.327-0.273c0.166,0.015,0.287,0.163,0.272,0.328l-0.036,0.4C68.033,59.511,67.901,59.63,67.747,59.63
		 M67.877,58.228c-0.009,0-0.019-0.001-0.028-0.001c-0.166-0.015-0.287-0.163-0.272-0.328l0.036-0.401
		c0.016-0.166,0.162-0.287,0.329-0.273c0.165,0.015,0.287,0.162,0.271,0.328l-0.036,0.4C68.163,58.11,68.031,58.228,67.877,58.228
		 M68.005,56.825c0,0-0.017,0-0.027,0c-0.166-0.016-0.288-0.163-0.271-0.328l0.035-0.401c0.016-0.166,0.166-0.287,0.328-0.273
		c0.165,0.016,0.288,0.162,0.273,0.329l-0.037,0.401C68.291,56.709,68.16,56.825,68.005,56.825 M68.135,55.425
		c-0.011,0-0.019,0-0.028-0.002c-0.166-0.015-0.289-0.162-0.272-0.328l0.036-0.401c0.016-0.165,0.161-0.285,0.328-0.273
		c0.166,0.017,0.288,0.163,0.273,0.328l-0.038,0.402C68.42,55.307,68.287,55.425,68.135,55.425 M68.264,54.023
		c-0.01,0-0.02-0.001-0.029-0.001c-0.165-0.015-0.286-0.162-0.271-0.328l0.038-0.4c0.014-0.166,0.162-0.287,0.327-0.274
		c0.164,0.015,0.287,0.163,0.272,0.327l-0.037,0.402C68.55,53.905,68.417,54.023,68.264,54.023 M68.393,52.621
		c-0.01,0-0.019,0-0.028-0.001c-0.166-0.016-0.286-0.162-0.272-0.328l0.002-0.031c-0.077-0.065-0.12-0.166-0.104-0.274
		c0.022-0.164,0.176-0.28,0.342-0.255l0.41,0.059l-0.05,0.556C68.677,52.504,68.548,52.621,68.393,52.621 M67.294,52.189
		c-0.015,0-0.03-0.002-0.044-0.003l-0.397-0.058c-0.165-0.023-0.278-0.178-0.256-0.341c0.025-0.166,0.179-0.282,0.342-0.256
		l0.397,0.058c0.165,0.024,0.279,0.176,0.256,0.341C67.569,52.08,67.44,52.189,67.294,52.189 M65.901,51.988
		c-0.014,0-0.029,0-0.044-0.003l-0.399-0.057c-0.163-0.024-0.278-0.177-0.255-0.342c0.024-0.164,0.178-0.281,0.342-0.256
		l0.399,0.058c0.163,0.024,0.278,0.177,0.254,0.341C66.178,51.88,66.048,51.988,65.901,51.988 M64.509,51.788
		c-0.016,0-0.03-0.001-0.044-0.002l-0.398-0.059c-0.165-0.023-0.279-0.175-0.256-0.34c0.024-0.166,0.179-0.28,0.342-0.256
		l0.397,0.056c0.165,0.025,0.281,0.178,0.255,0.343C64.784,51.68,64.655,51.788,64.509,51.788 M63.113,51.587
		c-0.014,0-0.027,0-0.043-0.003l-0.397-0.056c-0.164-0.025-0.279-0.178-0.255-0.342c0.023-0.165,0.177-0.281,0.341-0.257
		l0.396,0.058c0.167,0.024,0.281,0.176,0.257,0.342C63.391,51.479,63.262,51.587,63.113,51.587 M61.722,51.388
		c-0.015,0-0.029-0.001-0.044-0.004l-0.398-0.058c-0.165-0.023-0.278-0.174-0.254-0.34c0.022-0.165,0.175-0.281,0.34-0.257
		l0.398,0.058c0.165,0.024,0.279,0.177,0.256,0.342C61.997,51.279,61.869,51.388,61.722,51.388 M60.327,51.187
		c-0.014,0-0.027,0-0.043-0.003l-0.397-0.058c-0.165-0.024-0.279-0.176-0.257-0.34c0.024-0.165,0.179-0.279,0.342-0.257l0.398,0.058
		c0.165,0.024,0.28,0.176,0.256,0.342C60.604,51.078,60.476,51.187,60.327,51.187 M58.935,50.987c-0.014,0-0.028-0.001-0.042-0.003
		l-0.398-0.058c-0.165-0.023-0.279-0.176-0.257-0.341c0.025-0.165,0.178-0.281,0.342-0.255l0.398,0.057
		c0.165,0.024,0.278,0.176,0.255,0.341C59.212,50.879,59.082,50.987,58.935,50.987 M57.543,50.786c-0.017,0-0.029,0-0.044-0.002
		l-0.397-0.058c-0.166-0.024-0.28-0.176-0.258-0.34c0.024-0.165,0.179-0.281,0.344-0.257l0.397,0.057
		c0.164,0.024,0.279,0.177,0.255,0.342C57.819,50.678,57.689,50.786,57.543,50.786 M56.147,50.587c-0.013,0-0.027-0.002-0.043-0.005
		l-0.397-0.056c-0.164-0.024-0.28-0.177-0.255-0.342c0.023-0.165,0.176-0.279,0.341-0.255l0.398,0.057
		c0.165,0.024,0.278,0.177,0.255,0.341C56.425,50.478,56.296,50.587,56.147,50.587 M54.756,50.386c-0.016,0-0.029,0-0.044-0.002
		l-0.398-0.058c-0.164-0.024-0.278-0.177-0.255-0.342s0.176-0.281,0.342-0.255l0.397,0.057c0.164,0.024,0.28,0.176,0.256,0.342
		C55.031,50.278,54.903,50.386,54.756,50.386 M53.362,50.186c-0.014,0-0.028-0.002-0.043-0.004l-0.398-0.057
		c-0.166-0.023-0.279-0.177-0.256-0.341c0.023-0.165,0.178-0.279,0.342-0.255l0.398,0.057c0.164,0.022,0.278,0.176,0.255,0.34
		C53.639,50.078,53.509,50.186,53.362,50.186 M51.97,49.985c-0.014,0-0.029-0.001-0.044-0.003l-0.398-0.056
		c-0.164-0.025-0.278-0.177-0.254-0.343c0.022-0.164,0.175-0.278,0.339-0.256l0.398,0.058c0.166,0.023,0.281,0.176,0.257,0.341
		C52.245,49.876,52.117,49.985,51.97,49.985 M50.575,49.786c-0.013,0-0.027-0.002-0.043-0.004l-0.396-0.058
		c-0.167-0.024-0.279-0.176-0.256-0.34c0.023-0.165,0.176-0.281,0.341-0.256l0.398,0.057c0.163,0.024,0.278,0.177,0.255,0.342
		C50.853,49.677,50.725,49.786,50.575,49.786 M49.183,49.584c-0.015,0-0.029,0-0.043-0.002l-0.398-0.058
		c-0.164-0.023-0.278-0.176-0.256-0.342c0.024-0.163,0.177-0.279,0.342-0.255l0.398,0.057c0.164,0.024,0.279,0.177,0.256,0.342
		C49.459,49.477,49.332,49.584,49.183,49.584 M47.79,49.385c-0.015,0-0.029-0.001-0.045-0.004l-0.396-0.057
		c-0.165-0.023-0.279-0.177-0.256-0.341c0.023-0.165,0.178-0.281,0.342-0.256l0.398,0.057c0.164,0.024,0.278,0.178,0.254,0.342
		C48.066,49.277,47.937,49.385,47.79,49.385 M46.397,49.184c-0.016,0-0.029,0-0.044-0.003l-0.397-0.057
		c-0.166-0.024-0.28-0.177-0.257-0.342c0.024-0.164,0.177-0.279,0.343-0.255l0.396,0.057c0.165,0.024,0.281,0.177,0.256,0.342
		C46.673,49.076,46.545,49.184,46.397,49.184 M45.004,48.984c-0.015,0-0.029-0.001-0.044-0.003l-0.398-0.057
		c-0.165-0.023-0.279-0.177-0.254-0.342c0.021-0.165,0.176-0.279,0.339-0.255l0.399,0.058c0.166,0.023,0.279,0.176,0.256,0.341
		C45.279,48.876,45.15,48.984,45.004,48.984 M43.61,48.783c-0.015,0-0.029,0-0.043-0.002l-0.399-0.057
		c-0.163-0.024-0.278-0.176-0.255-0.341c0.022-0.165,0.178-0.282,0.342-0.257l0.398,0.058c0.164,0.024,0.277,0.177,0.256,0.342
		C43.887,48.676,43.759,48.783,43.61,48.783 M42.216,48.584c-0.014,0-0.027-0.002-0.043-0.004l-0.398-0.057
		c-0.164-0.023-0.277-0.176-0.254-0.341c0.022-0.166,0.176-0.281,0.34-0.255l0.399,0.057c0.165,0.022,0.278,0.177,0.256,0.341
		C42.493,48.476,42.364,48.584,42.216,48.584 M40.824,48.383c-0.015,0-0.03,0-0.043-0.002l-0.398-0.057
		c-0.165-0.025-0.28-0.177-0.256-0.343c0.024-0.164,0.177-0.279,0.341-0.255l0.397,0.057c0.166,0.023,0.28,0.176,0.257,0.342
		C41.101,48.275,40.972,48.383,40.824,48.383 M39.432,48.184c-0.015,0-0.03-0.002-0.044-0.005l-0.396-0.057
		c-0.167-0.022-0.281-0.176-0.258-0.34c0.023-0.166,0.178-0.282,0.342-0.256l0.397,0.058c0.164,0.022,0.28,0.176,0.256,0.34
		C39.707,48.075,39.578,48.184,39.432,48.184 M38.038,47.982c-0.014,0-0.029-0.001-0.044-0.003l-0.398-0.056
		c-0.165-0.025-0.279-0.177-0.255-0.343c0.023-0.164,0.177-0.279,0.342-0.255l0.398,0.057c0.164,0.025,0.277,0.177,0.256,0.342
		C38.314,47.874,38.185,47.982,38.038,47.982 M36.644,47.783c-0.014,0-0.028-0.001-0.043-0.004l-0.398-0.058
		c-0.164-0.022-0.277-0.176-0.256-0.339c0.024-0.166,0.18-0.282,0.344-0.256l0.396,0.056c0.166,0.024,0.279,0.177,0.256,0.342
		C36.922,47.674,36.791,47.783,36.644,47.783"/>
	<path style="clip-path:url(#SVGID_5_);fill:#FFFFFF;" d="M82.539,57.458c-0.036,0-0.075-0.008-0.112-0.022
		c-0.155-0.062-0.229-0.238-0.168-0.391l0.148-0.374c0.062-0.155,0.237-0.23,0.392-0.169c0.155,0.062,0.231,0.238,0.17,0.393
		l-0.149,0.372C82.771,57.386,82.659,57.458,82.539,57.458 M83.347,57.391c-0.138,0-0.262-0.096-0.293-0.237
		c-0.035-0.163,0.068-0.323,0.231-0.359l0.394-0.085c0.163-0.037,0.322,0.067,0.358,0.231c0.034,0.163-0.068,0.324-0.231,0.359
		l-0.393,0.086C83.391,57.389,83.369,57.391,83.347,57.391 M84.724,57.093c-0.139,0-0.264-0.097-0.295-0.238
		c-0.035-0.162,0.069-0.322,0.232-0.359l0.392-0.085c0.161-0.037,0.323,0.067,0.358,0.232c0.036,0.163-0.067,0.322-0.23,0.358
		l-0.392,0.085C84.767,57.09,84.745,57.093,84.724,57.093 M86.1,56.793c-0.139,0-0.265-0.095-0.294-0.237
		c-0.036-0.164,0.068-0.324,0.229-0.359l0.393-0.086c0.163-0.034,0.324,0.069,0.359,0.232c0.036,0.163-0.067,0.323-0.23,0.358
		l-0.394,0.086C86.142,56.792,86.12,56.793,86.1,56.793 M87.476,56.496c-0.141,0-0.265-0.097-0.295-0.237
		c-0.035-0.163,0.067-0.324,0.23-0.36l0.393-0.085c0.161-0.036,0.323,0.069,0.358,0.231c0.036,0.162-0.068,0.323-0.229,0.359
		l-0.395,0.085C87.519,56.494,87.495,56.496,87.476,56.496 M88.851,56.198c-0.14,0-0.265-0.097-0.294-0.238
		c-0.036-0.163,0.067-0.324,0.229-0.359l0.393-0.085c0.164-0.036,0.324,0.067,0.359,0.23s-0.068,0.323-0.23,0.358l-0.394,0.086
		C88.894,56.196,88.871,56.198,88.851,56.198 M83.062,56.152c-0.039,0-0.076-0.008-0.113-0.022c-0.154-0.062-0.23-0.238-0.167-0.391
		l0.147-0.374c0.062-0.155,0.239-0.23,0.391-0.169c0.156,0.062,0.231,0.236,0.171,0.392l-0.149,0.373
		C83.293,56.08,83.181,56.152,83.062,56.152 M90.226,55.898c-0.139,0-0.265-0.097-0.294-0.238c-0.036-0.162,0.067-0.324,0.23-0.358
		l0.395-0.086c0.162-0.036,0.321,0.069,0.357,0.23c0.034,0.163-0.069,0.323-0.231,0.359l-0.393,0.085
		C90.268,55.896,90.247,55.898,90.226,55.898 M91.601,55.6c-0.139,0-0.264-0.096-0.294-0.237c-0.035-0.163,0.067-0.324,0.231-0.359
		l0.393-0.086c0.162-0.035,0.323,0.068,0.357,0.231c0.036,0.163-0.066,0.324-0.23,0.358l-0.392,0.087
		C91.645,55.597,91.622,55.6,91.601,55.6 M92.977,55.302c-0.14,0-0.265-0.098-0.295-0.238c-0.035-0.163,0.068-0.323,0.231-0.36
		l0.393-0.084c0.162-0.037,0.323,0.067,0.357,0.229c0.037,0.164-0.066,0.325-0.229,0.361l-0.394,0.085
		C93.02,55.299,92.998,55.302,92.977,55.302 M94.353,55.001c-0.14,0-0.265-0.096-0.295-0.237c-0.035-0.163,0.067-0.324,0.229-0.359
		l0.395-0.085c0.161-0.035,0.323,0.068,0.357,0.231c0.036,0.162-0.067,0.323-0.23,0.359l-0.393,0.085
		C94.396,55,94.372,55.001,94.353,55.001 M83.581,54.844c-0.036,0-0.074-0.007-0.111-0.021c-0.154-0.062-0.229-0.237-0.169-0.392
		l0.149-0.374c0.062-0.155,0.238-0.229,0.392-0.168c0.154,0.062,0.231,0.237,0.17,0.391l-0.149,0.374
		C83.815,54.772,83.701,54.844,83.581,54.844 M95.728,54.704c-0.139,0-0.264-0.096-0.294-0.237c-0.036-0.163,0.067-0.324,0.23-0.36
		l0.393-0.085c0.163-0.036,0.323,0.069,0.358,0.232c0.035,0.162-0.068,0.322-0.231,0.358l-0.392,0.085
		C95.77,54.702,95.749,54.704,95.728,54.704 M97.102,54.405c-0.138,0-0.263-0.095-0.294-0.238c-0.035-0.163,0.068-0.323,0.231-0.357
		l0.394-0.087c0.162-0.035,0.324,0.069,0.358,0.231c0.034,0.164-0.069,0.324-0.231,0.359l-0.393,0.086
		C97.146,54.404,97.123,54.405,97.102,54.405 M98.478,54.106c-0.139,0-0.264-0.096-0.293-0.237c-0.036-0.163,0.067-0.323,0.23-0.359
		l0.392-0.085c0.165-0.037,0.324,0.068,0.36,0.231c0.034,0.162-0.068,0.321-0.232,0.358l-0.392,0.084
		C98.521,54.104,98.499,54.106,98.478,54.106 M99.854,53.809c-0.138,0-0.265-0.097-0.295-0.238
		c-0.035-0.163,0.068-0.324,0.231-0.359l0.393-0.086c0.162-0.034,0.323,0.068,0.359,0.231c0.035,0.163-0.068,0.324-0.231,0.358
		l-0.392,0.087C99.896,53.807,99.875,53.809,99.854,53.809 M84.103,53.536c-0.036,0-0.074-0.005-0.111-0.021
		c-0.154-0.061-0.229-0.236-0.168-0.392l0.148-0.373c0.061-0.155,0.238-0.23,0.393-0.169c0.154,0.063,0.229,0.238,0.168,0.392
		l-0.148,0.374C84.338,53.465,84.222,53.536,84.103,53.536 M101.229,53.51c-0.139,0-0.265-0.097-0.295-0.238
		c-0.034-0.163,0.068-0.323,0.23-0.359l0.394-0.085c0.165-0.036,0.323,0.069,0.358,0.23c0.036,0.163-0.068,0.325-0.23,0.36
		l-0.393,0.086C101.272,53.507,101.251,53.51,101.229,53.51 M102.605,53.209c-0.14,0-0.265-0.096-0.296-0.237
		c-0.035-0.163,0.068-0.323,0.231-0.358l0.392-0.086c0.166-0.035,0.324,0.069,0.359,0.231c0.037,0.163-0.07,0.324-0.23,0.359
		l-0.393,0.086C102.646,53.208,102.626,53.209,102.605,53.209 M103.979,52.912c-0.138,0-0.263-0.095-0.293-0.238
		c-0.036-0.162,0.067-0.322,0.23-0.358l0.394-0.085c0.162-0.036,0.324,0.069,0.358,0.231c0.035,0.163-0.069,0.324-0.231,0.359
		l-0.393,0.085C104.023,52.911,104.001,52.912,103.979,52.912 M105.354,52.613c-0.138,0-0.263-0.095-0.295-0.237
		c-0.034-0.161,0.068-0.323,0.232-0.359l0.392-0.085c0.165-0.036,0.324,0.068,0.36,0.231c0.034,0.163-0.068,0.323-0.232,0.358
		l-0.393,0.086C105.398,52.612,105.376,52.613,105.354,52.613 M106.731,52.315c-0.141,0-0.266-0.097-0.296-0.238
		c-0.034-0.163,0.067-0.324,0.231-0.36l0.394-0.085c0.163-0.034,0.323,0.069,0.358,0.232s-0.067,0.322-0.231,0.358l-0.394,0.085
		C106.774,52.312,106.752,52.315,106.731,52.315 M84.624,52.229c-0.036,0-0.074-0.006-0.109-0.022
		c-0.156-0.061-0.232-0.236-0.17-0.391l0.149-0.374c0.062-0.155,0.237-0.229,0.392-0.168c0.155,0.061,0.23,0.237,0.17,0.392
		l-0.151,0.373C84.858,52.158,84.745,52.229,84.624,52.229 M108.106,52.017c-0.14,0-0.265-0.097-0.295-0.238
		c-0.035-0.163,0.067-0.323,0.231-0.358l0.393-0.086c0.163-0.035,0.323,0.068,0.357,0.23c0.036,0.163-0.067,0.324-0.229,0.359
		l-0.393,0.085C108.149,52.015,108.127,52.017,108.106,52.017 M109.481,51.718c-0.14,0-0.264-0.097-0.294-0.238
		c-0.036-0.162,0.068-0.322,0.23-0.358l0.394-0.086c0.163-0.035,0.323,0.069,0.358,0.23c0.036,0.163-0.069,0.325-0.231,0.359
		l-0.393,0.086C109.524,51.716,109.503,51.718,109.481,51.718 M110.856,51.419c-0.139,0-0.263-0.097-0.294-0.238
		c-0.036-0.164,0.067-0.324,0.23-0.359l0.392-0.085c0.162-0.037,0.324,0.067,0.361,0.23c0.035,0.163-0.068,0.324-0.231,0.359
		l-0.393,0.086C110.898,51.416,110.878,51.419,110.856,51.419 M112.231,51.121c-0.138,0-0.263-0.097-0.293-0.237
		c-0.036-0.163,0.067-0.324,0.229-0.36l0.393-0.085c0.165-0.034,0.324,0.068,0.36,0.23c0.034,0.163-0.068,0.325-0.232,0.36
		l-0.392,0.085C112.275,51.119,112.254,51.121,112.231,51.121 M85.146,50.923c-0.038,0-0.075-0.008-0.112-0.023
		c-0.154-0.061-0.229-0.237-0.169-0.391l0.149-0.374c0.062-0.155,0.239-0.229,0.392-0.168c0.155,0.062,0.231,0.236,0.169,0.393
		l-0.148,0.373C85.379,50.85,85.267,50.923,85.146,50.923 M85.668,49.616c-0.038,0-0.074-0.008-0.112-0.023
		c-0.153-0.062-0.229-0.237-0.168-0.39l0.148-0.375c0.063-0.155,0.238-0.23,0.392-0.169c0.155,0.062,0.23,0.238,0.169,0.393
		l-0.149,0.372C85.901,49.542,85.788,49.616,85.668,49.616 M86.19,48.307c-0.038,0-0.076-0.006-0.112-0.02
		c-0.155-0.063-0.231-0.238-0.169-0.394l0.149-0.372c0.062-0.155,0.236-0.231,0.392-0.169s0.23,0.238,0.168,0.393l-0.148,0.372
		C86.423,48.235,86.31,48.307,86.19,48.307 M86.711,47c-0.038,0-0.076-0.007-0.112-0.022c-0.154-0.061-0.23-0.236-0.168-0.391
		l0.148-0.374c0.062-0.155,0.238-0.229,0.393-0.168c0.155,0.062,0.229,0.237,0.168,0.392l-0.148,0.373
		C86.944,46.929,86.831,47,86.711,47 M87.232,45.693c-0.038,0-0.075-0.008-0.112-0.022c-0.154-0.062-0.229-0.237-0.169-0.391
		l0.15-0.374c0.061-0.155,0.237-0.229,0.392-0.168s0.23,0.236,0.167,0.391l-0.147,0.374C87.465,45.621,87.352,45.693,87.232,45.693
		 M87.754,44.386c-0.038,0-0.076-0.007-0.112-0.022c-0.154-0.061-0.229-0.237-0.168-0.392l0.148-0.374
		c0.062-0.154,0.238-0.23,0.393-0.167c0.154,0.061,0.229,0.236,0.168,0.391l-0.148,0.374C87.987,44.312,87.872,44.386,87.754,44.386
		 M88.274,43.078c-0.037,0-0.074-0.006-0.112-0.021c-0.154-0.063-0.229-0.237-0.167-0.392l0.148-0.374
		c0.062-0.155,0.238-0.23,0.393-0.169c0.154,0.063,0.229,0.238,0.168,0.393l-0.148,0.374C88.508,43.006,88.396,43.078,88.274,43.078
		 M88.796,41.771c-0.036,0-0.074-0.007-0.111-0.022c-0.154-0.061-0.229-0.237-0.168-0.392l0.148-0.373
		c0.062-0.156,0.239-0.23,0.392-0.169c0.155,0.062,0.23,0.238,0.169,0.391l-0.148,0.374C89.03,41.699,88.916,41.771,88.796,41.771
		 M89.318,40.464c-0.037,0-0.075-0.007-0.111-0.021c-0.155-0.062-0.231-0.238-0.169-0.394l0.148-0.371
		c0.062-0.156,0.237-0.231,0.393-0.17c0.154,0.062,0.229,0.238,0.168,0.391l-0.15,0.374C89.55,40.392,89.438,40.464,89.318,40.464
		 M89.839,39.156c-0.037,0-0.074-0.006-0.111-0.022c-0.155-0.061-0.23-0.236-0.168-0.392l0.148-0.372
		c0.062-0.155,0.238-0.23,0.393-0.169c0.154,0.062,0.229,0.238,0.169,0.391l-0.15,0.375C90.072,39.083,89.96,39.156,89.839,39.156
		 M90.361,37.849c-0.037,0-0.075-0.007-0.113-0.022c-0.154-0.061-0.229-0.236-0.167-0.391l0.148-0.374
		c0.062-0.154,0.239-0.23,0.392-0.168c0.154,0.062,0.23,0.237,0.169,0.392l-0.148,0.374C90.593,37.778,90.481,37.849,90.361,37.849
		 M90.882,36.542c-0.037,0-0.074-0.008-0.111-0.022c-0.154-0.062-0.23-0.236-0.168-0.391l0.148-0.374
		c0.062-0.155,0.238-0.229,0.393-0.168c0.154,0.06,0.229,0.236,0.168,0.391l-0.15,0.374C91.115,36.469,91.001,36.542,90.882,36.542
		 M91.403,35.234c-0.036,0-0.075-0.007-0.11-0.021c-0.157-0.062-0.23-0.238-0.17-0.392l0.148-0.373
		c0.063-0.156,0.239-0.229,0.394-0.169c0.154,0.062,0.229,0.237,0.168,0.392l-0.148,0.373
		C91.638,35.162,91.523,35.234,91.403,35.234 M91.926,33.927c-0.038,0-0.076-0.007-0.112-0.021
		c-0.154-0.062-0.229-0.238-0.168-0.393l0.148-0.373c0.062-0.155,0.238-0.229,0.393-0.168c0.154,0.062,0.229,0.237,0.168,0.392
		l-0.149,0.373C92.157,33.854,92.046,33.927,91.926,33.927 M92.446,32.619c-0.037,0-0.074-0.006-0.111-0.021
		c-0.153-0.062-0.23-0.237-0.17-0.393l0.15-0.372c0.062-0.154,0.238-0.23,0.391-0.169c0.156,0.062,0.232,0.238,0.17,0.392
		l-0.149,0.374C92.681,32.548,92.565,32.619,92.446,32.619 M92.968,31.312c-0.037,0-0.074-0.006-0.111-0.02
		c-0.154-0.063-0.231-0.238-0.168-0.394l0.148-0.373c0.062-0.154,0.237-0.229,0.392-0.168c0.154,0.062,0.231,0.237,0.169,0.392
		l-0.149,0.373C93.202,31.241,93.089,31.312,92.968,31.312 M93.489,30.005c-0.037,0-0.074-0.007-0.111-0.022
		c-0.156-0.061-0.23-0.237-0.169-0.391l0.149-0.374c0.061-0.154,0.236-0.23,0.393-0.167c0.154,0.06,0.229,0.236,0.168,0.39
		l-0.148,0.375C93.722,29.933,93.608,30.005,93.489,30.005 M94.011,28.698c-0.037,0-0.075-0.007-0.111-0.021
		c-0.154-0.062-0.23-0.237-0.169-0.392l0.15-0.374c0.062-0.155,0.237-0.23,0.392-0.17c0.154,0.063,0.23,0.238,0.167,0.394
		l-0.148,0.373C94.245,28.625,94.131,28.698,94.011,28.698 M94.533,27.39c-0.038,0-0.075-0.007-0.112-0.021
		c-0.154-0.062-0.23-0.236-0.169-0.392l0.15-0.373c0.06-0.155,0.237-0.231,0.391-0.169c0.155,0.061,0.229,0.237,0.169,0.393
		l-0.148,0.374C94.766,27.318,94.652,27.39,94.533,27.39 M95.056,26.083c-0.039,0-0.077-0.007-0.114-0.021
		c-0.154-0.063-0.229-0.238-0.169-0.393l0.15-0.373c0.062-0.155,0.237-0.229,0.392-0.168s0.23,0.237,0.168,0.392l-0.148,0.373
		C95.287,26.011,95.173,26.083,95.056,26.083 M95.575,24.776c-0.038,0-0.076-0.007-0.111-0.021
		c-0.154-0.063-0.229-0.238-0.169-0.393l0.148-0.373c0.063-0.155,0.238-0.229,0.394-0.168c0.154,0.062,0.229,0.237,0.168,0.391
		l-0.148,0.374C95.808,24.704,95.695,24.776,95.575,24.776 M96.097,23.468c-0.037,0-0.075-0.006-0.112-0.021
		c-0.154-0.061-0.229-0.237-0.167-0.392l0.148-0.374c0.062-0.153,0.238-0.228,0.392-0.168c0.155,0.061,0.23,0.236,0.168,0.392
		l-0.149,0.374C96.329,23.396,96.217,23.468,96.097,23.468 M96.618,22.161c-0.037,0-0.075-0.006-0.111-0.021
		c-0.154-0.062-0.23-0.237-0.169-0.392l0.148-0.374c0.062-0.153,0.239-0.229,0.392-0.168c0.156,0.061,0.23,0.236,0.169,0.392
		l-0.148,0.373C96.851,22.09,96.738,22.161,96.618,22.161"/>
	<path style="clip-path:url(#SVGID_5_);fill:#FFFFFF;" d="M25.79,85.326c-0.121,0-0.236-0.075-0.281-0.196
		c-0.059-0.155,0.02-0.331,0.175-0.389l0.377-0.142c0.155-0.058,0.329,0.021,0.388,0.177c0.059,0.155-0.019,0.329-0.175,0.387
		l-0.376,0.143C25.862,85.319,25.826,85.326,25.79,85.326 M50.119,84.923c-0.081,0-0.165-0.034-0.225-0.099
		c-0.11-0.124-0.101-0.314,0.023-0.427l0.136-0.122c0.125-0.112,0.314-0.102,0.425,0.02c0.114,0.125,0.103,0.315-0.021,0.427
		l-0.137,0.124C50.265,84.897,50.192,84.923,50.119,84.923 M27.107,84.827c-0.123,0-0.237-0.073-0.281-0.193
		c-0.06-0.157,0.019-0.332,0.174-0.39l0.377-0.142c0.157-0.058,0.329,0.02,0.389,0.177c0.06,0.154-0.019,0.329-0.176,0.387
		l-0.376,0.143C27.179,84.823,27.144,84.827,27.107,84.827 M28.423,84.33c-0.121,0-0.236-0.073-0.281-0.193
		c-0.059-0.157,0.02-0.332,0.175-0.391l0.377-0.142c0.155-0.057,0.331,0.021,0.39,0.177c0.058,0.155-0.021,0.329-0.176,0.387
		l-0.376,0.144C28.497,84.325,28.459,84.33,28.423,84.33 M51.002,84.125c-0.082,0-0.163-0.034-0.225-0.098
		c-0.11-0.125-0.102-0.315,0.022-0.426l0.299-0.271c0.124-0.111,0.312-0.102,0.424,0.022c0.113,0.124,0.104,0.315-0.021,0.427
		l-0.298,0.269C51.145,84.101,51.074,84.125,51.002,84.125 M29.742,83.833c-0.124,0-0.237-0.074-0.283-0.195
		c-0.06-0.156,0.018-0.331,0.176-0.39l0.376-0.141c0.156-0.058,0.33,0.02,0.388,0.176c0.06,0.155-0.019,0.329-0.175,0.388
		l-0.376,0.142C29.812,83.827,29.776,83.833,29.742,83.833 M31.058,83.335c-0.123,0-0.236-0.073-0.282-0.194
		c-0.06-0.157,0.02-0.33,0.176-0.389l0.376-0.141c0.156-0.059,0.33,0.019,0.389,0.175c0.06,0.155-0.02,0.33-0.175,0.388
		l-0.377,0.143C31.129,83.33,31.093,83.335,31.058,83.335 M52.047,83.182c-0.083,0-0.165-0.033-0.225-0.098
		c-0.11-0.125-0.102-0.316,0.022-0.428l0.299-0.27c0.121-0.11,0.312-0.102,0.426,0.022c0.11,0.123,0.101,0.315-0.022,0.426
		l-0.299,0.271C52.191,83.156,52.118,83.182,52.047,83.182 M32.374,82.841c-0.12,0-0.236-0.075-0.281-0.196
		c-0.06-0.155,0.02-0.329,0.176-0.389l0.375-0.141c0.155-0.059,0.331,0.019,0.389,0.174c0.059,0.156-0.018,0.329-0.175,0.39
		l-0.378,0.141C32.446,82.833,32.411,82.841,32.374,82.841 M33.69,82.343c-0.121,0-0.236-0.075-0.28-0.196
		c-0.06-0.154,0.019-0.329,0.175-0.387l0.376-0.142c0.157-0.058,0.329,0.019,0.39,0.174c0.058,0.156-0.021,0.332-0.176,0.389
		l-0.376,0.142C33.762,82.336,33.726,82.343,33.69,82.343 M53.091,82.239c-0.082,0-0.165-0.034-0.225-0.1
		c-0.111-0.124-0.102-0.315,0.023-0.427l0.296-0.268c0.124-0.113,0.315-0.103,0.427,0.021c0.112,0.123,0.102,0.314-0.021,0.426
		l-0.299,0.269C53.234,82.211,53.163,82.239,53.091,82.239 M35.008,81.846c-0.121,0-0.238-0.075-0.281-0.196
		c-0.06-0.156,0.021-0.329,0.175-0.387l0.377-0.142c0.155-0.058,0.329,0.02,0.389,0.175c0.059,0.156-0.022,0.33-0.177,0.389
		l-0.375,0.141C35.079,81.839,35.043,81.846,35.008,81.846 M36.324,81.349c-0.122,0-0.236-0.076-0.281-0.196
		c-0.059-0.155,0.019-0.329,0.175-0.388l0.377-0.142c0.155-0.058,0.329,0.02,0.389,0.175c0.059,0.157-0.021,0.331-0.175,0.389
		l-0.378,0.141C36.395,81.342,36.36,81.349,36.324,81.349 M54.135,81.293c-0.082,0-0.165-0.033-0.224-0.099
		c-0.111-0.124-0.103-0.314,0.021-0.426l0.3-0.269c0.121-0.113,0.313-0.103,0.425,0.021c0.111,0.123,0.102,0.314-0.022,0.426
		l-0.298,0.269C54.279,81.268,54.207,81.293,54.135,81.293 M37.642,80.851c-0.123,0-0.236-0.073-0.281-0.193
		c-0.061-0.157,0.018-0.332,0.174-0.39l0.377-0.142c0.155-0.058,0.33,0.019,0.389,0.176c0.059,0.155-0.021,0.33-0.175,0.388
		l-0.377,0.143C37.713,80.846,37.677,80.851,37.642,80.851 M38.958,80.354c-0.121,0-0.235-0.075-0.282-0.195
		c-0.059-0.157,0.021-0.331,0.177-0.39l0.375-0.141c0.157-0.059,0.331,0.02,0.389,0.175c0.06,0.156-0.02,0.33-0.176,0.39
		l-0.375,0.142C39.03,80.348,38.994,80.354,38.958,80.354 M55.18,80.35c-0.083,0-0.165-0.032-0.224-0.098
		c-0.112-0.124-0.103-0.315,0.02-0.426l0.299-0.27c0.123-0.112,0.315-0.102,0.428,0.022c0.109,0.122,0.102,0.314-0.022,0.425
		l-0.299,0.27C55.323,80.325,55.253,80.35,55.18,80.35 M40.275,79.857c-0.122,0-0.237-0.074-0.282-0.196
		c-0.06-0.155,0.02-0.33,0.176-0.388l0.377-0.143c0.154-0.058,0.329,0.022,0.388,0.176c0.058,0.157-0.021,0.33-0.176,0.389
		l-0.376,0.142C40.347,79.85,40.31,79.857,40.275,79.857 M56.223,79.408c-0.082,0-0.163-0.034-0.224-0.1
		c-0.111-0.123-0.102-0.313,0.021-0.426l0.3-0.269c0.124-0.113,0.315-0.101,0.427,0.021c0.11,0.124,0.102,0.314-0.022,0.426
		l-0.299,0.269C56.367,79.382,56.295,79.408,56.223,79.408 M41.592,79.361c-0.12,0-0.237-0.075-0.282-0.195
		c-0.059-0.157,0.021-0.331,0.177-0.389l0.376-0.143c0.154-0.058,0.329,0.021,0.389,0.177c0.059,0.156-0.021,0.329-0.176,0.388
		l-0.377,0.143C41.663,79.354,41.627,79.361,41.592,79.361 M42.909,78.863c-0.122,0-0.237-0.073-0.283-0.194
		c-0.058-0.156,0.02-0.329,0.176-0.389l0.377-0.141c0.155-0.06,0.33,0.019,0.389,0.174c0.059,0.156-0.021,0.33-0.175,0.389
		l-0.376,0.143C42.979,78.856,42.943,78.863,42.909,78.863 M57.268,78.464c-0.082,0-0.164-0.035-0.225-0.099
		c-0.11-0.123-0.101-0.314,0.022-0.426l0.299-0.27c0.123-0.112,0.312-0.102,0.425,0.021c0.112,0.124,0.104,0.315-0.021,0.426
		l-0.299,0.271C57.412,78.438,57.341,78.464,57.268,78.464 M44.226,78.366c-0.123,0-0.236-0.074-0.281-0.195
		c-0.061-0.155,0.019-0.33,0.175-0.389l0.377-0.141c0.154-0.058,0.328,0.02,0.388,0.175c0.059,0.156-0.02,0.329-0.176,0.389
		l-0.375,0.142C44.298,78.361,44.261,78.366,44.226,78.366 M45.543,77.87c-0.122,0-0.238-0.075-0.282-0.196
		c-0.06-0.155,0.019-0.329,0.175-0.389l0.377-0.14c0.156-0.06,0.329,0.019,0.389,0.175c0.057,0.155-0.021,0.329-0.176,0.389
		l-0.376,0.141C45.614,77.863,45.578,77.87,45.543,77.87 M58.311,77.521c-0.082,0-0.163-0.034-0.222-0.1
		c-0.113-0.124-0.104-0.315,0.02-0.427l0.301-0.27c0.122-0.11,0.312-0.101,0.424,0.021c0.112,0.124,0.102,0.316-0.022,0.427
		l-0.296,0.269C58.456,77.494,58.384,77.521,58.311,77.521 M46.859,77.373c-0.123,0-0.237-0.075-0.282-0.196
		c-0.059-0.155,0.021-0.329,0.175-0.388l0.377-0.142c0.155-0.059,0.33,0.02,0.39,0.176c0.059,0.156-0.021,0.33-0.176,0.389
		l-0.377,0.141C46.931,77.366,46.894,77.373,46.859,77.373 M48.177,76.875c-0.122,0-0.239-0.075-0.283-0.195
		c-0.059-0.156,0.02-0.33,0.175-0.389l0.378-0.142c0.154-0.058,0.328,0.019,0.389,0.175c0.059,0.157-0.021,0.33-0.176,0.389
		l-0.377,0.142C48.247,76.869,48.211,76.875,48.177,76.875 M59.356,76.576c-0.084,0-0.164-0.033-0.225-0.099
		c-0.112-0.124-0.102-0.314,0.022-0.426l0.298-0.271c0.123-0.11,0.314-0.1,0.426,0.023c0.111,0.125,0.102,0.315-0.021,0.426
		l-0.298,0.269C59.5,76.55,59.429,76.576,59.356,76.576 M49.493,76.379c-0.122,0-0.237-0.075-0.283-0.197
		c-0.059-0.154,0.021-0.329,0.176-0.387l0.376-0.142c0.156-0.058,0.331,0.019,0.39,0.175c0.06,0.156-0.02,0.331-0.177,0.389
		l-0.376,0.142C49.563,76.372,49.528,76.379,49.493,76.379 M50.81,75.882c-0.122,0-0.236-0.076-0.282-0.194
		c-0.059-0.158,0.021-0.332,0.176-0.389l0.376-0.143c0.156-0.059,0.33,0.021,0.39,0.175c0.059,0.157-0.021,0.33-0.177,0.389
		l-0.376,0.143C50.882,75.875,50.845,75.882,50.81,75.882 M60.4,75.633c-0.081,0-0.164-0.034-0.224-0.1
		c-0.111-0.124-0.102-0.314,0.021-0.426l0.3-0.27c0.123-0.11,0.313-0.101,0.426,0.023c0.111,0.122,0.103,0.313-0.021,0.425
		l-0.3,0.27C60.546,75.605,60.474,75.633,60.4,75.633 M52.126,75.385c-0.121,0-0.236-0.076-0.281-0.195
		c-0.059-0.157,0.02-0.33,0.175-0.389l0.375-0.142c0.157-0.058,0.332,0.02,0.39,0.176c0.059,0.156-0.02,0.329-0.176,0.387
		l-0.376,0.144C52.198,75.377,52.161,75.385,52.126,75.385 M53.444,74.887c-0.122,0-0.238-0.073-0.283-0.194
		c-0.06-0.157,0.02-0.329,0.176-0.389l0.376-0.143c0.155-0.058,0.329,0.021,0.389,0.176c0.058,0.156-0.02,0.33-0.176,0.388
		l-0.376,0.143C53.514,74.881,53.478,74.887,53.444,74.887 M61.444,74.688c-0.083,0-0.164-0.033-0.223-0.099
		c-0.113-0.124-0.104-0.315,0.021-0.427l0.299-0.269c0.123-0.11,0.312-0.101,0.425,0.022c0.11,0.122,0.102,0.313-0.022,0.425
		l-0.297,0.271C61.589,74.663,61.516,74.688,61.444,74.688 M54.761,74.39c-0.123,0-0.238-0.073-0.283-0.195
		c-0.059-0.157,0.02-0.33,0.176-0.388l0.377-0.143c0.155-0.057,0.329,0.021,0.388,0.176c0.058,0.156-0.021,0.33-0.176,0.389
		l-0.376,0.143C54.832,74.383,54.796,74.39,54.761,74.39 M56.077,73.893c-0.121,0-0.237-0.074-0.283-0.195
		c-0.06-0.155,0.019-0.33,0.176-0.389l0.377-0.14c0.156-0.059,0.33,0.019,0.39,0.175c0.058,0.155-0.021,0.329-0.177,0.388
		l-0.376,0.142C56.147,73.886,56.112,73.893,56.077,73.893 M62.489,73.746c-0.082,0-0.164-0.034-0.225-0.1
		c-0.11-0.124-0.102-0.314,0.022-0.425l0.298-0.27c0.124-0.112,0.314-0.103,0.427,0.021c0.111,0.124,0.102,0.314-0.022,0.426
		l-0.298,0.27C62.634,73.72,62.561,73.746,62.489,73.746 M57.394,73.396c-0.123,0-0.236-0.074-0.282-0.195
		c-0.06-0.155,0.019-0.329,0.176-0.389l0.376-0.14c0.156-0.06,0.33,0.019,0.39,0.175c0.06,0.154-0.021,0.329-0.177,0.388
		L57.5,73.376C57.465,73.39,57.429,73.396,57.394,73.396 M58.712,72.898c-0.123,0-0.238-0.074-0.284-0.195
		c-0.059-0.155,0.021-0.329,0.175-0.388l0.376-0.142c0.156-0.059,0.33,0.019,0.392,0.174c0.058,0.156-0.021,0.331-0.177,0.391
		l-0.376,0.141C58.782,72.893,58.746,72.898,58.712,72.898 M63.532,72.802c-0.082,0-0.162-0.033-0.222-0.099
		c-0.113-0.124-0.102-0.314,0.021-0.425l0.299-0.271c0.123-0.112,0.313-0.102,0.426,0.022c0.111,0.123,0.102,0.315-0.021,0.426
		l-0.298,0.269C63.679,72.777,63.606,72.802,63.532,72.802 M60.026,72.403c-0.121,0-0.236-0.076-0.281-0.197
		c-0.06-0.154,0.02-0.329,0.177-0.389l0.375-0.14c0.155-0.059,0.33,0.019,0.388,0.175c0.061,0.157-0.018,0.329-0.175,0.389
		l-0.376,0.141C60.098,72.396,60.062,72.403,60.026,72.403 M61.345,71.905c-0.121,0-0.237-0.075-0.284-0.195
		c-0.058-0.156,0.021-0.33,0.177-0.387l0.376-0.143c0.155-0.06,0.329,0.021,0.388,0.175c0.06,0.157-0.019,0.33-0.174,0.389
		l-0.376,0.142C61.415,71.899,61.38,71.905,61.345,71.905 M64.578,71.859c-0.083,0-0.165-0.034-0.225-0.099
		c-0.11-0.124-0.103-0.316,0.021-0.426l0.299-0.27c0.124-0.113,0.315-0.102,0.426,0.022c0.112,0.123,0.103,0.314-0.021,0.426
		l-0.299,0.269C64.723,71.833,64.649,71.859,64.578,71.859 M62.66,71.409c-0.122,0-0.235-0.075-0.282-0.196
		c-0.06-0.156,0.021-0.329,0.176-0.388l0.378-0.143c0.155-0.059,0.328,0.021,0.387,0.176c0.06,0.156-0.021,0.33-0.175,0.388
		l-0.376,0.143C62.732,71.402,62.695,71.409,62.66,71.409 M65.622,70.915c-0.082,0-0.165-0.035-0.225-0.101
		c-0.111-0.123-0.102-0.313,0.022-0.425l0.002-0.003L65.4,70.395c-0.155,0.058-0.33-0.021-0.39-0.177
		c-0.058-0.155,0.021-0.329,0.177-0.387l0.375-0.143c0.158-0.058,0.331,0.021,0.392,0.175c0.022,0.062,0.023,0.123,0.01,0.183
		c0.065,0.009,0.132,0.042,0.18,0.094c0.113,0.125,0.103,0.317-0.021,0.426l-0.299,0.27C65.767,70.889,65.694,70.915,65.622,70.915
		 M63.977,70.912c-0.12,0-0.235-0.074-0.282-0.195c-0.057-0.157,0.021-0.331,0.177-0.39l0.376-0.142
		c0.154-0.058,0.329,0.02,0.389,0.175c0.059,0.156-0.019,0.331-0.176,0.389l-0.375,0.142C64.049,70.905,64.014,70.912,63.977,70.912
		 M66.665,69.972c-0.081,0-0.164-0.035-0.223-0.102c-0.006-0.004-0.009-0.008-0.013-0.013c-0.045-0.034-0.08-0.079-0.101-0.135
		c-0.061-0.155,0.02-0.33,0.176-0.388l1.689-0.639l-1.326,1.197C66.81,69.946,66.738,69.972,66.665,69.972"/>
	<path style="clip-path:url(#SVGID_5_);fill:#FFFFFF;" d="M83.962,70.238h-0.008l-0.4-0.012c-0.167-0.004-0.299-0.141-0.295-0.306
		c0.004-0.168,0.152-0.292,0.308-0.296l0.403,0.009c0.166,0.003,0.298,0.142,0.294,0.308C84.261,70.106,84.124,70.238,83.962,70.238
		 M82.556,70.204H82.55l-0.402-0.009c-0.169-0.004-0.299-0.142-0.297-0.309c0.006-0.167,0.159-0.291,0.309-0.293l0.404,0.009
		c0.166,0.003,0.297,0.142,0.293,0.307S82.718,70.204,82.556,70.204 M81.147,70.172h-0.005l-0.404-0.01
		c-0.167-0.003-0.299-0.142-0.294-0.308c0.004-0.166,0.148-0.295,0.309-0.295l0.402,0.009c0.166,0.005,0.298,0.143,0.295,0.309
		C81.444,70.041,81.311,70.172,81.147,70.172 M79.741,70.138h-0.007l-0.402-0.008c-0.167-0.003-0.299-0.141-0.296-0.308
		c0.006-0.166,0.147-0.291,0.31-0.294l0.401,0.007c0.166,0.006,0.299,0.144,0.295,0.31C80.037,70.009,79.905,70.138,79.741,70.138
		 M78.332,70.107h-0.006l-0.402-0.009c-0.167-0.003-0.297-0.142-0.294-0.31c0.004-0.165,0.146-0.285,0.31-0.294l0.401,0.01
		c0.166,0.004,0.299,0.142,0.295,0.308C78.631,69.976,78.497,70.107,78.332,70.107 M76.927,70.075h-0.005l-0.403-0.01
		c-0.168-0.004-0.3-0.14-0.297-0.308c0.006-0.166,0.146-0.295,0.309-0.295l0.402,0.009c0.166,0.003,0.299,0.143,0.294,0.31
		C77.225,69.945,77.09,70.075,76.927,70.075 M75.52,70.043h-0.008l-0.402-0.01c-0.166-0.003-0.298-0.142-0.294-0.309
		c0.003-0.167,0.144-0.289,0.309-0.293l0.402,0.009c0.166,0.003,0.299,0.14,0.294,0.308C75.816,69.911,75.683,70.043,75.52,70.043
		 M74.111,70.01h-0.007l-0.401-0.009c-0.167-0.005-0.299-0.142-0.295-0.308c0.004-0.167,0.141-0.287,0.31-0.295l0.4,0.008
		c0.167,0.003,0.301,0.143,0.296,0.31C74.41,69.88,74.276,70.01,74.111,70.01 M72.704,69.979h-0.007l-0.4-0.01
		c-0.168-0.004-0.3-0.142-0.295-0.309c0.004-0.166,0.138-0.293,0.308-0.293l0.402,0.009c0.166,0.003,0.298,0.141,0.295,0.308
		C73.003,69.846,72.868,69.979,72.704,69.979 M71.298,69.946h-0.005l-0.402-0.009c-0.168-0.004-0.299-0.143-0.297-0.309
		c0.005-0.167,0.152-0.29,0.309-0.295l0.402,0.009c0.167,0.004,0.299,0.142,0.295,0.308C71.596,69.815,71.462,69.946,71.298,69.946
		 M69.891,69.912h-0.006l-0.402-0.008c-0.167-0.004-0.299-0.143-0.294-0.309c0.003-0.165,0.149-0.298,0.308-0.294l0.401,0.009
		c0.167,0.004,0.298,0.142,0.295,0.309C70.189,69.782,70.056,69.912,69.891,69.912 M68.484,69.881h-0.006l-0.405-0.009
		c-0.165-0.005-0.296-0.142-0.293-0.309c0.004-0.167,0.148-0.294,0.309-0.296l0.401,0.011c0.167,0.004,0.299,0.142,0.295,0.307
		S68.647,69.881,68.484,69.881 M67.076,69.848h-0.004l-0.271-0.005c-0.167-0.005-0.299-0.143-0.295-0.31
		c0.004-0.166,0.151-0.292,0.309-0.294l0.268,0.006c0.167,0.004,0.3,0.142,0.296,0.309C67.375,69.718,67.24,69.848,67.076,69.848
		 M84.208,69.584c-0.15,0-0.277-0.107-0.299-0.257l-0.058-0.399c-0.022-0.165,0.092-0.317,0.255-0.341
		c0.168-0.025,0.318,0.091,0.343,0.256l0.058,0.398c0.021,0.164-0.092,0.316-0.257,0.341C84.235,69.583,84.22,69.584,84.208,69.584
		 M84.007,68.191c-0.146,0-0.275-0.107-0.297-0.258l-0.057-0.398c-0.025-0.165,0.091-0.318,0.256-0.341
		c0.164-0.025,0.316,0.09,0.341,0.255l0.056,0.399c0.025,0.163-0.09,0.317-0.255,0.34C84.037,68.191,84.022,68.191,84.007,68.191
		 M83.81,66.799c-0.148,0-0.279-0.109-0.3-0.26l-0.056-0.397c-0.023-0.166,0.09-0.319,0.256-0.34
		c0.164-0.026,0.316,0.089,0.341,0.254l0.056,0.398c0.025,0.165-0.09,0.318-0.255,0.341C83.837,66.797,83.822,66.799,83.81,66.799
		 M83.609,65.405c-0.147,0-0.278-0.107-0.298-0.259l-0.057-0.397c-0.023-0.165,0.091-0.319,0.255-0.342
		c0.166-0.024,0.317,0.09,0.342,0.255l0.058,0.399c0.023,0.165-0.092,0.318-0.256,0.341C83.638,65.404,83.623,65.405,83.609,65.405
		 M83.411,64.012c-0.148,0-0.276-0.108-0.299-0.26l-0.057-0.397c-0.022-0.165,0.092-0.318,0.256-0.342
		c0.162-0.024,0.316,0.092,0.342,0.256l0.057,0.399c0.023,0.164-0.092,0.318-0.256,0.342C83.439,64.01,83.425,64.012,83.411,64.012
		 M83.212,62.618c-0.147,0-0.277-0.108-0.299-0.258l-0.057-0.397c-0.023-0.166,0.091-0.319,0.256-0.343
		c0.163-0.024,0.318,0.091,0.342,0.257l0.056,0.399c0.024,0.163-0.091,0.316-0.255,0.339C83.24,62.618,83.226,62.618,83.212,62.618
		 M83.013,61.226c-0.147,0-0.276-0.11-0.299-0.26l-0.057-0.397c-0.023-0.166,0.091-0.319,0.256-0.343
		c0.162-0.023,0.318,0.092,0.342,0.258l0.057,0.398c0.024,0.163-0.091,0.317-0.256,0.34C83.041,61.224,83.026,61.226,83.013,61.226
		 M82.814,59.832c-0.149,0-0.278-0.109-0.3-0.259l-0.056-0.398c-0.023-0.166,0.091-0.319,0.255-0.341
		c0.166-0.023,0.319,0.091,0.342,0.256l0.057,0.397c0.023,0.166-0.092,0.318-0.256,0.342C82.842,59.831,82.827,59.832,82.814,59.832
		 M82.614,58.439c-0.147,0-0.276-0.108-0.299-0.26l-0.057-0.397c-0.023-0.166,0.092-0.318,0.256-0.342
		c0.164-0.024,0.318,0.091,0.342,0.256l0.057,0.399c0.025,0.164-0.091,0.317-0.256,0.34C82.643,58.438,82.628,58.439,82.614,58.439
		 M81.988,57.389c-0.036,0-0.071-0.006-0.105-0.018l-0.376-0.14c-0.158-0.057-0.236-0.232-0.179-0.388s0.232-0.235,0.388-0.179
		l0.377,0.142c0.156,0.058,0.234,0.231,0.178,0.389C82.226,57.314,82.11,57.389,81.988,57.389 M80.669,56.9
		c-0.036,0-0.07-0.006-0.104-0.019l-0.379-0.14c-0.155-0.058-0.235-0.231-0.177-0.387c0.057-0.157,0.23-0.236,0.387-0.179
		l0.377,0.14c0.156,0.059,0.236,0.231,0.179,0.388C80.906,56.825,80.791,56.9,80.669,56.9 M79.349,56.409
		c-0.034,0-0.07-0.005-0.104-0.019l-0.378-0.14c-0.157-0.057-0.236-0.231-0.177-0.387c0.057-0.157,0.229-0.234,0.388-0.178
		l0.376,0.14c0.156,0.058,0.236,0.233,0.177,0.389C79.586,56.335,79.472,56.409,79.349,56.409 M78.029,55.92
		c-0.034,0-0.071-0.006-0.105-0.019l-0.376-0.14c-0.156-0.058-0.234-0.231-0.178-0.388c0.058-0.156,0.23-0.235,0.387-0.178
		l0.379,0.14c0.154,0.058,0.235,0.232,0.179,0.387C78.268,55.845,78.151,55.92,78.029,55.92 M76.711,55.429
		c-0.035,0-0.071-0.004-0.106-0.018l-0.375-0.14c-0.157-0.057-0.236-0.233-0.18-0.387c0.06-0.157,0.23-0.237,0.39-0.178l0.375,0.14
		c0.157,0.058,0.235,0.231,0.179,0.387C76.947,55.356,76.831,55.429,76.711,55.429 M75.39,54.94c-0.035,0-0.069-0.007-0.104-0.02
		l-0.377-0.139c-0.156-0.058-0.235-0.232-0.177-0.388c0.058-0.157,0.231-0.236,0.387-0.178l0.377,0.139
		c0.156,0.059,0.237,0.234,0.178,0.388C75.628,54.864,75.512,54.94,75.39,54.94 M74.071,54.45c-0.035,0-0.069-0.007-0.105-0.02
		l-0.375-0.139c-0.158-0.058-0.236-0.232-0.18-0.388c0.059-0.156,0.23-0.236,0.389-0.178l0.377,0.14
		c0.156,0.058,0.235,0.231,0.177,0.388C74.309,54.375,74.192,54.45,74.071,54.45 M72.752,53.959c-0.034,0-0.069-0.006-0.104-0.019
		l-0.377-0.139c-0.156-0.058-0.236-0.232-0.178-0.389c0.058-0.155,0.231-0.235,0.387-0.176l0.377,0.139
		c0.155,0.058,0.236,0.232,0.178,0.388C72.989,53.884,72.874,53.959,72.752,53.959 M71.433,53.47c-0.034,0-0.07-0.007-0.105-0.019
		l-0.377-0.14c-0.156-0.059-0.235-0.231-0.178-0.388c0.059-0.156,0.231-0.235,0.389-0.178l0.377,0.14
		c0.155,0.059,0.234,0.231,0.178,0.388C71.67,53.396,71.555,53.47,71.433,53.47 M70.114,52.979c-0.037,0-0.071-0.006-0.105-0.018
		l-0.377-0.14c-0.158-0.059-0.236-0.232-0.178-0.388c0.057-0.157,0.231-0.236,0.387-0.178l0.378,0.14
		c0.155,0.059,0.235,0.232,0.177,0.388C70.35,52.904,70.236,52.979,70.114,52.979 M68.793,52.489c-0.034,0-0.069-0.006-0.104-0.019
		l-0.378-0.14c-0.155-0.058-0.235-0.231-0.178-0.387c0.058-0.157,0.23-0.236,0.389-0.178l0.377,0.14
		c0.156,0.058,0.235,0.232,0.178,0.387C69.032,52.414,68.916,52.489,68.793,52.489"/>
	<path style="clip-path:url(#SVGID_5_);fill:#FFFFFF;" d="M106.729,72.228h-0.027l-0.4-0.038c-0.166-0.015-0.288-0.162-0.272-0.328
		c0.016-0.167,0.164-0.292,0.326-0.273l0.402,0.038c0.166,0.015,0.289,0.162,0.272,0.327
		C107.014,72.112,106.884,72.228,106.729,72.228 M105.328,72.099c-0.01,0-0.02,0-0.028-0.002l-0.4-0.036
		c-0.166-0.015-0.289-0.162-0.272-0.328c0.015-0.167,0.164-0.292,0.327-0.273l0.399,0.037c0.167,0.015,0.29,0.162,0.273,0.328
		C105.614,71.982,105.482,72.099,105.328,72.099 M103.926,71.969c0,0-0.019,0-0.028-0.001l-0.4-0.038
		c-0.166-0.015-0.286-0.162-0.272-0.328c0.017-0.166,0.167-0.289,0.329-0.273l0.4,0.038c0.165,0.017,0.287,0.163,0.272,0.328
		C104.213,71.851,104.079,71.969,103.926,71.969 M102.524,71.84c-0.009,0-0.019-0.002-0.028-0.002l-0.4-0.037
		c-0.165-0.015-0.286-0.163-0.272-0.328c0.016-0.166,0.162-0.285,0.328-0.273l0.4,0.036c0.167,0.016,0.289,0.164,0.272,0.328
		C102.811,71.721,102.679,71.84,102.524,71.84 M101.122,71.71c-0.008,0-0.019-0.002-0.027-0.002l-0.398-0.036
		c-0.167-0.015-0.29-0.162-0.273-0.328c0.013-0.167,0.162-0.288,0.327-0.273l0.4,0.036c0.166,0.015,0.288,0.162,0.272,0.328
		C101.409,71.592,101.278,71.71,101.122,71.71 M99.723,71.58c-0.011,0-0.019-0.001-0.03-0.001l-0.4-0.038
		c-0.165-0.015-0.286-0.162-0.272-0.328c0.017-0.165,0.165-0.288,0.33-0.273l0.4,0.038c0.165,0.016,0.286,0.162,0.272,0.329
		C100.008,71.462,99.876,71.58,99.723,71.58 M98.32,71.45c-0.01,0-0.018-0.001-0.027-0.001l-0.401-0.037
		c-0.166-0.016-0.289-0.163-0.271-0.329c0.014-0.165,0.162-0.291,0.328-0.272l0.4,0.037c0.166,0.014,0.287,0.163,0.271,0.328
		C98.604,71.333,98.475,71.45,98.32,71.45 M96.919,71.321c-0.01,0-0.02-0.002-0.028-0.002l-0.4-0.038
		c-0.166-0.016-0.288-0.161-0.272-0.328c0.015-0.165,0.165-0.289,0.327-0.272l0.402,0.037c0.165,0.015,0.288,0.162,0.272,0.328
		C97.206,71.202,97.073,71.321,96.919,71.321 M95.517,71.19c-0.008,0-0.018,0-0.026-0.002l-0.401-0.036
		c-0.166-0.016-0.287-0.162-0.273-0.328c0.017-0.165,0.162-0.29,0.329-0.273l0.4,0.037c0.167,0.016,0.289,0.163,0.272,0.329
		C95.802,71.073,95.671,71.19,95.517,71.19 M94.116,71.06c0,0-0.02,0-0.028-0.001l-0.401-0.037
		c-0.166-0.015-0.287-0.162-0.271-0.328s0.165-0.29,0.328-0.272l0.4,0.037c0.166,0.015,0.288,0.162,0.271,0.327
		C94.402,70.943,94.269,71.06,94.116,71.06 M92.714,70.93c-0.01,0-0.017,0-0.028-0.001l-0.399-0.038
		c-0.166-0.014-0.288-0.16-0.273-0.327c0.017-0.165,0.161-0.289,0.33-0.272l0.4,0.037c0.164,0.015,0.286,0.162,0.271,0.328
		C93,70.813,92.868,70.93,92.714,70.93 M91.313,70.801c-0.01,0-0.019,0-0.029-0.002l-0.4-0.037
		c-0.165-0.015-0.287-0.161-0.272-0.328c0.016-0.164,0.163-0.284,0.329-0.272l0.4,0.037c0.165,0.016,0.288,0.161,0.271,0.329
		C91.599,70.683,91.467,70.801,91.313,70.801 M89.913,70.671c-0.012,0-0.02,0-0.028-0.001l-0.401-0.037
		c-0.167-0.016-0.289-0.162-0.272-0.329c0.015-0.166,0.16-0.285,0.327-0.271l0.4,0.037c0.165,0.015,0.288,0.161,0.273,0.328
		C90.197,70.554,90.066,70.671,89.913,70.671 M88.51,70.541c-0.009,0-0.019,0-0.027-0.001l-0.401-0.038
		c-0.165-0.014-0.287-0.161-0.272-0.327c0.017-0.166,0.165-0.289,0.329-0.272l0.4,0.038c0.166,0.014,0.287,0.16,0.272,0.327
		C88.795,70.424,88.664,70.541,88.51,70.541 M87.109,70.412c-0.01,0-0.02,0-0.028-0.002l-0.401-0.037
		c-0.165-0.015-0.288-0.163-0.271-0.327c0.015-0.167,0.159-0.291,0.328-0.273l0.399,0.037c0.167,0.015,0.289,0.162,0.272,0.328
		C87.394,70.294,87.263,70.412,87.109,70.412 M85.707,70.282c-0.01,0-0.019,0-0.028-0.001l-0.4-0.038
		c-0.166-0.015-0.287-0.162-0.272-0.328c0.014-0.166,0.163-0.291,0.329-0.271l0.398,0.036c0.167,0.016,0.289,0.162,0.273,0.329
		C85.994,70.165,85.862,70.282,85.707,70.282"/>
	<path style="clip-path:url(#SVGID_5_);fill:#FFFFFF;" d="M95.497,98.034c-0.121,0-0.232-0.072-0.28-0.19l-0.149-0.373
		c-0.062-0.154,0.012-0.331,0.167-0.393c0.155-0.06,0.329,0.014,0.392,0.168l0.15,0.373c0.062,0.155-0.014,0.331-0.166,0.394
		C95.571,98.027,95.534,98.034,95.497,98.034 M94.97,96.728c-0.119,0-0.231-0.071-0.279-0.189l-0.149-0.374
		c-0.062-0.153,0.013-0.328,0.167-0.391c0.154-0.062,0.329,0.013,0.393,0.167l0.15,0.374c0.062,0.153-0.013,0.329-0.168,0.391
		C95.046,96.721,95.008,96.728,94.97,96.728 M94.444,95.424c-0.118,0-0.231-0.074-0.28-0.191l-0.149-0.372
		c-0.062-0.155,0.012-0.33,0.167-0.393s0.331,0.013,0.394,0.167l0.148,0.374c0.063,0.154-0.012,0.328-0.166,0.391
		C94.521,95.415,94.482,95.424,94.444,95.424 M93.919,94.117c-0.119,0-0.233-0.071-0.279-0.189l-0.151-0.373
		c-0.062-0.155,0.013-0.331,0.167-0.393c0.154-0.063,0.331,0.013,0.393,0.168l0.151,0.373c0.062,0.156-0.014,0.331-0.168,0.393
		C93.993,94.11,93.957,94.117,93.919,94.117 M93.394,92.811c-0.12,0-0.233-0.071-0.281-0.188l-0.15-0.374
		c-0.061-0.153,0.014-0.328,0.168-0.391c0.154-0.062,0.33,0.011,0.392,0.167l0.151,0.372c0.062,0.156-0.013,0.33-0.167,0.393
		C93.468,92.804,93.431,92.811,93.394,92.811 M92.866,91.505c-0.119,0-0.232-0.071-0.279-0.188l-0.15-0.374
		c-0.062-0.153,0.013-0.329,0.166-0.392c0.154-0.061,0.331,0.012,0.395,0.168l0.15,0.372c0.061,0.155-0.014,0.33-0.168,0.393
		C92.942,91.499,92.904,91.505,92.866,91.505 M92.341,90.2c-0.118,0-0.232-0.07-0.279-0.188l-0.15-0.374
		c-0.062-0.154,0.013-0.33,0.165-0.392c0.156-0.063,0.331,0.013,0.396,0.166l0.149,0.373c0.062,0.156-0.013,0.332-0.167,0.394
		C92.418,90.193,92.378,90.2,92.341,90.2 M91.816,88.895c-0.12,0-0.234-0.07-0.28-0.189l-0.152-0.373
		c-0.062-0.155,0.014-0.33,0.168-0.392c0.154-0.061,0.33,0.012,0.393,0.168l0.15,0.371c0.062,0.155-0.013,0.332-0.167,0.394
		C91.891,88.888,91.853,88.895,91.816,88.895 M91.29,87.589c-0.12,0-0.234-0.071-0.281-0.19l-0.15-0.372
		c-0.062-0.154,0.013-0.331,0.167-0.392c0.155-0.063,0.33,0.012,0.394,0.168l0.149,0.372c0.062,0.155-0.013,0.331-0.167,0.393
		C91.363,87.583,91.326,87.589,91.29,87.589 M90.763,86.284c-0.119,0-0.232-0.072-0.279-0.188l-0.15-0.375
		c-0.062-0.154,0.012-0.33,0.166-0.391c0.156-0.063,0.332,0.012,0.394,0.167l0.149,0.372c0.062,0.155-0.012,0.33-0.166,0.393
		C90.839,86.278,90.8,86.284,90.763,86.284 M90.237,84.978c-0.119,0-0.232-0.071-0.281-0.189l-0.148-0.372
		c-0.063-0.155,0.012-0.331,0.166-0.392c0.154-0.063,0.33,0.012,0.394,0.166l0.15,0.373c0.061,0.154-0.013,0.329-0.168,0.392
		C90.312,84.972,90.273,84.978,90.237,84.978 M89.711,83.673c-0.119,0-0.231-0.071-0.279-0.189l-0.15-0.374
		c-0.063-0.153,0.013-0.329,0.166-0.392c0.155-0.062,0.331,0.013,0.394,0.169l0.149,0.371c0.062,0.156-0.013,0.332-0.167,0.394
		C89.786,83.665,89.749,83.673,89.711,83.673 M89.186,82.367c-0.12,0-0.233-0.071-0.279-0.188l-0.15-0.374
		c-0.063-0.155,0.012-0.33,0.166-0.393c0.155-0.062,0.331,0.014,0.393,0.169l0.15,0.372c0.063,0.154-0.013,0.331-0.167,0.393
		C89.261,82.361,89.223,82.367,89.186,82.367 M88.659,81.062c-0.12,0-0.232-0.072-0.28-0.189L88.229,80.5
		c-0.062-0.154,0.012-0.329,0.168-0.392c0.152-0.063,0.328,0.013,0.391,0.166l0.151,0.373c0.062,0.155-0.013,0.331-0.168,0.392
		C88.735,81.055,88.696,81.062,88.659,81.062 M88.133,79.757c-0.118,0-0.232-0.073-0.279-0.189l-0.15-0.373
		c-0.062-0.155,0.012-0.331,0.167-0.393c0.154-0.06,0.33,0.013,0.393,0.167l0.15,0.374c0.062,0.154-0.014,0.329-0.168,0.392
		C88.209,79.75,88.171,79.757,88.133,79.757 M87.606,78.45c-0.119,0-0.232-0.071-0.278-0.188l-0.149-0.373
		c-0.064-0.155,0.011-0.331,0.166-0.393c0.154-0.062,0.33,0.013,0.393,0.167l0.15,0.374c0.061,0.155-0.014,0.33-0.168,0.392
		C87.683,78.443,87.646,78.45,87.606,78.45 M87.081,77.146c-0.12,0-0.231-0.072-0.279-0.19l-0.149-0.372
		c-0.063-0.155,0.013-0.331,0.167-0.393c0.153-0.063,0.329,0.012,0.392,0.167l0.15,0.373c0.062,0.155-0.013,0.33-0.169,0.392
		C87.157,77.138,87.12,77.146,87.081,77.146 M86.556,75.84c-0.12,0-0.233-0.071-0.28-0.189l-0.15-0.374
		c-0.062-0.153,0.013-0.329,0.167-0.391c0.155-0.062,0.33,0.012,0.392,0.167l0.151,0.372c0.063,0.155-0.012,0.331-0.166,0.393
		C86.632,75.833,86.593,75.84,86.556,75.84 M86.029,74.535c-0.12,0-0.232-0.071-0.28-0.189L85.6,73.972
		c-0.063-0.155,0.013-0.329,0.167-0.392s0.331,0.014,0.392,0.166l0.151,0.374c0.062,0.154-0.013,0.329-0.168,0.392
		C86.105,74.527,86.067,74.535,86.029,74.535 M85.504,73.229c-0.12,0-0.232-0.071-0.28-0.19l-0.15-0.373
		c-0.062-0.154,0.012-0.329,0.168-0.392c0.153-0.061,0.33,0.013,0.392,0.167l0.149,0.372c0.064,0.155-0.011,0.331-0.166,0.394
		C85.579,73.221,85.542,73.229,85.504,73.229 M84.978,71.923c-0.119,0-0.232-0.071-0.28-0.189l-0.149-0.373
		c-0.062-0.153,0.012-0.33,0.168-0.391c0.152-0.063,0.329,0.011,0.391,0.167l0.149,0.373c0.063,0.154-0.012,0.33-0.166,0.392
		C85.053,71.915,85.015,71.923,84.978,71.923 M84.451,70.617c-0.12,0-0.232-0.071-0.28-0.187l-0.149-0.375
		c-0.062-0.153,0.011-0.329,0.166-0.391c0.154-0.064,0.331,0.011,0.393,0.167l0.151,0.373c0.062,0.154-0.013,0.33-0.167,0.392
		C84.527,70.611,84.489,70.617,84.451,70.617"/>
</g>
</svg>
