<?xml version="1.0" encoding="utf-8"?>
<!-- Generator: Adobe Illustrator 16.0.0, SVG Export Plug-In . SVG Version: 6.00 Build 0)  -->
<!DOCTYPE svg PUBLIC "-//W3C//DTD SVG 1.1//EN" "http://www.w3.org/Graphics/SVG/1.1/DTD/svg11.dtd">
<svg version="1.1" id="Layer_1" xmlns="http://www.w3.org/2000/svg" xmlns:xlink="http://www.w3.org/1999/xlink" x="0px" y="0px"
	 width="314.533px" height="322.388px" viewBox="0 0 314.533 322.388" style="enable-background:new 0 0 314.533 322.388;"
	 xml:space="preserve">
<g>
	<path style="fill:#FFFFFF;" d="M183.222,222.24c-5.622,0-9.27,4.75-9.27,10.693c0,5.778,3.647,10.611,9.27,10.611
		c4.915,0,9.417-3.569,9.417-10.538C192.639,225.726,188.137,222.24,183.222,222.24z"/>
	<path style="fill:#FFFFFF;" d="M56.674,222.24c-5.623,0-9.26,4.75-9.26,10.693c0,5.778,3.638,10.611,9.26,10.611
		c4.906,0,9.426-3.569,9.426-10.538C66.1,225.726,61.58,222.24,56.674,222.24z"/>
	<path style="fill:#FFFFFF;" d="M153.544,7.038C68.736,7.038,0,75.781,0,160.582c0,84.781,68.736,153.531,153.544,153.531
		c84.79,0,153.545-68.75,153.545-153.531C307.089,75.781,238.334,7.038,153.544,7.038z M212.473,90.879l0.809-0.179
		c0.326-0.071,0.662,0.142,0.722,0.471c0.078,0.335-0.124,0.666-0.464,0.735l-0.804,0.172c-0.042,0.011-0.097,0.016-0.134,0.016
		c-0.275,0-0.533-0.191-0.597-0.485C211.931,91.274,212.143,90.946,212.473,90.879z M209.667,91.488l0.8-0.179
		c0.335-0.069,0.666,0.143,0.73,0.476c0.073,0.331-0.129,0.664-0.46,0.732l-0.826,0.175c-0.037,0.011-0.074,0.016-0.115,0.016
		c-0.289,0-0.547-0.202-0.602-0.487C209.121,91.887,209.332,91.559,209.667,91.488z M206.851,92.094l0.8-0.172
		c0.349-0.074,0.666,0.14,0.744,0.476c0.063,0.331-0.147,0.657-0.479,0.728l-0.808,0.174c-0.042,0.016-0.093,0.019-0.129,0.019
		c-0.275,0-0.542-0.2-0.606-0.485C206.309,92.499,206.511,92.17,206.851,92.094z M198.409,93.932l0.804-0.179
		c0.345-0.074,0.661,0.145,0.735,0.473c0.073,0.333-0.139,0.666-0.469,0.737l-0.804,0.174c-0.046,0.009-0.083,0.009-0.129,0.009
		c-0.285,0-0.552-0.198-0.606-0.482C197.875,94.331,198.087,94.002,198.409,93.932z M198.381,131.136
		c0.34,0.03,0.588,0.333,0.56,0.671c-0.032,0.319-0.298,0.56-0.62,0.56l-0.05-0.002l-0.818-0.071
		c-0.34-0.032-0.592-0.335-0.56-0.675c0.036-0.337,0.33-0.592,0.67-0.556L198.381,131.136z M195.597,94.54l0.809-0.174
		c0.326-0.074,0.666,0.14,0.73,0.468c0.068,0.338-0.147,0.664-0.482,0.735l-0.79,0.182c-0.051,0.009-0.092,0.011-0.138,0.011
		c-0.29,0-0.533-0.2-0.606-0.489C195.05,94.942,195.266,94.614,195.597,94.54z M195.514,130.87c0.341,0.034,0.598,0.335,0.552,0.677
		c-0.027,0.312-0.294,0.556-0.598,0.556l-0.073-0.002l-0.812-0.074c-0.345-0.034-0.588-0.337-0.557-0.673
		c0.028-0.337,0.331-0.59,0.671-0.561L195.514,130.87z M194.321,95.447c0.068,0.335-0.129,0.657-0.469,0.74l-0.809,0.167
		c-0.037,0.007-0.078,0.014-0.138,0.014c-0.28,0-0.533-0.197-0.588-0.487c-0.078-0.333,0.128-0.657,0.468-0.73l0.805-0.172
		C193.925,94.901,194.251,95.117,194.321,95.447z M167.991,138.864c0.326-0.126,0.68,0.028,0.809,0.335l0.303,0.763
		c0.129,0.319-0.027,0.68-0.34,0.804c-0.073,0.034-0.156,0.053-0.229,0.053c-0.248,0-0.478-0.151-0.569-0.386l-0.312-0.77
		C167.532,139.351,167.688,138.991,167.991,138.864z M167.454,138.146c-0.239,0-0.474-0.143-0.565-0.388l-0.312-0.76
		c-0.119-0.321,0.028-0.677,0.34-0.806c0.322-0.126,0.685,0.03,0.805,0.345l0.308,0.762c0.128,0.315-0.023,0.671-0.34,0.802
		C167.614,138.127,167.536,138.146,167.454,138.146z M169.075,141.531c0.312-0.124,0.671,0.023,0.8,0.342l0.303,0.763
		c0.138,0.319-0.019,0.677-0.34,0.806c-0.073,0.025-0.151,0.048-0.226,0.048c-0.252,0-0.473-0.154-0.569-0.393l-0.308-0.765
		C168.597,142.02,168.753,141.655,169.075,141.531z M170.14,144.202c0.326-0.124,0.681,0.028,0.809,0.342l0.304,0.76
		c0.133,0.322-0.028,0.678-0.34,0.804c-0.074,0.027-0.147,0.043-0.23,0.043c-0.238,0-0.478-0.145-0.569-0.386l-0.308-0.758
		C169.681,144.689,169.824,144.331,170.14,144.202z M189.792,130.341c0.34,0.032,0.588,0.331,0.551,0.67
		c-0.027,0.317-0.303,0.561-0.615,0.561h-0.041l-0.841-0.081c-0.336-0.037-0.579-0.331-0.552-0.668
		c0.028-0.338,0.34-0.593,0.671-0.558L189.792,130.341z M189.498,96.495c-0.069-0.333,0.146-0.662,0.478-0.728l0.799-0.184
		c0.336-0.069,0.662,0.142,0.74,0.475c0.063,0.335-0.152,0.664-0.474,0.73l-0.799,0.174c-0.056,0.014-0.102,0.014-0.147,0.014
		C189.819,96.977,189.557,96.789,189.498,96.495z M188.22,97.399l-0.799,0.177c-0.056,0.007-0.083,0.019-0.12,0.019
		c-0.284,0-0.551-0.202-0.61-0.487c-0.078-0.335,0.143-0.662,0.473-0.74l0.8-0.172c0.33-0.073,0.666,0.14,0.734,0.473
		C188.772,97.004,188.551,97.335,188.22,97.399z M187.471,130.748c-0.032,0.317-0.298,0.558-0.61,0.558c0,0-0.042,0-0.056-0.007
		l-0.826-0.071c-0.336-0.035-0.579-0.333-0.552-0.668c0.037-0.34,0.331-0.595,0.671-0.563l0.817,0.081
		C187.255,130.107,187.503,130.406,187.471,130.748z M187.559,35.999c-0.105,0.241-0.331,0.391-0.579,0.391
		c-0.083,0-0.161-0.016-0.229-0.043c-0.312-0.131-0.469-0.492-0.345-0.802l0.308-0.767c0.129-0.315,0.482-0.471,0.8-0.342
		c0.312,0.126,0.473,0.482,0.349,0.799L187.559,35.999z M186.457,37.106c0.303,0.126,0.459,0.487,0.331,0.802l-0.304,0.763
		c-0.092,0.243-0.326,0.39-0.569,0.39c-0.083,0-0.156-0.014-0.229-0.043c-0.312-0.129-0.469-0.489-0.35-0.799l0.308-0.763
		C185.772,37.136,186.125,36.987,186.457,37.106z M185.409,98.013l-0.799,0.174c-0.046,0.009-0.092,0.016-0.129,0.016
		c-0.289,0-0.542-0.2-0.606-0.487c-0.068-0.333,0.138-0.661,0.464-0.735l0.822-0.174c0.322-0.074,0.652,0.142,0.722,0.471
		C185.96,97.608,185.74,97.939,185.409,98.013z M184.132,178.906c0.316-0.12,0.68,0.036,0.799,0.349l0.304,0.763
		c0.138,0.312-0.019,0.67-0.331,0.799c-0.092,0.032-0.156,0.051-0.239,0.051c-0.238,0-0.473-0.151-0.569-0.391l-0.308-0.763
		C183.659,179.401,183.806,179.039,184.132,178.906z M183.59,178.189c-0.239,0-0.478-0.143-0.574-0.386l-0.299-0.763
		c-0.138-0.312,0.019-0.676,0.34-0.8c0.312-0.133,0.671,0.028,0.8,0.34l0.312,0.763c0.12,0.322-0.018,0.676-0.354,0.8
		C183.747,178.175,183.668,178.189,183.59,178.189z M184.041,129.813c0.358,0.03,0.602,0.331,0.569,0.673
		c-0.027,0.315-0.303,0.556-0.606,0.556c0,0-0.037,0-0.064-0.007l-0.826-0.073c-0.331-0.03-0.579-0.331-0.552-0.668
		c0.037-0.344,0.336-0.597,0.671-0.556L184.041,129.813z M182.607,98.624L181.79,98.8c-0.037,0.007-0.087,0.014-0.129,0.014
		c-0.28,0-0.532-0.2-0.597-0.489c-0.074-0.331,0.138-0.657,0.478-0.73l0.79-0.179c0.34-0.071,0.675,0.14,0.735,0.473
		C183.145,98.222,182.938,98.548,182.607,98.624z M181.188,129.544c0.335,0.034,0.583,0.335,0.556,0.668
		c-0.032,0.322-0.299,0.563-0.615,0.563c0,0-0.037,0-0.061-0.002l-0.812-0.08c-0.34-0.025-0.588-0.326-0.561-0.664
		c0.037-0.342,0.34-0.595,0.671-0.561L181.188,129.544z M179.787,99.237l-0.79,0.172c-0.064,0.011-0.101,0.011-0.146,0.011
		c-0.29,0-0.538-0.193-0.598-0.482c-0.078-0.331,0.138-0.664,0.464-0.735l0.813-0.174c0.33-0.074,0.661,0.138,0.726,0.469
		C180.32,98.833,180.118,99.161,179.787,99.237z M178.322,129.278c0.335,0.035,0.592,0.333,0.556,0.671
		c-0.027,0.321-0.304,0.56-0.615,0.56h-0.037l-0.836-0.076c-0.34-0.035-0.588-0.331-0.565-0.67c0.042-0.335,0.345-0.588,0.676-0.563
		L178.322,129.278z M176.966,99.843l-0.79,0.177c-0.055,0.012-0.092,0.012-0.138,0.012c-0.275,0-0.542-0.198-0.602-0.485
		c-0.078-0.333,0.138-0.664,0.473-0.73l0.809-0.177c0.331-0.073,0.652,0.14,0.735,0.471
		C177.522,99.448,177.316,99.772,176.966,99.843z M175.459,129.011c0.331,0.039,0.579,0.333,0.552,0.675
		c-0.028,0.319-0.285,0.558-0.606,0.558c-0.027,0-0.046,0-0.064-0.004l-0.822-0.076c-0.335-0.032-0.583-0.326-0.565-0.671
		c0.042-0.34,0.341-0.588,0.681-0.553L175.459,129.011z M174.165,100.454l-0.809,0.174c-0.037,0.016-0.083,0.019-0.133,0.019
		c-0.29,0-0.533-0.195-0.598-0.489c-0.073-0.335,0.143-0.661,0.469-0.728l0.804-0.174c0.34-0.078,0.661,0.138,0.735,0.466
		C174.707,100.057,174.486,100.383,174.165,100.454z M173.145,129.418c-0.037,0.324-0.294,0.562-0.616,0.562
		c0,0-0.036,0-0.055-0.004l-0.822-0.076c-0.331-0.03-0.583-0.329-0.556-0.671c0.041-0.337,0.33-0.59,0.675-0.558l0.822,0.076
		C172.933,128.782,173.172,129.081,173.145,129.418z M171.344,101.067l-0.8,0.172c-0.036,0.009-0.092,0.018-0.133,0.018
		c-0.28,0-0.537-0.2-0.598-0.489c-0.068-0.333,0.139-0.659,0.464-0.73l0.809-0.179c0.331-0.071,0.662,0.145,0.735,0.475
		C171.9,100.666,171.684,100.996,171.344,101.067z M171.224,146.871c0.322-0.124,0.676,0.028,0.8,0.34l0.312,0.765
		c0.128,0.319-0.027,0.68-0.35,0.806c-0.068,0.034-0.156,0.043-0.229,0.043c-0.243,0-0.469-0.151-0.574-0.388l-0.303-0.763
		C170.756,147.36,170.903,147.001,171.224,146.871z M172.304,149.542c0.312-0.129,0.666,0.027,0.804,0.344l0.303,0.765
		c0.124,0.312-0.027,0.668-0.349,0.795c-0.073,0.037-0.156,0.05-0.226,0.05c-0.243,0-0.473-0.151-0.574-0.386l-0.312-0.767
		C171.831,150.031,171.978,149.673,172.304,149.542z M173.375,152.208c0.312-0.126,0.671,0.025,0.799,0.347l0.304,0.76
		c0.128,0.314-0.019,0.677-0.336,0.804c-0.078,0.03-0.151,0.042-0.225,0.042c-0.243,0-0.487-0.143-0.574-0.386l-0.308-0.762
		C172.906,152.693,173.053,152.344,173.375,152.208z M174.449,154.882c0.312-0.126,0.681,0.025,0.8,0.344l0.308,0.753
		c0.133,0.324-0.022,0.685-0.345,0.813c-0.073,0.027-0.151,0.043-0.229,0.043c-0.239,0-0.469-0.149-0.574-0.39l-0.308-0.763
		C173.981,155.369,174.132,155.008,174.449,154.882z M175.524,157.555c0.317-0.131,0.671,0.023,0.809,0.335l0.303,0.765
		c0.124,0.319-0.022,0.673-0.34,0.801c-0.087,0.035-0.156,0.044-0.238,0.044c-0.234,0-0.474-0.143-0.57-0.386l-0.308-0.765
		C175.06,158.035,175.211,157.674,175.524,157.555z M176.589,160.222c0.331-0.129,0.689,0.023,0.813,0.344l0.308,0.756
		c0.129,0.324-0.027,0.675-0.34,0.806c-0.073,0.03-0.156,0.042-0.234,0.042c-0.243,0-0.473-0.147-0.564-0.384l-0.312-0.763
		C176.13,160.708,176.287,160.348,176.589,160.222z M177.669,162.89c0.312-0.131,0.685,0.025,0.812,0.345l0.312,0.763
		c0.119,0.314-0.036,0.675-0.354,0.801c-0.073,0.035-0.151,0.042-0.226,0.042c-0.248,0-0.478-0.143-0.578-0.386l-0.304-0.763
		C177.206,163.377,177.362,163.017,177.669,162.89z M178.749,165.559c0.321-0.122,0.68,0.027,0.804,0.345l0.317,0.763
		c0.11,0.31-0.037,0.673-0.35,0.806c-0.073,0.023-0.16,0.041-0.22,0.041c-0.248,0-0.487-0.138-0.589-0.386l-0.303-0.763
		C178.28,166.042,178.436,165.685,178.749,165.559z M179.824,168.23c0.316-0.129,0.68,0.027,0.809,0.34l0.308,0.763
		c0.124,0.317-0.019,0.68-0.336,0.804c-0.078,0.032-0.165,0.041-0.238,0.041c-0.248,0-0.482-0.142-0.579-0.386l-0.303-0.762
		C179.36,168.717,179.511,168.359,179.824,168.23z M180.898,170.904c0.322-0.129,0.685,0.018,0.805,0.34l0.308,0.763
		c0.138,0.312-0.023,0.67-0.34,0.804c-0.078,0.027-0.156,0.041-0.226,0.041c-0.248,0-0.482-0.146-0.574-0.386l-0.303-0.768
		C180.439,171.381,180.595,171.023,180.898,170.904z M181.978,173.573c0.316-0.124,0.675,0.018,0.804,0.335l0.308,0.763
		c0.124,0.321-0.022,0.68-0.345,0.809c-0.073,0.027-0.146,0.046-0.229,0.046c-0.239,0-0.473-0.147-0.569-0.387l-0.304-0.762
		C181.514,174.054,181.661,173.706,181.978,173.573z M184.872,181.956c0.055-0.166,0.165-0.304,0.335-0.377
		c0.175-0.073,0.358-0.037,0.515,0.055c0.396-0.119,0.79-0.248,1.222-0.248c2.509,0,4.529,2.03,4.529,4.529
		c0,2.49-2.021,4.524-4.529,4.524c-2.484,0-4.515-2.034-4.515-4.524C182.428,184.178,183.443,182.718,184.872,181.956z
		 M191.169,131.088c0.014-0.335,0.321-0.595,0.671-0.554l0.817,0.074c0.34,0.025,0.588,0.328,0.532,0.673
		c-0.018,0.317-0.284,0.56-0.597,0.56l-0.056-0.007l-0.821-0.071C191.375,131.722,191.127,131.425,191.169,131.088z M189.419,25.138
		c2.503,0,4.524,2.023,4.524,4.52c0,2.501-2.021,4.525-4.524,4.525c-2.504,0-4.524-2.023-4.524-4.525
		C184.895,27.162,186.916,25.138,189.419,25.138z M184.583,40.124c0.128-0.314,0.478-0.468,0.794-0.344
		c0.317,0.131,0.474,0.487,0.345,0.801l-0.303,0.772c-0.092,0.232-0.321,0.381-0.569,0.381c-0.074,0-0.166-0.011-0.23-0.041
		c-0.312-0.126-0.468-0.482-0.349-0.802L184.583,40.124z M183.516,42.8c0.129-0.315,0.487-0.473,0.805-0.349
		c0.308,0.133,0.464,0.487,0.335,0.806l-0.303,0.765c-0.093,0.239-0.331,0.391-0.57,0.391c-0.073,0-0.156-0.019-0.229-0.053
		c-0.312-0.122-0.469-0.476-0.349-0.795L183.516,42.8z M182.148,46.233l0.303-0.763c0.115-0.314,0.478-0.473,0.79-0.34
		c0.322,0.122,0.478,0.485,0.35,0.797l-0.299,0.763c-0.097,0.243-0.34,0.393-0.574,0.393c-0.073,0-0.156-0.016-0.225-0.048
		C182.167,46.909,182.01,46.548,182.148,46.233z M181.38,48.142c0.124-0.31,0.482-0.464,0.8-0.34
		c0.316,0.126,0.473,0.48,0.354,0.799l-0.312,0.765c-0.092,0.241-0.321,0.386-0.569,0.386c-0.078,0-0.156-0.009-0.239-0.039
		c-0.312-0.131-0.459-0.492-0.33-0.799L181.38,48.142z M180.32,50.82c0.119-0.314,0.482-0.466,0.79-0.345
		c0.326,0.126,0.478,0.482,0.345,0.802l-0.299,0.763c-0.092,0.243-0.321,0.386-0.569,0.386c-0.083,0-0.156-0.009-0.23-0.044
		c-0.312-0.124-0.473-0.482-0.349-0.799L180.32,50.82z M179.245,53.493c0.124-0.319,0.487-0.468,0.809-0.349
		c0.312,0.131,0.459,0.487,0.34,0.806l-0.308,0.76c-0.097,0.246-0.321,0.393-0.565,0.393c-0.082,0-0.16-0.016-0.229-0.046
		c-0.316-0.126-0.469-0.487-0.358-0.801L179.245,53.493z M178.174,56.167c0.129-0.317,0.491-0.464,0.813-0.347
		c0.312,0.128,0.468,0.484,0.34,0.804l-0.299,0.763c-0.097,0.243-0.345,0.39-0.574,0.39c-0.083,0-0.165-0.016-0.229-0.046
		c-0.317-0.126-0.478-0.487-0.35-0.801L178.174,56.167z M177.114,58.842c0.128-0.314,0.486-0.471,0.799-0.342
		c0.312,0.117,0.469,0.478,0.35,0.799l-0.312,0.763c-0.092,0.241-0.322,0.388-0.565,0.388c-0.068,0-0.161-0.014-0.225-0.041
		c-0.322-0.129-0.479-0.487-0.35-0.802L177.114,58.842z M176.047,61.513c0.129-0.312,0.496-0.471,0.8-0.342
		c0.321,0.126,0.473,0.482,0.349,0.799l-0.303,0.763c-0.11,0.244-0.331,0.393-0.579,0.393c-0.064,0-0.156-0.016-0.229-0.048
		c-0.312-0.126-0.469-0.487-0.34-0.799L176.047,61.513z M174.982,64.187c0.129-0.312,0.487-0.468,0.8-0.347
		c0.316,0.128,0.478,0.489,0.34,0.802l-0.299,0.767c-0.097,0.241-0.326,0.383-0.574,0.383c-0.073,0-0.156-0.011-0.229-0.041
		c-0.312-0.126-0.469-0.487-0.34-0.802L174.982,64.187z M173.917,66.862c0.119-0.319,0.482-0.473,0.804-0.349
		c0.317,0.129,0.469,0.494,0.34,0.802l-0.308,0.765c-0.097,0.246-0.321,0.388-0.569,0.388c-0.083,0-0.156-0.014-0.23-0.042
		c-0.312-0.126-0.473-0.487-0.344-0.806L173.917,66.862z M172.851,69.531c0.119-0.317,0.481-0.471,0.799-0.345
		c0.303,0.126,0.473,0.487,0.345,0.802l-0.308,0.767c-0.088,0.243-0.326,0.388-0.57,0.388c-0.073,0-0.151-0.012-0.229-0.046
		c-0.316-0.124-0.464-0.485-0.34-0.804L172.851,69.531z M171.785,72.207c0.124-0.322,0.487-0.471,0.8-0.347
		c0.312,0.129,0.459,0.489,0.349,0.806l-0.308,0.763c-0.105,0.239-0.331,0.391-0.588,0.391c-0.06,0-0.138-0.012-0.216-0.046
		c-0.317-0.126-0.469-0.487-0.34-0.806L171.785,72.207z M170.724,74.88c0.114-0.319,0.473-0.471,0.799-0.345
		c0.308,0.126,0.464,0.485,0.336,0.806l-0.294,0.76c-0.106,0.239-0.341,0.386-0.584,0.386c-0.078,0-0.151-0.014-0.225-0.039
		c-0.312-0.128-0.479-0.489-0.35-0.804L170.724,74.88z M169.644,77.551c0.138-0.312,0.492-0.469,0.809-0.34
		c0.321,0.124,0.469,0.484,0.34,0.802l-0.308,0.765c-0.087,0.241-0.326,0.386-0.564,0.386c-0.083,0-0.156-0.019-0.234-0.046
		c-0.317-0.124-0.464-0.485-0.345-0.797L169.644,77.551z M168.579,80.227c0.138-0.322,0.487-0.469,0.809-0.345
		c0.321,0.126,0.469,0.487,0.34,0.804l-0.308,0.765c-0.087,0.243-0.326,0.383-0.565,0.383c-0.082,0-0.151-0.011-0.238-0.041
		c-0.312-0.126-0.46-0.485-0.34-0.806L168.579,80.227z M169.01,100.943c0.064,0.335-0.146,0.666-0.478,0.732l-0.804,0.175
		c-0.041,0.011-0.087,0.011-0.129,0.011c-0.289,0-0.546-0.19-0.602-0.48c-0.068-0.335,0.143-0.664,0.469-0.735l0.809-0.177
		C168.606,100.401,168.937,100.61,169.01,100.943z M167.513,82.9c0.129-0.315,0.491-0.469,0.804-0.342
		c0.321,0.124,0.469,0.484,0.345,0.802l-0.312,0.755c-0.087,0.248-0.321,0.393-0.561,0.393c-0.083,0-0.156-0.011-0.238-0.039
		c-0.312-0.129-0.465-0.489-0.336-0.807L167.513,82.9z M166.457,85.574c0.119-0.317,0.487-0.471,0.8-0.345
		c0.312,0.126,0.464,0.487,0.344,0.806l-0.308,0.756c-0.097,0.246-0.321,0.393-0.579,0.393c-0.073,0-0.151-0.014-0.225-0.041
		c-0.308-0.126-0.469-0.487-0.34-0.799L166.457,85.574z M165.381,88.247c0.129-0.317,0.496-0.468,0.8-0.344
		c0.321,0.126,0.469,0.487,0.349,0.806l-0.298,0.763c-0.106,0.237-0.331,0.386-0.584,0.386c-0.068,0-0.143-0.018-0.221-0.041
		c-0.316-0.126-0.478-0.485-0.349-0.806L165.381,88.247z M164.321,90.923c0.129-0.319,0.482-0.471,0.799-0.345
		c0.317,0.122,0.464,0.482,0.345,0.802l-0.312,0.765c-0.092,0.239-0.321,0.386-0.556,0.386c-0.078,0-0.161-0.014-0.234-0.048
		c-0.321-0.122-0.478-0.48-0.349-0.797L164.321,90.923z M163.25,93.594c0.129-0.317,0.486-0.468,0.79-0.342
		c0.331,0.126,0.487,0.487,0.349,0.797l-0.303,0.768c-0.083,0.236-0.321,0.39-0.569,0.39c-0.074,0-0.156-0.018-0.226-0.048
		c-0.316-0.119-0.473-0.482-0.345-0.799L163.25,93.594z M162.185,96.267c0.128-0.314,0.486-0.466,0.808-0.34
		c0.304,0.124,0.46,0.478,0.341,0.795l-0.309,0.771c-0.096,0.241-0.326,0.384-0.578,0.384c-0.073,0-0.151-0.016-0.221-0.042
		c-0.317-0.126-0.474-0.487-0.345-0.804L162.185,96.267z M155.938,100.604l0.354,0.131c0.767-1.413,2.209-2.405,3.932-2.405
		c0.482,0,0.924,0.136,1.359,0.273c0.11-0.019,0.226-0.046,0.326-0.002c0.061,0.023,0.078,0.081,0.124,0.117
		c1.153,0.503,2.017,1.479,2.431,2.676c0.064-0.046,0.11-0.117,0.192-0.136l0.8-0.172c0.33-0.081,0.67,0.138,0.734,0.471
		c0.074,0.333-0.128,0.659-0.473,0.728l-0.795,0.179c-0.046,0.007-0.092,0.016-0.129,0.016c-0.046,0-0.078-0.032-0.119-0.042
		c0.014,0.143,0.083,0.264,0.083,0.411c0,2.06-1.415,3.73-3.299,4.274l0.037,0.25c0.046,0.335-0.192,0.65-0.523,0.696
		c-0.032,0.009-0.064,0.009-0.092,0.009c-0.304,0-0.561-0.223-0.611-0.528l-0.022-0.181c-0.01,0-0.019,0.004-0.023,0.004
		c-2.503,0-4.529-2.025-4.529-4.524c0-0.337,0.124-0.634,0.193-0.951l-0.381-0.14c-0.317-0.124-0.479-0.473-0.358-0.792
		C155.258,100.647,155.625,100.484,155.938,100.604z M161.496,111.738c0.331-0.05,0.644,0.184,0.698,0.524l0.11,0.813
		c0.055,0.335-0.188,0.645-0.515,0.696c-0.037,0.007-0.064,0.007-0.087,0.007c-0.308,0-0.569-0.218-0.611-0.528l-0.119-0.813
		C160.926,112.094,161.156,111.784,161.496,111.738z M160.678,110.401l-0.11-0.813c-0.064-0.345,0.179-0.655,0.523-0.705
		c0.321-0.046,0.639,0.193,0.698,0.53l0.11,0.811c0.046,0.338-0.188,0.652-0.533,0.696c-0.018,0.007-0.05,0.007-0.073,0.007
		C160.986,110.927,160.724,110.707,160.678,110.401z M161.9,114.583c0.326-0.048,0.652,0.193,0.698,0.528l0.11,0.813
		c0.06,0.335-0.184,0.646-0.515,0.696c-0.037,0-0.055,0.007-0.087,0.007c-0.308,0-0.565-0.22-0.611-0.533l-0.129-0.813
		C161.334,114.944,161.56,114.632,161.9,114.583z M162.304,117.436c0.335-0.055,0.647,0.182,0.698,0.521l0.119,0.817
		c0.042,0.338-0.184,0.646-0.523,0.694c-0.027,0.007-0.064,0.009-0.087,0.009c-0.309,0-0.574-0.221-0.611-0.533l-0.11-0.813
		C161.73,117.794,161.973,117.484,162.304,117.436z M162.708,120.289c0.349-0.055,0.652,0.179,0.703,0.521l0.114,0.811
		c0.056,0.34-0.188,0.647-0.523,0.701c-0.027,0.002-0.056,0.007-0.083,0.007c-0.312,0-0.569-0.225-0.615-0.531l-0.11-0.815
		C162.139,120.642,162.374,120.334,162.708,120.289z M155.221,128.554c-0.01,0.338-0.289,0.6-0.615,0.6h-0.023l-0.813-0.011
		c-0.349-0.009-0.625-0.296-0.611-0.634c0.004-0.337,0.29-0.595,0.629-0.602l0.827,0.021
		C154.955,127.937,155.221,128.219,155.221,128.554z M153.246,99.595l0.772,0.289c0.312,0.124,0.468,0.474,0.357,0.792
		c-0.096,0.253-0.33,0.402-0.578,0.402c-0.074,0-0.147-0.011-0.221-0.041l-0.758-0.287c-0.326-0.113-0.482-0.466-0.368-0.79
		C152.562,99.641,152.915,99.49,153.246,99.595z M152.346,128.485c-0.009,0.338-0.285,0.606-0.634,0.606h-0.005l-0.827-0.019
		c-0.335-0.009-0.606-0.292-0.602-0.636c0.009-0.335,0.303-0.579,0.634-0.604l0.827,0.025
		C152.079,127.865,152.346,128.148,152.346,128.485z M150.545,98.601l0.772,0.283c0.312,0.117,0.473,0.475,0.358,0.788
		c-0.092,0.252-0.331,0.407-0.579,0.407c-0.064,0-0.147-0.012-0.216-0.035l-0.758-0.287c-0.331-0.117-0.482-0.476-0.372-0.79
		C149.875,98.64,150.228,98.483,150.545,98.601z M149.461,128.428c-0.014,0.331-0.28,0.597-0.616,0.597h-0.014l-0.813-0.019
		c-0.358-0.007-0.62-0.29-0.62-0.631c0.014-0.338,0.299-0.597,0.639-0.597l0.817,0.014
		C149.194,127.801,149.461,128.081,149.461,128.428z M147.844,97.595l0.762,0.29c0.331,0.119,0.496,0.471,0.372,0.792
		c-0.096,0.25-0.331,0.4-0.579,0.4c-0.074,0-0.147-0.007-0.216-0.042l-0.772-0.285c-0.317-0.117-0.473-0.476-0.358-0.788
		C147.173,97.638,147.532,97.475,147.844,97.595z M146.585,128.354c-0.014,0.335-0.29,0.604-0.616,0.604h-0.018l-0.832-0.018
		c-0.331-0.007-0.602-0.29-0.597-0.632c0.014-0.337,0.299-0.592,0.629-0.599l0.827,0.016
		C146.319,127.734,146.595,128.015,146.585,128.354z M145.152,96.591l0.758,0.287c0.326,0.122,0.492,0.476,0.372,0.795
		c-0.092,0.248-0.331,0.404-0.583,0.404c-0.064,0-0.133-0.019-0.216-0.044l-0.758-0.287c-0.335-0.115-0.492-0.471-0.372-0.79
		C144.468,96.639,144.831,96.469,145.152,96.591z M142.451,95.59l0.772,0.285c0.317,0.122,0.473,0.476,0.358,0.794
		c-0.092,0.255-0.34,0.404-0.579,0.404c-0.064,0-0.138-0.018-0.211-0.041l-0.772-0.285c-0.331-0.119-0.487-0.475-0.363-0.792
		C141.771,95.636,142.125,95.473,142.451,95.59z M142.277,127.643l0.813,0.016c0.354,0.007,0.629,0.29,0.62,0.632
		c-0.014,0.337-0.29,0.602-0.625,0.602h-0.009l-0.827-0.021c-0.34-0.007-0.606-0.29-0.597-0.627
		C141.657,127.9,141.932,127.659,142.277,127.643z M139.755,94.593l0.758,0.285c0.331,0.117,0.492,0.471,0.368,0.792
		c-0.083,0.241-0.326,0.397-0.569,0.397c-0.074,0-0.143-0.011-0.221-0.037l-0.771-0.287c-0.312-0.115-0.482-0.471-0.358-0.795
		C139.071,94.634,139.429,94.474,139.755,94.593z M139.411,127.574l0.808,0.021c0.349,0.005,0.625,0.29,0.616,0.629
		c-0.014,0.335-0.29,0.606-0.625,0.606h-0.019l-0.813-0.023c-0.345-0.009-0.611-0.29-0.602-0.629
		C138.781,127.833,139.052,127.574,139.411,127.574z M137.059,93.587l0.772,0.285c0.312,0.122,0.468,0.473,0.358,0.795
		c-0.092,0.25-0.331,0.404-0.579,0.404c-0.069,0-0.147-0.019-0.229-0.042l-0.767-0.285c-0.308-0.117-0.464-0.471-0.354-0.799
		C136.374,93.628,136.728,93.467,137.059,93.587z M136.526,127.514l0.827,0.009c0.34,0.009,0.606,0.294,0.593,0.634
		c-0.009,0.34-0.276,0.604-0.62,0.604h-0.009l-0.818-0.019c-0.344-0.007-0.606-0.292-0.606-0.631
		C135.901,127.769,136.204,127.516,136.526,127.514z M135.965,92.163c0,2.497-2.03,4.515-4.529,4.515c-2.49,0-4.52-2.019-4.52-4.515
		c0-0.914,0.34-1.716,0.804-2.428c-0.151-0.205-0.197-0.471-0.05-0.691c0.165-0.246,0.468-0.294,0.726-0.188
		c0.809-0.742,1.865-1.22,3.041-1.22C133.935,87.636,135.965,89.66,135.965,92.163z M135.065,128.093
		c-0.004,0.337-0.271,0.602-0.606,0.602h-0.019l-0.813-0.018c-0.354-0.007-0.62-0.29-0.611-0.632
		c0.009-0.335,0.303-0.613,0.634-0.602l0.822,0.021C134.817,127.466,135.07,127.755,135.065,128.093z M129.02,119.131
		c0,0-0.037,0-0.055-0.004c-0.349-0.035-0.597-0.333-0.56-0.671l0.083-0.822c0.023-0.335,0.331-0.585,0.662-0.553
		c0.34,0.03,0.588,0.329,0.56,0.67l-0.073,0.815C129.608,118.89,129.333,119.131,129.02,119.131z M129.447,120.612l-0.078,0.818
		c-0.027,0.326-0.294,0.562-0.606,0.562c-0.028,0-0.042,0-0.074,0c-0.331-0.032-0.588-0.333-0.561-0.67l0.092-0.822
		c0.019-0.333,0.331-0.586,0.652-0.556C129.222,119.974,129.47,120.272,129.447,120.612z M129.287,116.262l-0.064-0.002
		c-0.349-0.03-0.597-0.331-0.565-0.671l0.087-0.815c0.019-0.347,0.331-0.597,0.67-0.562c0.34,0.027,0.588,0.331,0.551,0.668
		l-0.073,0.817C129.875,116.021,129.599,116.262,129.287,116.262z M129.535,113.392c0,0-0.027,0-0.046,0
		c-0.34-0.032-0.597-0.329-0.565-0.668l0.087-0.817c0.027-0.34,0.331-0.593,0.661-0.561c0.349,0.032,0.588,0.328,0.561,0.673
		l-0.074,0.817C130.132,113.157,129.856,113.392,129.535,113.392z M129.81,110.525h-0.055c-0.34-0.032-0.593-0.324-0.57-0.671
		l0.083-0.82c0.032-0.335,0.331-0.586,0.671-0.554c0.34,0.03,0.588,0.326,0.556,0.668l-0.069,0.82
		C130.398,110.291,130.123,110.525,129.81,110.525z M130.067,107.664l-0.046-0.002c-0.349-0.03-0.592-0.335-0.561-0.673l0.074-0.822
		c0.027-0.335,0.331-0.579,0.662-0.554c0.349,0.025,0.597,0.331,0.56,0.673l-0.069,0.817
		C130.655,107.422,130.38,107.664,130.067,107.664z M130.334,104.802l-0.037-0.004c-0.358-0.035-0.606-0.331-0.57-0.673l0.064-0.818
		c0.037-0.34,0.331-0.585,0.684-0.558c0.335,0.035,0.583,0.333,0.542,0.67l-0.069,0.818
		C130.922,104.558,130.646,104.802,130.334,104.802z M130.591,101.933c0,0-0.037,0-0.046-0.009
		c-0.349-0.027-0.588-0.328-0.561-0.666l0.073-0.822c0.037-0.337,0.34-0.585,0.671-0.553c0.34,0.034,0.592,0.326,0.561,0.668
		l-0.078,0.822C131.179,101.692,130.913,101.933,130.591,101.933z M130.862,99.069c0,0-0.037,0-0.051-0.007
		c-0.335-0.03-0.602-0.335-0.574-0.673l0.087-0.817c0.032-0.338,0.321-0.583,0.675-0.558c0.335,0.035,0.583,0.331,0.556,0.673
		l-0.083,0.822C131.445,98.823,131.179,99.069,130.862,99.069z M126.489,88.84c-0.124,0-0.248-0.035-0.354-0.115l-0.68-0.461
		c-0.275-0.195-0.344-0.586-0.147-0.861c0.193-0.278,0.579-0.345,0.85-0.156l0.68,0.469c0.28,0.197,0.354,0.583,0.151,0.861
		C126.875,88.746,126.691,88.84,126.489,88.84z M126.903,91.506c-0.042,0.312-0.308,0.533-0.616,0.533c0,0-0.046,0-0.078-0.009
		l-0.813-0.115c-0.345-0.053-0.574-0.365-0.528-0.703c0.055-0.333,0.358-0.567,0.698-0.514l0.817,0.11
		C126.724,90.863,126.953,91.171,126.903,91.506z M129.728,72.841c-0.019,0.004-0.055,0.004-0.064,0.004
		c-0.312,0-0.588-0.239-0.62-0.558l-0.069-0.82c-0.037-0.335,0.202-0.636,0.551-0.668c0.331-0.041,0.634,0.216,0.671,0.554
		l0.083,0.82C130.306,72.508,130.058,72.809,129.728,72.841z M130.481,74.216l0.073,0.82c0.028,0.337-0.211,0.641-0.551,0.673
		c-0.019,0.002-0.046,0.002-0.064,0.002c-0.312,0-0.588-0.236-0.616-0.556l-0.073-0.817c-0.028-0.338,0.211-0.641,0.551-0.675
		C130.132,73.628,130.444,73.876,130.481,74.216z M129.447,69.975c-0.023,0.011-0.05,0.011-0.069,0.011
		c-0.303,0-0.569-0.241-0.615-0.565l-0.074-0.811c-0.032-0.345,0.216-0.646,0.561-0.68c0.321-0.032,0.634,0.216,0.67,0.554
		l0.083,0.822C130.031,69.644,129.783,69.952,129.447,69.975z M129.172,67.117h-0.064c-0.317,0-0.588-0.239-0.62-0.56l-0.083-0.813
		c-0.023-0.347,0.22-0.645,0.565-0.675c0.331-0.039,0.638,0.213,0.67,0.556l0.087,0.813
		C129.755,66.782,129.502,67.081,129.172,67.117z M128.873,64.251l-0.046,0.004c-0.317,0-0.588-0.239-0.606-0.558l-0.092-0.822
		c-0.027-0.342,0.221-0.646,0.561-0.668c0.331-0.035,0.643,0.211,0.67,0.553l0.087,0.813
		C129.47,63.916,129.222,64.216,128.873,64.251z M128.607,61.382h-0.055c-0.312,0-0.588-0.234-0.616-0.549l-0.078-0.817
		c-0.041-0.34,0.207-0.644,0.547-0.675c0.34-0.042,0.638,0.218,0.67,0.553l0.087,0.82C129.19,61.049,128.947,61.35,128.607,61.382z
		 M128.331,58.519c-0.027,0.009-0.046,0.009-0.064,0.009c-0.303,0-0.579-0.244-0.616-0.563l-0.074-0.817
		c-0.041-0.34,0.211-0.641,0.551-0.675c0.34-0.037,0.634,0.218,0.68,0.553l0.064,0.82C128.915,58.181,128.667,58.489,128.331,58.519
		z M128.046,55.657c-0.019,0.002-0.032,0.002-0.055,0.002c-0.312,0-0.579-0.241-0.616-0.556l-0.083-0.817
		c-0.027-0.345,0.23-0.646,0.561-0.68c0.34-0.035,0.634,0.218,0.666,0.556l0.087,0.822
		C128.644,55.324,128.391,55.625,128.046,55.657z M127.78,52.795c-0.032,0-0.05,0-0.073,0c-0.303,0-0.57-0.239-0.611-0.553
		l-0.083-0.825c-0.023-0.337,0.211-0.636,0.565-0.673c0.331-0.03,0.643,0.213,0.662,0.558l0.092,0.817
		C128.359,52.453,128.111,52.756,127.78,52.795z M127.491,49.929h-0.06c-0.312,0-0.579-0.234-0.62-0.556l-0.069-0.82
		c-0.027-0.338,0.211-0.639,0.551-0.673c0.326-0.041,0.643,0.216,0.671,0.554l0.083,0.813
		C128.083,49.593,127.826,49.894,127.491,49.929z M127.22,47.06h-0.064c-0.317,0-0.583-0.234-0.616-0.554l-0.073-0.822
		c-0.037-0.335,0.216-0.636,0.546-0.671c0.34-0.034,0.639,0.214,0.685,0.554l0.074,0.824C127.798,46.729,127.56,47.03,127.22,47.06z
		 M126.944,44.196l-0.064,0.007c-0.317,0-0.592-0.246-0.625-0.561l-0.073-0.817c-0.037-0.34,0.22-0.643,0.551-0.675
		c0.331-0.035,0.643,0.216,0.689,0.553l0.069,0.82C127.523,43.858,127.284,44.159,126.944,44.196z M126.659,41.332
		c-0.028,0.005-0.046,0.005-0.064,0.005c-0.308,0-0.579-0.241-0.606-0.554l-0.083-0.822c-0.027-0.344,0.211-0.646,0.551-0.675
		c0.34-0.037,0.639,0.214,0.68,0.549l0.078,0.822C127.247,40.995,126.999,41.302,126.659,41.332z M126.383,38.468h-0.069
		c-0.317,0-0.574-0.234-0.611-0.556l-0.069-0.817c-0.042-0.335,0.207-0.643,0.542-0.675c0.335-0.035,0.634,0.216,0.685,0.556
		l0.083,0.815C126.967,38.133,126.724,38.436,126.383,38.468z M131.67,86.495c0.032,0.34-0.225,0.643-0.556,0.675h-0.055
		c-0.326,0-0.583-0.239-0.615-0.556l-0.078-0.818c-0.042-0.34,0.216-0.643,0.546-0.675c0.34-0.034,0.652,0.218,0.68,0.558
		L131.67,86.495z M131.39,83.628c0.028,0.342-0.211,0.639-0.56,0.673c-0.009,0.007-0.032,0.007-0.055,0.007
		c-0.312,0-0.579-0.234-0.616-0.556l-0.069-0.825c-0.041-0.337,0.207-0.638,0.547-0.673c0.331-0.034,0.638,0.218,0.68,0.551
		L131.39,83.628z M131.115,80.764c0.027,0.342-0.221,0.641-0.561,0.675h-0.06c-0.308,0-0.583-0.234-0.611-0.556l-0.083-0.817
		c-0.028-0.342,0.225-0.641,0.565-0.678c0.326-0.032,0.638,0.218,0.666,0.556L131.115,80.764z M130.83,77.896
		c0.037,0.344-0.211,0.645-0.551,0.68h-0.06c-0.317,0-0.583-0.237-0.611-0.562l-0.083-0.811c-0.027-0.342,0.221-0.643,0.565-0.673
		c0.335-0.042,0.629,0.209,0.666,0.553L130.83,77.896z M126.094,25.138c2.494,0,4.524,2.023,4.524,4.52
		c0,2.336-1.792,4.187-4.061,4.431c0,0.009,0.014,0.014,0.014,0.023l0.087,0.817c0.037,0.34-0.216,0.639-0.565,0.673h-0.055
		c-0.308,0-0.583-0.234-0.611-0.554l-0.083-0.822c-0.004-0.069,0.042-0.12,0.06-0.184c-2.15-0.345-3.835-2.129-3.835-4.385
		C121.57,27.162,123.609,25.138,126.094,25.138z M123.352,130.403l-0.772,0.29c-0.069,0.03-0.147,0.041-0.229,0.041
		c-0.234,0-0.469-0.149-0.565-0.393c-0.124-0.329,0.041-0.685,0.354-0.797l0.772-0.294c0.317-0.117,0.67,0.041,0.785,0.36
		C123.825,129.933,123.664,130.282,123.352,130.403z M123.793,131.046c0.239-0.228,0.634-0.209,0.863,0.043
		c0.23,0.257,0.211,0.648-0.041,0.873l-0.62,0.549c-0.106,0.11-0.257,0.158-0.404,0.158c-0.17,0-0.34-0.066-0.469-0.2
		c-0.216-0.25-0.193-0.647,0.055-0.873L123.793,131.046z M99.719,177.041l0.409-0.717c0.17-0.294,0.547-0.399,0.845-0.229
		c0.29,0.17,0.404,0.537,0.225,0.841l-0.399,0.712c-0.106,0.202-0.322,0.321-0.542,0.321c-0.097,0-0.193-0.027-0.294-0.087
		C99.654,177.72,99.558,177.343,99.719,177.041z M99.645,153.697c-0.234-0.257-0.207-0.646,0.042-0.873l0.611-0.551
		c0.248-0.227,0.643-0.207,0.868,0.046c0.23,0.253,0.211,0.639-0.046,0.873l-0.606,0.542c-0.128,0.115-0.271,0.167-0.422,0.167
		C99.935,153.901,99.76,153.83,99.645,153.697z M101.138,174.537l0.404-0.721c0.165-0.294,0.551-0.396,0.845-0.226
		c0.303,0.161,0.399,0.538,0.229,0.841l-0.404,0.707c-0.12,0.202-0.321,0.317-0.533,0.317c-0.11,0-0.211-0.027-0.303-0.078
		C101.083,175.208,100.973,174.831,101.138,174.537z M107.183,136.501l-0.758,0.294c-0.069,0.023-0.152,0.042-0.216,0.042
		c-0.257,0-0.487-0.156-0.588-0.402c-0.119-0.319,0.042-0.675,0.368-0.797l0.771-0.283c0.317-0.12,0.671,0.042,0.799,0.349
		C107.67,136.028,107.514,136.384,107.183,136.501z M107.569,146.531c0.229,0.252,0.211,0.639-0.037,0.866l-0.616,0.554
		c-0.119,0.108-0.266,0.161-0.418,0.161c-0.161,0-0.335-0.066-0.45-0.202c-0.234-0.25-0.216-0.643,0.042-0.873l0.611-0.551
		C106.949,146.257,107.344,146.276,107.569,146.531z M106.356,89.173c-0.037,0-0.06-0.002-0.092-0.009l-0.813-0.12
		c-0.344-0.046-0.579-0.36-0.528-0.693c0.055-0.335,0.368-0.572,0.698-0.521l0.822,0.12c0.326,0.041,0.57,0.356,0.515,0.693
		C106.917,88.952,106.65,89.173,106.356,89.173z M105.428,148.462c0.234,0.246,0.216,0.636-0.037,0.861l-0.616,0.553
		c-0.115,0.113-0.257,0.161-0.404,0.161c-0.17,0-0.34-0.067-0.469-0.2c-0.216-0.252-0.198-0.647,0.05-0.875l0.611-0.549
		C104.813,148.185,105.208,148.208,105.428,148.462z M104.5,137.519l-0.771,0.296c-0.074,0.016-0.152,0.034-0.221,0.034
		c-0.248,0-0.482-0.149-0.57-0.395c-0.128-0.324,0.037-0.677,0.358-0.799l0.763-0.287c0.321-0.119,0.675,0.042,0.804,0.361
		C104.978,137.045,104.813,137.397,104.5,137.519z M103.297,150.392c0.239,0.244,0.211,0.639-0.037,0.868l-0.611,0.546
		c-0.124,0.108-0.262,0.159-0.418,0.159c-0.166,0-0.331-0.067-0.45-0.2c-0.239-0.253-0.211-0.643,0.046-0.873l0.606-0.549
		C102.69,150.111,103.077,150.137,103.297,150.392z M102.553,172.024l0.404-0.716c0.166-0.294,0.547-0.4,0.836-0.23
		c0.303,0.17,0.409,0.542,0.239,0.841l-0.404,0.722c-0.11,0.197-0.326,0.308-0.533,0.308c-0.11,0-0.211-0.032-0.294-0.078
		C102.489,172.705,102.388,172.323,102.553,172.024z M103.963,169.526l0.409-0.717c0.174-0.299,0.542-0.404,0.845-0.239
		c0.299,0.166,0.395,0.542,0.234,0.836l-0.409,0.726c-0.11,0.198-0.317,0.312-0.533,0.312c-0.11,0-0.211-0.027-0.308-0.082
		C103.903,170.196,103.793,169.824,103.963,169.526z M105.387,167.017l0.395-0.719c0.17-0.298,0.556-0.404,0.845-0.228
		c0.298,0.161,0.399,0.54,0.234,0.837l-0.409,0.716c-0.115,0.202-0.317,0.312-0.528,0.312c-0.11,0-0.211-0.027-0.312-0.083
		C105.323,167.688,105.217,167.311,105.387,167.017z M106.797,164.509l0.395-0.719c0.17-0.292,0.556-0.393,0.845-0.234
		c0.298,0.168,0.404,0.545,0.234,0.846l-0.395,0.709c-0.105,0.207-0.326,0.319-0.546,0.319c-0.097,0-0.202-0.029-0.303-0.08
		C106.733,165.185,106.636,164.806,106.797,164.509z M109.884,135.488l-0.771,0.294c-0.069,0.023-0.147,0.037-0.221,0.037
		c-0.239,0-0.482-0.156-0.569-0.397c-0.124-0.321,0.037-0.675,0.367-0.799l0.758-0.285c0.317-0.124,0.675,0.039,0.79,0.352
		C110.366,135.01,110.196,135.371,109.884,135.488z M110.366,143.178l0.602-0.558c0.257-0.223,0.643-0.2,0.873,0.048
		c0.225,0.253,0.207,0.646-0.051,0.873l-0.602,0.546c-0.12,0.108-0.267,0.163-0.414,0.163c-0.17,0-0.331-0.066-0.459-0.2
		C110.091,143.793,110.109,143.407,110.366,143.178z M108.841,144.556c0.252-0.225,0.638-0.209,0.859,0.042
		c0.239,0.25,0.216,0.645-0.037,0.87l-0.611,0.554c-0.12,0.11-0.267,0.161-0.418,0.161c-0.166,0-0.331-0.073-0.459-0.205
		c-0.225-0.248-0.202-0.641,0.046-0.868L108.841,144.556z M108.212,162.006l0.414-0.722c0.161-0.301,0.533-0.402,0.831-0.234
		c0.299,0.167,0.4,0.546,0.239,0.84l-0.409,0.719c-0.11,0.2-0.321,0.311-0.533,0.311c-0.101,0-0.211-0.023-0.303-0.076
		C108.152,162.679,108.056,162.3,108.212,162.006z M109.631,159.498l0.399-0.717c0.166-0.294,0.551-0.404,0.841-0.239
		c0.298,0.17,0.409,0.547,0.234,0.848l-0.404,0.709c-0.12,0.2-0.322,0.319-0.538,0.319c-0.105,0-0.202-0.027-0.29-0.081
		C109.562,160.171,109.471,159.794,109.631,159.498z M111.042,156.985l0.414-0.712c0.156-0.301,0.533-0.393,0.827-0.232
		c0.298,0.166,0.404,0.54,0.239,0.836l-0.399,0.719c-0.115,0.198-0.331,0.312-0.547,0.312c-0.092,0-0.202-0.025-0.294-0.083
		C110.977,157.658,110.872,157.289,111.042,156.985z M112.461,154.479l0.39-0.712c0.179-0.294,0.551-0.406,0.845-0.234
		c0.308,0.167,0.404,0.544,0.239,0.838l-0.404,0.717c-0.11,0.205-0.331,0.312-0.533,0.312c-0.106,0-0.211-0.025-0.312-0.078
		C112.392,155.16,112.291,154.781,112.461,154.479z M113.871,151.974l0.409-0.714c0.161-0.296,0.538-0.402,0.841-0.234
		c0.294,0.167,0.395,0.547,0.239,0.848l-0.418,0.708c-0.106,0.202-0.326,0.317-0.533,0.317c-0.097,0-0.207-0.028-0.308-0.085
		C113.807,152.651,113.706,152.272,113.871,151.974z M115.295,149.468l0.386-0.717c0.179-0.296,0.556-0.402,0.854-0.229
		c0.303,0.168,0.395,0.542,0.23,0.836l-0.4,0.717c-0.12,0.197-0.321,0.317-0.533,0.317c-0.11,0-0.216-0.028-0.308-0.083
		C115.231,150.141,115.121,149.769,115.295,149.468z M117.968,132.438l-0.771,0.29c-0.074,0.025-0.147,0.039-0.221,0.039
		c-0.248,0-0.482-0.154-0.579-0.4c-0.12-0.317,0.037-0.673,0.363-0.79l0.758-0.294c0.331-0.122,0.675,0.042,0.809,0.361
		C118.451,131.963,118.281,132.319,117.968,132.438z M118.212,137.75l-0.62,0.554c-0.12,0.103-0.267,0.158-0.404,0.158
		c-0.17,0-0.331-0.066-0.469-0.207c-0.225-0.253-0.193-0.641,0.055-0.871l0.606-0.549c0.248-0.228,0.643-0.209,0.864,0.041
		C118.469,137.13,118.46,137.519,118.212,137.75z M116.701,146.962l0.404-0.714c0.17-0.292,0.542-0.402,0.84-0.234
		c0.299,0.167,0.409,0.546,0.234,0.84l-0.414,0.71c-0.11,0.211-0.312,0.319-0.533,0.319c-0.101,0-0.197-0.025-0.294-0.085
		C116.636,147.643,116.535,147.259,116.701,146.962z M118.125,144.455l0.404-0.712c0.166-0.301,0.533-0.407,0.841-0.237
		c0.289,0.168,0.39,0.544,0.216,0.841l-0.391,0.716c-0.124,0.198-0.326,0.312-0.538,0.312c-0.11,0-0.207-0.023-0.303-0.08
		C118.042,145.127,117.95,144.758,118.125,144.455z M119.443,130.56l0.776-0.294c0.312-0.117,0.68,0.041,0.794,0.36
		c0.124,0.319-0.032,0.673-0.363,0.795l-0.767,0.289c-0.069,0.028-0.142,0.044-0.207,0.044c-0.257,0-0.487-0.156-0.579-0.4
		C118.974,131.035,119.144,130.677,119.443,130.56z M119.172,90.392c0.046-0.335,0.368-0.569,0.698-0.517l0.813,0.115
		c0.331,0.051,0.574,0.361,0.523,0.696c-0.041,0.31-0.308,0.526-0.611,0.526c0,0-0.064,0-0.092-0.002l-0.813-0.113
		C119.355,91.047,119.122,90.737,119.172,90.392z M119.512,134.907c0.252-0.232,0.648-0.207,0.873,0.043
		c0.23,0.253,0.211,0.641-0.046,0.873l-0.606,0.549c-0.12,0.103-0.267,0.163-0.423,0.163c-0.147,0-0.326-0.074-0.45-0.207
		c-0.216-0.255-0.211-0.641,0.046-0.87L119.512,134.907z M119.54,141.947l0.395-0.708c0.17-0.306,0.551-0.409,0.845-0.241
		c0.289,0.172,0.404,0.544,0.229,0.843l-0.404,0.712c-0.115,0.202-0.321,0.319-0.542,0.319c-0.101,0-0.202-0.025-0.299-0.085
		C119.466,142.62,119.37,142.248,119.54,141.947z M121.037,133.527l0.611-0.549c0.252-0.232,0.638-0.211,0.873,0.041
		c0.225,0.255,0.216,0.641-0.051,0.875l-0.602,0.549c-0.115,0.105-0.257,0.161-0.414,0.161c-0.17,0-0.335-0.066-0.455-0.205
		C120.761,134.147,120.789,133.756,121.037,133.527z M123.361,91.625l-0.817-0.124c-0.34-0.043-0.579-0.358-0.515-0.698
		c0.046-0.333,0.358-0.572,0.698-0.519l0.799,0.117c0.34,0.051,0.579,0.361,0.524,0.701c-0.046,0.303-0.303,0.528-0.597,0.528
		L123.361,91.625z M123.774,87.089l-0.685-0.468c-0.28-0.193-0.354-0.579-0.151-0.861c0.184-0.278,0.57-0.345,0.854-0.152
		l0.675,0.469c0.289,0.193,0.354,0.579,0.161,0.854c-0.128,0.177-0.312,0.271-0.505,0.271
		C123.995,87.202,123.875,87.161,123.774,87.089z M120.563,84.122c0.198-0.28,0.593-0.349,0.868-0.156l0.671,0.469
		c0.285,0.195,0.354,0.579,0.161,0.859c-0.124,0.177-0.308,0.262-0.51,0.262c-0.12,0-0.239-0.032-0.354-0.105l-0.667-0.471
		C120.449,84.786,120.375,84.405,120.563,84.122z M118.212,82.482c0.188-0.278,0.574-0.345,0.85-0.152l0.68,0.469
		c0.28,0.193,0.34,0.579,0.156,0.856c-0.124,0.17-0.312,0.262-0.51,0.262c-0.124,0-0.244-0.03-0.354-0.113l-0.68-0.466
		C118.079,83.153,118.01,82.767,118.212,82.482z M118.354,90.28c-0.046,0.305-0.312,0.528-0.606,0.528l-0.06-0.005l-0.84-0.117
		c-0.345-0.05-0.579-0.36-0.528-0.696c0.055-0.342,0.363-0.579,0.703-0.528l0.818,0.12C118.17,89.63,118.4,89.942,118.354,90.28z
		 M115.842,80.845c0.197-0.28,0.574-0.352,0.859-0.158l0.67,0.475c0.285,0.188,0.349,0.572,0.161,0.854
		c-0.124,0.17-0.317,0.264-0.51,0.264c-0.119,0-0.239-0.035-0.349-0.108l-0.684-0.471C115.722,81.508,115.644,81.125,115.842,80.845
		z M116.113,138.809c0.229,0.248,0.207,0.643-0.037,0.871l-0.611,0.551c-0.124,0.105-0.266,0.158-0.413,0.158
		c-0.17,0-0.345-0.066-0.455-0.2c-0.239-0.255-0.22-0.645,0.037-0.873l0.616-0.554C115.488,138.538,115.892,138.557,116.113,138.809
		z M115.272,133.46l-0.767,0.283c-0.073,0.03-0.147,0.043-0.216,0.043c-0.257,0-0.492-0.156-0.583-0.404
		c-0.11-0.312,0.042-0.668,0.363-0.795l0.767-0.285c0.312-0.124,0.671,0.037,0.79,0.36
		C115.754,132.98,115.594,133.334,115.272,133.46z M115.506,89.869c-0.042,0.308-0.308,0.533-0.616,0.533c0,0-0.046,0-0.078-0.009
		l-0.822-0.115c-0.331-0.053-0.561-0.36-0.524-0.696c0.055-0.34,0.368-0.574,0.698-0.531l0.827,0.122
		C115.318,89.219,115.562,89.531,115.506,89.869z M113.48,79.205c0.188-0.283,0.574-0.349,0.85-0.156l0.67,0.475
		c0.294,0.187,0.358,0.567,0.166,0.854c-0.115,0.17-0.322,0.267-0.51,0.267c-0.12,0-0.244-0.042-0.345-0.113l-0.68-0.475
		C113.352,79.871,113.274,79.49,113.48,79.205z M113.981,140.738c0.229,0.255,0.202,0.648-0.046,0.871l-0.616,0.549
		c-0.12,0.11-0.257,0.166-0.414,0.166c-0.156,0-0.331-0.071-0.445-0.207c-0.234-0.25-0.216-0.646,0.042-0.871l0.602-0.554
		C113.352,140.465,113.756,140.483,113.981,140.738z M112.58,134.473l-0.771,0.287c-0.069,0.032-0.147,0.041-0.216,0.041
		c-0.257,0-0.487-0.151-0.583-0.395c-0.119-0.319,0.042-0.68,0.363-0.797l0.763-0.294c0.326-0.115,0.68,0.042,0.809,0.361
		C113.053,133.995,112.897,134.351,112.58,134.473z M111.106,77.57c0.202-0.283,0.574-0.352,0.863-0.159l0.671,0.469
		c0.294,0.193,0.358,0.581,0.156,0.852c-0.11,0.174-0.312,0.271-0.505,0.271c-0.115,0-0.244-0.037-0.349-0.11l-0.675-0.469
		C110.986,78.231,110.913,77.845,111.106,77.57z M111.317,88.646l0.818,0.113c0.34,0.055,0.574,0.363,0.523,0.701
		c-0.046,0.305-0.303,0.53-0.611,0.53c0,0-0.06,0-0.078-0.007l-0.827-0.12c-0.331-0.043-0.561-0.358-0.519-0.693
		C110.674,88.833,110.986,88.592,111.317,88.646z M108.736,75.928c0.197-0.283,0.583-0.354,0.863-0.161l0.671,0.471
		c0.285,0.195,0.363,0.581,0.165,0.859c-0.128,0.172-0.312,0.271-0.505,0.271c-0.119,0-0.257-0.044-0.354-0.117l-0.675-0.469
		C108.625,76.594,108.552,76.203,108.736,75.928z M109.287,88.351c0.345,0.05,0.57,0.363,0.524,0.7
		c-0.046,0.308-0.312,0.531-0.606,0.531c0,0-0.055,0-0.092-0.007l-0.809-0.12c-0.349-0.05-0.579-0.36-0.533-0.696
		s0.363-0.57,0.703-0.528L109.287,88.351z M106.379,74.283c0.193-0.276,0.579-0.342,0.854-0.149l0.685,0.468
		c0.28,0.193,0.349,0.577,0.147,0.854c-0.12,0.168-0.294,0.269-0.505,0.269c-0.128,0-0.239-0.039-0.358-0.11l-0.67-0.469
		C106.255,74.952,106.186,74.568,106.379,74.283z M104.014,72.648c0.188-0.283,0.569-0.352,0.859-0.159l0.675,0.471
		c0.275,0.193,0.34,0.577,0.156,0.861c-0.12,0.168-0.317,0.262-0.505,0.262c-0.129,0-0.257-0.035-0.358-0.11l-0.675-0.469
		C103.885,73.314,103.816,72.928,104.014,72.648z M104.115,88.231c-0.042,0.312-0.312,0.528-0.611,0.528c-0.032,0-0.064,0-0.106,0
		l-0.799-0.12c-0.335-0.053-0.569-0.358-0.523-0.703c0.05-0.335,0.363-0.572,0.698-0.519l0.817,0.117
		C103.931,87.585,104.161,87.896,104.115,88.231z M101.644,71.008c0.193-0.278,0.579-0.354,0.854-0.154l0.685,0.462
		c0.28,0.193,0.354,0.583,0.151,0.866c-0.119,0.167-0.308,0.264-0.505,0.264c-0.12,0-0.234-0.032-0.349-0.11l-0.689-0.471
		C101.524,71.667,101.45,71.281,101.644,71.008z M102.167,137.744c0.11,0.314-0.042,0.673-0.358,0.79l-0.771,0.294
		c-0.078,0.03-0.143,0.037-0.216,0.037c-0.257,0-0.492-0.149-0.579-0.393c-0.124-0.324,0.032-0.68,0.363-0.797l0.772-0.292
		C101.689,137.264,102.047,137.422,102.167,137.744z M101.262,87.822c-0.042,0.308-0.312,0.528-0.611,0.528c0,0-0.055,0-0.087-0.007
		l-0.813-0.117c-0.34-0.044-0.57-0.361-0.524-0.696c0.046-0.34,0.368-0.574,0.698-0.521l0.818,0.115
		C101.083,87.17,101.303,87.484,101.262,87.822z M99.292,69.368c0.184-0.283,0.569-0.347,0.845-0.154l0.675,0.466
		c0.275,0.193,0.354,0.579,0.161,0.856c-0.128,0.174-0.321,0.264-0.515,0.264c-0.11,0-0.248-0.027-0.349-0.104l-0.67-0.471
		C99.154,70.03,99.089,69.648,99.292,69.368z M99.466,138.761c0.129,0.312-0.027,0.673-0.344,0.79l-0.781,0.294
		c-0.069,0.027-0.138,0.037-0.216,0.037c-0.248,0-0.487-0.154-0.574-0.397c-0.12-0.319,0.041-0.675,0.354-0.794l0.771-0.294
		C98.993,138.279,99.356,138.437,99.466,138.761z M89.499,158.774c0-2.501,2.03-4.524,4.524-4.524c2.503,0,4.52,2.023,4.52,4.524
		c0,2.495-2.017,4.525-4.52,4.525C91.529,163.299,89.499,161.269,89.499,158.774z M91.069,193.641
		c0.285,0.165,0.399,0.542,0.229,0.836l-0.404,0.717c-0.11,0.202-0.312,0.312-0.537,0.312c-0.097,0-0.207-0.023-0.299-0.074
		c-0.294-0.165-0.404-0.542-0.248-0.845l0.418-0.717C90.398,193.577,90.771,193.471,91.069,193.641z M84.446,143.768l0.767-0.287
		c0.317-0.113,0.675,0.041,0.795,0.358c0.124,0.319-0.037,0.675-0.354,0.797l-0.772,0.292c-0.078,0.023-0.151,0.039-0.216,0.039
		c-0.248,0-0.496-0.152-0.583-0.4C83.963,144.246,84.124,143.894,84.446,143.768z M83.568,85.893c0,0-0.06,0-0.106-0.002
		l-0.808-0.12c-0.34-0.048-0.57-0.363-0.524-0.7c0.055-0.335,0.368-0.57,0.698-0.519l0.813,0.117
		c0.345,0.048,0.574,0.36,0.524,0.693C84.124,85.675,83.867,85.893,83.568,85.893z M85.502,86.178
		c-0.331-0.046-0.569-0.36-0.523-0.696c0.055-0.335,0.367-0.57,0.707-0.524l0.809,0.117c0.34,0.051,0.579,0.365,0.524,0.701
		c-0.046,0.305-0.299,0.526-0.606,0.526c0,0-0.064,0-0.087-0.007L85.502,86.178z M87.137,142.755l0.772-0.292
		c0.321-0.122,0.67,0.048,0.799,0.358c0.11,0.326-0.051,0.677-0.368,0.799l-0.772,0.287c-0.069,0.028-0.142,0.046-0.211,0.046
		c-0.253,0-0.496-0.156-0.583-0.404C86.66,143.233,86.816,142.876,87.137,142.755z M88.359,86.589
		c-0.34-0.048-0.579-0.361-0.524-0.696c0.046-0.338,0.363-0.574,0.694-0.524l0.822,0.117c0.331,0.046,0.56,0.363,0.523,0.701
		c-0.055,0.308-0.312,0.526-0.616,0.526c0,0-0.06,0-0.083-0.009L88.359,86.589z M89.82,141.74l0.781-0.294
		c0.322-0.119,0.666,0.042,0.795,0.361c0.115,0.319-0.046,0.68-0.363,0.797l-0.772,0.289c-0.064,0.028-0.138,0.035-0.211,0.035
		c-0.248,0-0.487-0.147-0.569-0.393C89.352,142.22,89.517,141.857,89.82,141.74z M92.117,87.124c-0.042,0-0.064,0-0.106-0.009
		l-0.804-0.117c-0.34-0.048-0.574-0.36-0.528-0.703c0.051-0.331,0.372-0.565,0.703-0.519l0.813,0.117
		c0.335,0.048,0.574,0.36,0.519,0.703C92.677,86.903,92.411,87.124,92.117,87.124z M93.283,140.433
		c0.322-0.12,0.689,0.037,0.799,0.358c0.129,0.319-0.037,0.675-0.358,0.797l-0.762,0.285c-0.074,0.03-0.156,0.042-0.221,0.042
		c-0.248,0-0.482-0.149-0.588-0.402c-0.11-0.308,0.064-0.668,0.376-0.788L93.283,140.433z M94.854,140.502
		c-0.12-0.324,0.037-0.673,0.367-0.795l0.767-0.289c0.308-0.122,0.675,0.041,0.79,0.358c0.12,0.321-0.032,0.675-0.354,0.79
		l-0.772,0.294c-0.083,0.025-0.147,0.041-0.22,0.041C95.189,140.901,94.951,140.748,94.854,140.502z M98.373,155.669
		c-0.11,0.108-0.267,0.158-0.404,0.158c-0.175,0-0.349-0.066-0.469-0.2c-0.229-0.255-0.202-0.647,0.051-0.873l0.611-0.554
		c0.239-0.225,0.634-0.209,0.873,0.044c0.225,0.25,0.193,0.647-0.046,0.87L98.373,155.669z M96.921,67.73
		c0.184-0.282,0.569-0.354,0.854-0.161l0.661,0.471c0.29,0.195,0.358,0.579,0.17,0.864c-0.115,0.167-0.317,0.259-0.5,0.259
		c-0.128,0-0.248-0.037-0.368-0.11l-0.67-0.464C96.792,68.392,96.719,68.011,96.921,67.73z M97.078,86.596l0.808,0.117
		c0.349,0.05,0.583,0.36,0.524,0.696c-0.046,0.312-0.303,0.528-0.602,0.528c-0.032,0-0.069,0-0.069,0l-0.84-0.115
		c-0.331-0.053-0.565-0.368-0.515-0.703C96.425,86.782,96.747,86.547,97.078,86.596z M94.546,66.086
		c0.198-0.275,0.583-0.347,0.864-0.149l0.666,0.459c0.29,0.202,0.354,0.588,0.161,0.864c-0.119,0.177-0.308,0.269-0.505,0.269
		c-0.115,0-0.252-0.032-0.344-0.11l-0.68-0.471C94.427,66.757,94.358,66.371,94.546,66.086z M95.038,86.302
		c0.331,0.053,0.579,0.361,0.523,0.701c-0.037,0.305-0.294,0.533-0.606,0.533c0,0-0.064-0.004-0.092-0.007l-0.808-0.124
		c-0.345-0.044-0.57-0.358-0.524-0.691c0.037-0.34,0.363-0.579,0.698-0.523L95.038,86.302z M92.19,64.451
		c0.184-0.282,0.57-0.351,0.845-0.154l0.68,0.466c0.275,0.193,0.358,0.579,0.156,0.854c-0.119,0.174-0.303,0.269-0.51,0.269
		c-0.124,0-0.239-0.037-0.344-0.11l-0.671-0.466C92.057,65.117,91.988,64.729,92.19,64.451z M91.35,63.125
		c0.28,0.195,0.354,0.572,0.161,0.852c-0.128,0.172-0.312,0.264-0.515,0.264c-0.115,0-0.239-0.032-0.34-0.105l-0.685-0.469
		c-0.275-0.197-0.344-0.574-0.161-0.859c0.202-0.275,0.588-0.347,0.868-0.154L91.35,63.125z M85.594,55.154
		c2.609,0,4.722,2.113,4.722,4.731c0,2.604-2.113,4.727-4.722,4.727c-2.609,0-4.722-2.123-4.722-4.727
		C80.872,57.267,82.985,55.154,85.594,55.154z M71.446,82.912l0.808,0.12c0.326,0.043,0.561,0.363,0.515,0.694
		c-0.042,0.312-0.303,0.535-0.606,0.535c0,0-0.055-0.007-0.083-0.009l-0.818-0.117c-0.34-0.048-0.569-0.361-0.523-0.698
		C70.785,83.096,71.102,82.859,71.446,82.912z M70.978,148.857l0.781-0.296c0.308-0.115,0.662,0.043,0.781,0.363
		c0.128,0.319-0.037,0.668-0.358,0.795l-0.763,0.289c-0.078,0.025-0.147,0.037-0.22,0.037c-0.244,0-0.478-0.149-0.588-0.397
		C70.5,149.324,70.656,148.972,70.978,148.857z M65.64,78.176c2.503,0,4.529,2.031,4.529,4.527c0,2.497-2.025,4.522-4.529,4.522
		c-2.49,0-4.501-2.026-4.501-4.522C61.139,80.207,63.15,78.176,65.64,78.176z M69.843,149.941c0.128,0.314-0.042,0.675-0.354,0.79
		l-0.767,0.294c-0.069,0.025-0.142,0.035-0.216,0.035c-0.257,0-0.482-0.145-0.579-0.395c-0.129-0.319,0.037-0.675,0.363-0.795
		l0.771-0.29C69.37,149.459,69.728,149.618,69.843,149.941z M67.165,150.952c0.11,0.324-0.05,0.677-0.368,0.799l-0.771,0.285
		c-0.073,0.03-0.147,0.041-0.216,0.041c-0.253,0-0.482-0.154-0.574-0.397c-0.12-0.317,0.042-0.675,0.349-0.797l0.781-0.29
		C66.688,150.477,67.037,150.635,67.165,150.952z M64.464,151.974c0.119,0.317-0.046,0.675-0.363,0.79l-0.767,0.289
		c-0.073,0.03-0.147,0.044-0.22,0.044c-0.244,0-0.487-0.152-0.561-0.404c-0.128-0.312,0.032-0.668,0.354-0.788l0.768-0.292
		C63.986,151.496,64.345,151.657,64.464,151.974z M60.202,152.92l0.771-0.294c0.331-0.113,0.68,0.043,0.809,0.36
		c0.105,0.319-0.051,0.68-0.368,0.797l-0.771,0.29c-0.069,0.03-0.147,0.042-0.216,0.042c-0.248,0-0.482-0.154-0.569-0.404
		C59.733,153.398,59.889,153.038,60.202,152.92z M57.519,153.936l0.762-0.29c0.317-0.12,0.671,0.042,0.799,0.356
		c0.11,0.319-0.037,0.675-0.354,0.797l-0.781,0.29c-0.069,0.027-0.143,0.046-0.216,0.046c-0.243,0-0.482-0.154-0.574-0.402
		C57.037,154.413,57.197,154.06,57.519,153.936z M54.823,154.953l0.771-0.287c0.308-0.126,0.67,0.037,0.79,0.349
		c0.12,0.319-0.042,0.68-0.354,0.797l-0.767,0.294c-0.069,0.023-0.143,0.039-0.225,0.039c-0.248,0-0.482-0.149-0.579-0.4
		C54.34,155.426,54.497,155.075,54.823,154.953z M52.126,155.97l0.772-0.29c0.312-0.119,0.68,0.039,0.794,0.361
		c0.115,0.314-0.041,0.668-0.363,0.79l-0.771,0.29c-0.064,0.025-0.129,0.039-0.202,0.039c-0.248,0-0.492-0.154-0.588-0.4
		C51.648,156.446,51.809,156.083,52.126,155.97z M46.325,155.688c1.231,0,2.333,0.498,3.174,1.272l0.698-0.266
		c0.331-0.12,0.68,0.041,0.799,0.36c0.12,0.315-0.037,0.673-0.354,0.79l-0.358,0.138c0.446,0.721,0.776,1.525,0.776,2.437
		c0,2.607-2.127,4.731-4.736,4.731s-4.736-2.124-4.736-4.731C41.589,157.808,43.716,155.688,46.325,155.688z M73.38,249.483h-7.758
		v-3.486c-3.408,3.96-7.606,4.511-9.977,4.511c-10.298,0-16.16-8.544-16.16-17.735c0-10.854,7.451-17.501,16.233-17.501
		c2.453,0,6.725,0.635,9.903,4.745v-28.254h7.758V249.483z M74.873,148.701l-0.767,0.29c-0.069,0.025-0.143,0.041-0.211,0.041
		c-0.257,0-0.482-0.149-0.583-0.402c-0.11-0.319,0.046-0.673,0.368-0.788l0.771-0.294c0.303-0.122,0.671,0.041,0.781,0.36
		C75.351,148.228,75.194,148.577,74.873,148.701z M75.011,84.664c0,0-0.06,0-0.092-0.002l-0.813-0.12
		c-0.331-0.048-0.565-0.36-0.519-0.701c0.05-0.337,0.358-0.569,0.698-0.521l0.809,0.115c0.34,0.053,0.579,0.363,0.533,0.705
		C75.58,84.444,75.305,84.664,75.011,84.664z M77.574,147.684l-0.771,0.292c-0.074,0.025-0.152,0.041-0.211,0.041
		c-0.257,0-0.482-0.156-0.588-0.402c-0.11-0.317,0.046-0.675,0.358-0.797l0.771-0.287c0.308-0.124,0.675,0.037,0.799,0.365
		C78.042,147.208,77.886,147.564,77.574,147.684z M77.858,85.075c-0.032,0-0.05-0.004-0.083-0.009l-0.827-0.112
		c-0.331-0.051-0.561-0.36-0.515-0.701c0.046-0.337,0.354-0.572,0.689-0.523l0.822,0.12c0.335,0.043,0.574,0.358,0.524,0.693
		C78.428,84.857,78.162,85.075,77.858,85.075z M80.266,146.668l-0.763,0.294c-0.073,0.025-0.156,0.032-0.234,0.032
		c-0.243,0-0.482-0.14-0.565-0.393c-0.128-0.319,0.037-0.678,0.349-0.799l0.772-0.292c0.312-0.117,0.68,0.043,0.799,0.363
		C80.743,146.188,80.587,146.544,80.266,146.668z M80.716,85.482c0,0-0.064,0-0.092-0.005l-0.818-0.117
		c-0.331-0.046-0.579-0.36-0.515-0.696c0.037-0.337,0.358-0.574,0.698-0.523l0.809,0.119c0.34,0.048,0.561,0.361,0.523,0.694
		C81.276,85.264,81.014,85.482,80.716,85.482z M81.396,145.582c-0.12-0.314,0.046-0.673,0.354-0.797l0.772-0.289
		c0.317-0.115,0.666,0.043,0.799,0.358c0.115,0.322-0.051,0.675-0.363,0.799l-0.763,0.29c-0.078,0.03-0.156,0.039-0.221,0.039
		C81.717,145.982,81.483,145.828,81.396,145.582z M90.959,249.483h-7.768v-33.344h7.768V249.483z M87.073,207.362
		c-2.843,0-4.979-2.136-4.979-4.988s2.136-4.993,4.979-4.993c2.857,0,4.993,2.141,4.993,4.993S89.93,207.362,87.073,207.362z
		 M92.714,191.973L92.3,192.69c-0.105,0.193-0.312,0.312-0.533,0.312c-0.097,0-0.202-0.022-0.299-0.078
		c-0.298-0.175-0.399-0.547-0.234-0.845l0.404-0.708c0.17-0.303,0.551-0.404,0.845-0.238
		C92.778,191.298,92.888,191.675,92.714,191.973z M94.128,189.465l-0.404,0.717c-0.105,0.197-0.312,0.312-0.537,0.312
		c-0.106,0-0.211-0.023-0.299-0.078c-0.298-0.165-0.404-0.547-0.239-0.846l0.404-0.707c0.166-0.303,0.542-0.404,0.845-0.239
		C94.184,188.791,94.298,189.171,94.128,189.465z M95.543,186.958l-0.404,0.717c-0.11,0.202-0.322,0.312-0.538,0.312
		c-0.096,0-0.207-0.023-0.303-0.078c-0.298-0.166-0.399-0.538-0.225-0.841l0.395-0.722c0.175-0.284,0.542-0.395,0.836-0.233
		C95.603,186.292,95.713,186.659,95.543,186.958z M96.958,184.455l-0.395,0.716c-0.12,0.193-0.326,0.312-0.551,0.312
		c-0.092,0-0.202-0.027-0.298-0.083c-0.299-0.17-0.409-0.542-0.234-0.836l0.414-0.716c0.156-0.299,0.533-0.4,0.827-0.23
		C97.027,183.779,97.133,184.151,96.958,184.455z M98.373,181.946l-0.404,0.712c-0.11,0.207-0.322,0.317-0.524,0.317
		c-0.11,0-0.216-0.023-0.312-0.073c-0.303-0.175-0.404-0.552-0.244-0.846l0.409-0.721c0.166-0.294,0.551-0.396,0.841-0.226
		C98.428,181.266,98.543,181.652,98.373,181.946z M98.309,179.548l0.395-0.721c0.174-0.29,0.556-0.4,0.854-0.23
		c0.303,0.17,0.404,0.542,0.239,0.841l-0.409,0.717c-0.124,0.202-0.326,0.321-0.542,0.321c-0.097,0-0.216-0.037-0.303-0.092
		C98.253,180.219,98.139,179.842,98.309,179.548z M119.388,246.787c-2.604,2.857-5.856,3.721-9.348,3.721
		c-2.131,0-4.823-0.308-7.203-2.136c-1.897-1.429-3.481-3.721-4.281-6.104l6.348-3c0.395,1.103,1.103,2.531,1.819,3.161
		c0.469,0.481,1.58,1.271,3.399,1.271c1.194,0,2.458-0.395,3.174-1.102c0.639-0.635,1.103-1.663,1.103-2.623
		c0-0.951-0.312-1.746-1.02-2.531c-0.96-0.955-2.062-1.507-3.339-2.058l-2.848-1.351c-1.498-0.707-3.326-1.58-4.594-2.848
		c-1.746-1.658-2.37-3.486-2.37-5.623c0-2.691,1.029-5.305,2.765-7.124c1.507-1.59,4.042-3.17,8.153-3.17
		c2.384,0,4.286,0.474,6.178,1.741c1.125,0.717,2.618,1.984,3.812,4.116l-5.778,3.803c-0.804-1.268-2.306-2.853-4.768-2.853
		c-1.103,0-1.893,0.399-2.37,0.878c-0.395,0.386-0.708,1.024-0.708,1.736c0,0.872,0.395,1.424,1.112,1.901
		c0.478,0.321,0.951,0.478,2.609,1.341l3.964,1.984c1.731,0.873,3.403,1.746,4.671,3.087c1.819,1.824,2.453,3.882,2.453,6.183
		C122.323,242.194,121.207,244.812,119.388,246.787z M122.424,139.333l-0.395,0.716c-0.128,0.202-0.331,0.315-0.542,0.315
		c-0.11,0-0.211-0.028-0.303-0.083c-0.303-0.165-0.404-0.54-0.239-0.838l0.4-0.712c0.179-0.303,0.546-0.402,0.84-0.239
		C122.488,138.665,122.589,139.032,122.424,139.333z M123.839,136.83l-0.409,0.709c-0.106,0.205-0.308,0.315-0.524,0.315
		c-0.105,0-0.216-0.023-0.308-0.078c-0.303-0.168-0.404-0.547-0.248-0.838l0.418-0.717c0.17-0.298,0.542-0.402,0.84-0.236
		C123.894,136.159,124.004,136.536,123.839,136.83z M125.253,134.321l-0.399,0.714c-0.124,0.2-0.326,0.319-0.538,0.319
		c-0.11,0-0.211-0.027-0.312-0.087c-0.294-0.167-0.391-0.54-0.23-0.838l0.404-0.721c0.17-0.292,0.533-0.393,0.845-0.232
		C125.318,133.646,125.428,134.021,125.253,134.321z M126.264,132.528c-0.12,0.2-0.322,0.319-0.533,0.319
		c-0.11,0-0.216-0.025-0.303-0.085c-0.299-0.163-0.404-0.542-0.239-0.836l0.257-0.459c-1.075-0.827-1.819-2.067-1.819-3.53
		c0-2.425,1.92-4.375,4.318-4.488l0.004-0.08c0.037-0.342,0.335-0.588,0.666-0.554c0.354,0.03,0.597,0.331,0.561,0.668l-0.009,0.131
		c1.994,0.473,3.51,2.184,3.51,4.322c0,2.497-2.031,4.52-4.529,4.52c-0.588,0-1.139-0.131-1.654-0.333L126.264,132.528z
		 M157.958,249.483h-7.763v-19.72c0-1.979,0-4.12-1.507-5.782c-0.863-0.951-2.37-1.741-4.35-1.741c-2.618,0-4.672,1.263-5.701,2.774
		c-1.121,1.58-1.58,4.115-1.58,8.388v16.081h-7.772v-57.721h7.772v27.234c3.316-3.417,6.955-3.726,8.939-3.726
		c6.1,0,8.865,3.17,9.825,4.511c2.054,3.009,2.136,6.891,2.136,9.274V249.483z M157.472,129.225h-0.014l-0.813-0.019
		c-0.354-0.007-0.615-0.292-0.611-0.634c0.005-0.335,0.312-0.602,0.639-0.602l0.818,0.014c0.34,0.019,0.605,0.298,0.605,0.636
		C158.079,128.958,157.807,129.225,157.472,129.225z M159.493,129.255c-0.33-0.021-0.588-0.283-0.588-0.616
		c0.019-0.335,0.321-0.583,0.634-0.592c0.285-1.727,1.488-3.084,3.146-3.564l-0.087-0.655c-0.046-0.331,0.179-0.645,0.523-0.696
		c0.331-0.048,0.644,0.184,0.693,0.531l0.088,0.574c0.009,0,0.014-0.005,0.022-0.005c2.448,0,4.41,1.95,4.497,4.375
		c0.12-0.131,0.285-0.221,0.487-0.2l0.809,0.071c0.34,0.035,0.597,0.335,0.56,0.675c-0.027,0.324-0.294,0.562-0.602,0.562
		c0,0-0.05,0-0.064-0.004l-0.826-0.076c-0.207-0.021-0.354-0.156-0.445-0.326c-0.285,2.223-2.113,3.969-4.415,3.969
		C161.597,133.279,159.75,131.506,159.493,129.255z M165.505,134.326c-0.128-0.312,0.023-0.675,0.336-0.799
		c0.316-0.126,0.688,0.023,0.799,0.342l0.317,0.753c0.119,0.319-0.027,0.68-0.345,0.811c-0.069,0.03-0.147,0.043-0.229,0.043
		c-0.239,0-0.474-0.149-0.569-0.393L165.505,134.326z M199.933,249.483h-7.767v-3.486c-3.409,3.96-7.603,4.511-9.982,4.511
		c-10.284,0-16.146-8.544-16.146-17.735c0-10.854,7.433-17.501,16.229-17.501c2.472,0,6.725,0.635,9.899,4.745v-3.877h7.767V249.483
		z M201.197,132.631c-0.027,0-0.041-0.002-0.041-0.002l-0.837-0.076c-0.349-0.028-0.588-0.333-0.564-0.671
		c0.032-0.335,0.331-0.583,0.675-0.558l0.818,0.078c0.335,0.027,0.592,0.335,0.56,0.668
		C201.78,132.395,201.504,132.631,201.197,132.631z M201.486,94.524c-0.05,0.009-0.092,0.009-0.128,0.009
		c-0.285,0-0.543-0.193-0.606-0.485c-0.064-0.328,0.146-0.654,0.478-0.73l0.799-0.175c0.336-0.066,0.662,0.138,0.73,0.469
		c0.078,0.333-0.138,0.666-0.469,0.735L201.486,94.524z M204.063,132.9c0,0-0.051,0-0.06-0.005l-0.827-0.073
		c-0.33-0.035-0.578-0.335-0.556-0.673c0.032-0.342,0.34-0.595,0.685-0.561l0.812,0.078c0.341,0.032,0.579,0.333,0.547,0.668
		C204.642,132.656,204.371,132.9,204.063,132.9z M204.288,93.913c-0.027,0.007-0.073,0.014-0.128,0.014
		c-0.275,0-0.533-0.2-0.598-0.487c-0.073-0.333,0.147-0.657,0.469-0.732l0.813-0.177c0.326-0.071,0.661,0.143,0.73,0.478
		c0.082,0.335-0.139,0.659-0.474,0.73L204.288,93.913z M210.388,137.39c-2.448,0-4.41-1.947-4.492-4.382
		c-0.248-0.101-0.437-0.317-0.409-0.588c0.027-0.31,0.289-0.519,0.579-0.533c0.459-2.009,2.173-3.542,4.322-3.542
		c2.489,0,4.52,2.026,4.52,4.52C214.908,135.371,212.877,137.39,210.388,137.39z M216.346,91.299l-0.8,0.17
		c-0.041,0.014-0.087,0.019-0.119,0.019c-0.299,0-0.556-0.202-0.611-0.487c-0.073-0.338,0.143-0.662,0.469-0.737l0.809-0.172
		c0.331-0.076,0.661,0.14,0.735,0.471C216.902,90.897,216.681,91.224,216.346,91.299z M222.717,93.805
		c-1.943,0-3.569-1.247-4.208-2.974l-0.146,0.032c-0.051,0.009-0.093,0.012-0.129,0.012c-0.285,0-0.533-0.195-0.606-0.484
		c-0.073-0.335,0.143-0.664,0.469-0.735l0.17-0.037c-0.01-0.117-0.069-0.216-0.069-0.335c0-2.501,2.03-4.524,4.521-4.524
		c2.503,0,4.528,2.023,4.528,4.524C227.246,91.782,225.22,93.805,222.717,93.805z"/>
</g>
</svg>
