<?xml version="1.0" encoding="utf-8"?>
<!-- Generator: Adobe Illustrator 16.0.0, SVG Export Plug-In . SVG Version: 6.00 Build 0)  -->
<!DOCTYPE svg PUBLIC "-//W3C//DTD SVG 1.1//EN" "http://www.w3.org/Graphics/SVG/1.1/DTD/svg11.dtd">
<svg version="1.1" id="Layer_1" xmlns="http://www.w3.org/2000/svg" xmlns:xlink="http://www.w3.org/1999/xlink" x="0px" y="0px"
	 width="159.74px" height="168.831px" viewBox="0 0 159.74 168.831" style="enable-background:new 0 0 159.74 168.831;"
	 xml:space="preserve">
<path style="fill:#FFFFFF;" d="M155.803,83.653c0,42.403-34.39,76.793-76.8,76.793c-42.42,0-76.8-34.39-76.8-76.793
	c0-42.416,34.38-76.801,76.8-76.801C121.413,6.853,155.803,41.237,155.803,83.653"/>
<path style="fill:none;" d="M155.803,83.653c0,42.403-34.39,76.793-76.8,76.793c-42.42,0-76.8-34.39-76.8-76.793
	c0-42.416,34.38-76.801,76.8-76.801C121.413,6.853,155.803,41.237,155.803,83.653"/>
<path d="M35.025,99.249h3.883v28.871h-3.883v-1.746c-1.704,1.984-3.805,2.256-4.99,2.256c-5.15,0-8.082-4.273-8.082-8.868
	c0-5.43,3.727-8.754,8.119-8.754c1.227,0,3.363,0.317,4.953,2.373V99.249z M25.918,119.842c0,2.893,1.82,5.308,4.632,5.308
	c2.454,0,4.715-1.785,4.715-5.269c0-3.644-2.261-5.39-4.715-5.39C27.738,114.491,25.918,116.866,25.918,119.842"/>
<path d="M45.755,102.061c1.43,0,2.498,1.071,2.498,2.495s-1.068,2.496-2.498,2.496c-1.422,0-2.49-1.071-2.49-2.496
	S44.333,102.061,45.755,102.061 M47.699,128.12h-3.886v-16.678h3.886V128.12z"/>
<path d="M59.903,115.84c-0.402-0.637-1.153-1.427-2.385-1.427c-0.552,0-0.946,0.197-1.186,0.438
	c-0.197,0.195-0.354,0.513-0.354,0.868c0,0.437,0.197,0.713,0.556,0.954c0.239,0.158,0.478,0.238,1.306,0.671l1.982,0.992
	c0.866,0.435,1.702,0.868,2.336,1.542c0.91,0.912,1.228,1.941,1.228,3.09c0,1.505-0.559,2.812-1.468,3.805
	c-1.303,1.425-2.93,1.856-4.676,1.856c-1.066,0-2.412-0.151-3.603-1.066c-0.949-0.712-1.742-1.86-2.142-3.051l3.176-1.503
	c0.197,0.552,0.551,1.267,0.909,1.581c0.234,0.239,0.79,0.639,1.7,0.639c0.598,0,1.229-0.202,1.59-0.556
	c0.317-0.315,0.549-0.832,0.549-1.31c0-0.474-0.158-0.873-0.51-1.267c-0.48-0.478-1.031-0.753-1.67-1.026l-1.425-0.676
	c-0.749-0.356-1.663-0.79-2.298-1.427c-0.873-0.829-1.186-1.744-1.186-2.812c0-1.344,0.515-2.653,1.384-3.563
	c0.753-0.795,2.021-1.585,4.075-1.585c1.195,0,2.146,0.236,3.093,0.873c0.563,0.356,1.31,0.988,1.907,2.059L59.903,115.84z"/>
<path d="M66.87,99.249h3.887v13.622c1.659-1.707,3.479-1.863,4.472-1.863c3.051,0,4.432,1.585,4.914,2.256
	c1.027,1.508,1.068,3.446,1.068,4.637v10.22h-3.883v-9.863c0-0.99,0-2.062-0.754-2.893c-0.432-0.479-1.186-0.873-2.176-0.873
	c-1.31,0-2.336,0.634-2.851,1.388c-0.561,0.792-0.791,2.059-0.791,4.199v8.042H66.87V99.249z"/>
<path d="M98.32,111.444h3.886v16.676H98.32v-1.746c-1.707,1.984-3.802,2.256-4.992,2.256c-5.146,0-8.076-4.273-8.076-8.868
	c0-5.43,3.716-8.754,8.117-8.754c1.236,0,3.364,0.317,4.951,2.373V111.444z M89.211,119.842c0,2.893,1.824,5.308,4.637,5.308
	c2.458,0,4.71-1.785,4.71-5.269c0-3.644-2.252-5.39-4.71-5.39C91.035,114.491,89.211,116.866,89.211,119.842"/>
<path d="M67.536,18.168c0,1.252-1.016,2.263-2.264,2.263c-1.242,0-2.263-1.011-2.263-2.263c0-1.249,1.021-2.261,2.263-2.261
	C66.521,15.907,67.536,16.919,67.536,18.168"/>
<path d="M99.21,18.168c0,1.252-1.011,2.263-2.264,2.263c-1.252,0-2.263-1.011-2.263-2.263c0-1.249,1.011-2.261,2.263-2.261
	C98.199,15.907,99.21,16.919,99.21,18.168"/>
<path d="M47.377,33.287c0,1.304-1.057,2.364-2.361,2.364c-1.306,0-2.362-1.06-2.362-2.364c0-1.311,1.057-2.366,2.362-2.366
	C46.32,30.92,47.377,31.976,47.377,33.287"/>
<path d="M37.3,44.7c0,1.249-1.013,2.261-2.265,2.261c-1.245,0-2.252-1.012-2.252-2.261s1.007-2.263,2.252-2.263
	C36.287,42.437,37.3,43.451,37.3,44.7"/>
<path d="M27.742,83.572c0,1.304-1.063,2.365-2.368,2.365c-1.308,0-2.369-1.062-2.369-2.365c0-1.306,1.062-2.367,2.369-2.367
	C26.679,81.205,27.742,82.266,27.742,83.572"/>
<path d="M51.492,82.749c0,1.247-1.009,2.263-2.261,2.263c-1.248,0-2.263-1.017-2.263-2.263c0-1.251,1.015-2.263,2.263-2.263
	C50.483,80.486,51.492,81.498,51.492,82.749"/>
<path d="M84.611,54.777c0,1.249-1.021,2.263-2.268,2.263c-1.252,0-2.266-1.015-2.266-2.263c0-1.249,1.014-2.261,2.266-2.261
	C83.591,52.516,84.611,53.528,84.611,54.777"/>
<path d="M70.21,49.432c0,1.25-1.016,2.258-2.265,2.258c-1.246,0-2.261-1.009-2.261-2.258c0-1.251,1.015-2.263,2.261-2.263
	C69.194,47.168,70.21,48.181,70.21,49.432"/>
<path d="M68.565,67.325c0,1.249-1.016,2.261-2.266,2.261c-1.247,0-2.261-1.012-2.261-2.261c0-1.25,1.014-2.265,2.261-2.265
	C67.55,65.06,68.565,66.075,68.565,67.325"/>
<path d="M86.458,67.736c0,1.249-1.013,2.261-2.263,2.261c-1.252,0-2.268-1.012-2.268-2.261c0-1.252,1.016-2.263,2.268-2.263
	C85.445,65.473,86.458,66.484,86.458,67.736"/>
<path d="M115.867,47.991c0,1.25-1.014,2.261-2.266,2.261c-1.245,0-2.261-1.011-2.261-2.261c0-1.251,1.016-2.263,2.261-2.263
	C114.854,45.728,115.867,46.74,115.867,47.991"/>
<path d="M109.695,69.79c0,1.254-1.015,2.263-2.261,2.263c-1.249,0-2.261-1.009-2.261-2.263c0-1.247,1.012-2.261,2.261-2.261
	C108.681,67.529,109.695,68.543,109.695,69.79"/>
<path d="M97.974,96.322c0,1.248-1.011,2.266-2.266,2.266c-1.242,0-2.258-1.018-2.258-2.266s1.016-2.265,2.258-2.265
	C96.963,94.057,97.974,95.074,97.974,96.322"/>
<path d="M67.895,48.365c-0.159,0-0.297-0.118-0.308-0.275l-0.042-0.411c-0.016-0.168,0.112-0.318,0.28-0.334
	c0.168-0.02,0.322,0.105,0.336,0.277l0.041,0.408c0.016,0.169-0.105,0.319-0.278,0.336H67.895z M67.757,46.934
	c-0.163,0-0.292-0.12-0.309-0.277l-0.041-0.41c-0.019-0.169,0.11-0.322,0.275-0.339c0.17-0.016,0.326,0.111,0.341,0.28l0.039,0.407
	c0.016,0.172-0.113,0.323-0.278,0.339H67.757z M67.614,45.501c-0.156,0-0.29-0.115-0.309-0.277l-0.034-0.412
	c-0.021-0.169,0.104-0.319,0.273-0.337c0.166-0.016,0.319,0.108,0.34,0.276l0.037,0.411c0.014,0.172-0.105,0.321-0.28,0.336
	C67.637,45.501,67.626,45.501,67.614,45.501 M67.474,44.069c-0.153,0-0.291-0.117-0.306-0.28l-0.041-0.407
	c-0.014-0.172,0.112-0.323,0.28-0.339c0.165-0.016,0.321,0.108,0.336,0.278l0.041,0.409c0.014,0.171-0.11,0.321-0.28,0.339H67.474z
	 M67.336,42.637c-0.158,0-0.292-0.121-0.306-0.283l-0.041-0.404c-0.014-0.172,0.11-0.323,0.282-0.337
	c0.168-0.021,0.315,0.104,0.331,0.275l0.039,0.408c0.019,0.171-0.105,0.322-0.275,0.341H67.336z M67.196,41.203
	c-0.156,0-0.295-0.12-0.309-0.277l-0.036-0.41c-0.014-0.169,0.105-0.32,0.275-0.339c0.165-0.016,0.321,0.109,0.34,0.278l0.037,0.41
	c0.014,0.169-0.105,0.319-0.276,0.335C67.219,41.203,67.205,41.203,67.196,41.203 M67.058,39.768c-0.156,0-0.294-0.117-0.31-0.278
	l-0.034-0.412c-0.019-0.167,0.101-0.317,0.275-0.334c0.165-0.019,0.316,0.109,0.335,0.278l0.042,0.409
	c0.014,0.17-0.11,0.32-0.276,0.334C67.081,39.768,67.062,39.768,67.058,39.768 M66.916,38.338c-0.152,0-0.285-0.12-0.309-0.283
	l-0.036-0.404c-0.017-0.172,0.107-0.323,0.28-0.341c0.16-0.014,0.316,0.108,0.335,0.278l0.041,0.411
	c0.015,0.17-0.109,0.323-0.277,0.334C66.938,38.338,66.925,38.338,66.916,38.338 M66.78,36.905c-0.159,0-0.294-0.121-0.311-0.283
	l-0.044-0.404c-0.009-0.174,0.113-0.325,0.285-0.339c0.166-0.02,0.319,0.106,0.336,0.277l0.043,0.408
	c0.015,0.171-0.112,0.322-0.277,0.341H66.78z M66.64,35.472c-0.158,0-0.294-0.12-0.303-0.277l-0.046-0.413
	c-0.015-0.171,0.11-0.321,0.28-0.333c0.165-0.02,0.321,0.105,0.335,0.274l0.044,0.408c0.012,0.171-0.112,0.321-0.287,0.337
	L66.64,35.472z M66.502,34.035c-0.156,0-0.294-0.115-0.308-0.272l-0.039-0.41c-0.023-0.169,0.104-0.322,0.271-0.339
	c0.173-0.018,0.322,0.111,0.338,0.278l0.044,0.409c0.012,0.17-0.108,0.32-0.278,0.334H66.502z M66.359,32.606
	c-0.151,0-0.289-0.119-0.308-0.28l-0.037-0.409c-0.021-0.169,0.106-0.321,0.276-0.339c0.17-0.016,0.316,0.11,0.34,0.278l0.032,0.409
	c0.021,0.17-0.104,0.323-0.271,0.336C66.378,32.606,66.369,32.606,66.359,32.606 M66.222,31.174c-0.156,0-0.289-0.123-0.308-0.281
	l-0.042-0.406c-0.014-0.175,0.115-0.325,0.281-0.341c0.17-0.016,0.316,0.108,0.333,0.278l0.043,0.411
	c0.019,0.169-0.107,0.32-0.28,0.337C66.24,31.174,66.23,31.174,66.222,31.174 M66.079,29.742c-0.151,0-0.285-0.121-0.306-0.278
	l-0.041-0.412c-0.012-0.17,0.105-0.32,0.282-0.336c0.166-0.018,0.322,0.105,0.331,0.277l0.046,0.41
	c0.014,0.167-0.11,0.317-0.275,0.339H66.079z M65.941,28.306c-0.156,0-0.289-0.115-0.311-0.277l-0.034-0.41
	c-0.014-0.169,0.105-0.319,0.275-0.336c0.166-0.021,0.322,0.109,0.336,0.275l0.041,0.407c0.019,0.175-0.11,0.325-0.277,0.341H65.941
	z M65.804,26.871c-0.161,0-0.292-0.115-0.308-0.276l-0.037-0.412c-0.019-0.167,0.108-0.317,0.273-0.336
	c0.17-0.016,0.319,0.108,0.343,0.278l0.036,0.412c0.014,0.17-0.105,0.32-0.275,0.334H65.804z M65.666,25.443
	c-0.159,0-0.297-0.123-0.312-0.28l-0.037-0.409c-0.019-0.17,0.11-0.323,0.275-0.337c0.166-0.019,0.322,0.106,0.345,0.276
	l0.035,0.411c0.016,0.167-0.104,0.317-0.273,0.336L65.666,25.443z M65.523,24.01c-0.154,0-0.29-0.123-0.304-0.278l-0.041-0.411
	c-0.014-0.172,0.105-0.323,0.275-0.337c0.17-0.02,0.319,0.106,0.34,0.272l0.039,0.412c0.017,0.169-0.107,0.322-0.277,0.339
	C65.542,24.01,65.532,24.01,65.523,24.01 M65.383,22.574c-0.158,0-0.287-0.117-0.306-0.277l-0.034-0.41
	c-0.021-0.167,0.104-0.322,0.271-0.339c0.167-0.017,0.316,0.109,0.342,0.278l0.042,0.409c0.011,0.172-0.11,0.323-0.28,0.339H65.383z
	 M65.245,21.14c-0.153,0-0.292-0.115-0.306-0.276l-0.041-0.411c-0.014-0.167,0.11-0.317,0.28-0.334
	c0.165-0.018,0.317,0.106,0.333,0.278l0.044,0.407c0.019,0.172-0.105,0.32-0.283,0.336H65.245z M65.105,19.712
	c-0.156,0-0.29-0.123-0.304-0.28l-0.041-0.407c-0.019-0.175,0.11-0.325,0.275-0.341s0.321,0.108,0.333,0.28l0.046,0.407
	c0.017,0.169-0.11,0.32-0.277,0.339L65.105,19.712z"/>
<path d="M66.649,48.587c-0.058,0-0.12-0.016-0.175-0.054l-0.336-0.235c-0.145-0.097-0.172-0.286-0.078-0.425
	c0.095-0.144,0.285-0.177,0.426-0.081l0.347,0.236c0.14,0.101,0.172,0.29,0.073,0.431C66.847,48.542,66.748,48.587,66.649,48.587
	 M65.471,47.769c-0.062,0-0.124-0.017-0.177-0.057l-0.341-0.23c-0.138-0.099-0.172-0.294-0.073-0.431
	c0.097-0.139,0.289-0.175,0.423-0.081l0.343,0.236c0.14,0.099,0.177,0.292,0.075,0.431C65.663,47.722,65.571,47.769,65.471,47.769
	 M64.287,46.95c-0.064,0-0.124-0.022-0.175-0.056l-0.342-0.233c-0.141-0.097-0.177-0.29-0.076-0.433
	c0.092-0.139,0.285-0.171,0.428-0.075l0.338,0.234c0.145,0.097,0.177,0.29,0.08,0.429C64.476,46.903,64.384,46.95,64.287,46.95
	 M63.102,46.126c-0.06,0-0.119-0.016-0.177-0.052l-0.333-0.238c-0.143-0.097-0.18-0.287-0.085-0.428
	c0.099-0.138,0.296-0.174,0.434-0.077l0.336,0.235c0.143,0.097,0.177,0.29,0.08,0.427C63.295,46.084,63.203,46.126,63.102,46.126
	 M61.919,45.308c-0.062,0-0.122-0.014-0.178-0.057l-0.34-0.233c-0.138-0.094-0.172-0.286-0.071-0.427
	c0.095-0.139,0.287-0.175,0.425-0.078l0.341,0.235c0.14,0.097,0.17,0.29,0.078,0.428C62.111,45.26,62.018,45.308,61.919,45.308
	 M60.735,44.489c-0.06,0-0.119-0.02-0.175-0.055L60.218,44.2c-0.133-0.097-0.172-0.29-0.073-0.429
	c0.099-0.141,0.287-0.177,0.43-0.081l0.336,0.238c0.142,0.094,0.174,0.287,0.082,0.429C60.929,44.442,60.832,44.489,60.735,44.489
	 M59.552,43.67c-0.06,0-0.121-0.022-0.172-0.056l-0.34-0.238c-0.141-0.092-0.18-0.285-0.076-0.426
	c0.094-0.142,0.287-0.173,0.425-0.077l0.336,0.238c0.146,0.091,0.179,0.282,0.082,0.425C59.75,43.624,59.646,43.67,59.552,43.67
	 M58.369,42.849c-0.058,0-0.124-0.019-0.175-0.054l-0.338-0.235c-0.141-0.097-0.177-0.29-0.08-0.427
	c0.101-0.142,0.287-0.175,0.432-0.078l0.335,0.233c0.147,0.097,0.18,0.292,0.078,0.425C58.566,42.8,58.465,42.849,58.369,42.849
	 M57.188,42.031c-0.06,0-0.128-0.022-0.177-0.06l-0.338-0.232c-0.138-0.094-0.174-0.29-0.082-0.428
	c0.099-0.142,0.291-0.177,0.432-0.081l0.335,0.235c0.143,0.099,0.182,0.292,0.083,0.431C57.376,41.98,57.284,42.031,57.188,42.031
	 M56.002,41.21c-0.064,0-0.119-0.02-0.179-0.054l-0.336-0.235c-0.138-0.097-0.172-0.29-0.075-0.431
	c0.097-0.139,0.289-0.172,0.427-0.076l0.343,0.233c0.14,0.096,0.175,0.29,0.073,0.428C56.195,41.16,56.108,41.21,56.002,41.21
	 M54.821,40.388c-0.064,0-0.129-0.016-0.179-0.054l-0.338-0.236c-0.141-0.096-0.177-0.289-0.076-0.428
	c0.097-0.141,0.285-0.176,0.43-0.079l0.338,0.234c0.138,0.096,0.17,0.29,0.078,0.431C55.015,40.341,54.915,40.388,54.821,40.388
	 M53.636,39.569c-0.06,0-0.117-0.016-0.175-0.056l-0.345-0.236c-0.133-0.099-0.17-0.292-0.073-0.427
	c0.097-0.139,0.29-0.177,0.428-0.076l0.342,0.231c0.141,0.096,0.177,0.292,0.076,0.433C53.829,39.52,53.737,39.569,53.636,39.569
	 M52.45,38.746c-0.055,0-0.124-0.014-0.175-0.052l-0.335-0.234c-0.143-0.099-0.175-0.29-0.074-0.428
	c0.093-0.142,0.285-0.175,0.423-0.078l0.338,0.233c0.138,0.097,0.177,0.29,0.081,0.429C52.644,38.702,52.547,38.746,52.45,38.746
	 M51.274,37.928c-0.064,0-0.125-0.02-0.182-0.054l-0.338-0.233c-0.138-0.099-0.175-0.29-0.073-0.431
	c0.092-0.142,0.284-0.176,0.427-0.08l0.331,0.234c0.145,0.099,0.179,0.29,0.085,0.433C51.467,37.883,51.366,37.928,51.274,37.928
	 M50.086,37.111c-0.058,0-0.126-0.016-0.172-0.056l-0.34-0.235c-0.141-0.097-0.175-0.29-0.081-0.431
	c0.099-0.138,0.292-0.173,0.432-0.075l0.334,0.231c0.146,0.101,0.177,0.294,0.08,0.43C50.279,37.064,50.185,37.111,50.086,37.111
	 M48.9,36.287c-0.062,0-0.119-0.016-0.172-0.054L48.393,36c-0.146-0.096-0.179-0.292-0.078-0.43
	c0.092-0.141,0.285-0.174,0.423-0.078l0.34,0.236c0.139,0.096,0.18,0.29,0.078,0.426C49.096,36.24,49.004,36.287,48.9,36.287
	 M47.718,35.467c-0.061,0-0.12-0.017-0.17-0.055l-0.343-0.232c-0.136-0.099-0.173-0.287-0.08-0.431
	c0.101-0.139,0.294-0.175,0.437-0.078l0.333,0.235c0.14,0.099,0.177,0.288,0.08,0.429C47.91,35.42,47.818,35.467,47.718,35.467
	 M46.532,34.65c-0.056,0-0.124-0.022-0.173-0.057l-0.342-0.233c-0.139-0.097-0.171-0.29-0.074-0.431
	c0.102-0.142,0.287-0.174,0.433-0.077l0.335,0.234c0.147,0.094,0.173,0.287,0.078,0.428C46.729,34.603,46.638,34.65,46.532,34.65
	 M45.355,33.827c-0.064,0-0.124-0.016-0.179-0.054l-0.341-0.235c-0.138-0.097-0.17-0.29-0.078-0.425
	c0.102-0.142,0.292-0.177,0.437-0.081l0.331,0.233c0.147,0.099,0.18,0.292,0.08,0.43C45.549,33.782,45.452,33.827,45.355,33.827"/>
<path d="M47.398,101.124c-0.049,0-0.104-0.014-0.149-0.037c-0.147-0.087-0.202-0.275-0.124-0.425l0.209-0.356
	c0.085-0.149,0.271-0.202,0.42-0.119c0.143,0.085,0.198,0.273,0.115,0.418l-0.202,0.361
	C47.611,101.069,47.511,101.124,47.398,101.124 M48.104,99.869c-0.049,0-0.102-0.011-0.151-0.041
	c-0.147-0.085-0.198-0.271-0.115-0.418l0.202-0.356c0.085-0.154,0.275-0.205,0.423-0.122c0.146,0.087,0.202,0.271,0.115,0.422
	l-0.207,0.358C48.317,99.81,48.214,99.869,48.104,99.869 M48.813,98.615c-0.053,0-0.105-0.011-0.149-0.039
	c-0.149-0.085-0.202-0.273-0.119-0.42l0.202-0.356c0.082-0.154,0.271-0.202,0.422-0.122c0.143,0.087,0.2,0.275,0.115,0.422
	l-0.202,0.358C49.031,98.555,48.926,98.615,48.813,98.615 M49.519,97.36c-0.046,0-0.101-0.009-0.149-0.041
	c-0.149-0.081-0.2-0.267-0.112-0.418l0.197-0.361c0.088-0.145,0.271-0.197,0.418-0.117c0.149,0.09,0.205,0.271,0.12,0.423
	l-0.202,0.358C49.734,97.305,49.629,97.36,49.519,97.36 M50.227,96.106c-0.046,0-0.102-0.009-0.149-0.042
	c-0.149-0.083-0.205-0.267-0.117-0.416l0.207-0.361c0.078-0.147,0.266-0.198,0.413-0.115c0.154,0.083,0.207,0.269,0.119,0.418
	l-0.197,0.358C50.442,96.048,50.339,96.106,50.227,96.106 M50.943,94.854c-0.056,0-0.108-0.012-0.156-0.039
	c-0.151-0.087-0.202-0.271-0.122-0.42l0.204-0.361c0.083-0.147,0.276-0.198,0.421-0.115c0.145,0.08,0.202,0.271,0.117,0.418
	l-0.202,0.358C51.149,94.801,51.044,94.854,50.943,94.854 M51.644,93.602c-0.048,0-0.107-0.014-0.151-0.041
	c-0.145-0.083-0.202-0.271-0.117-0.418l0.197-0.363c0.088-0.147,0.278-0.198,0.428-0.115c0.151,0.083,0.202,0.271,0.119,0.421
	l-0.204,0.36C51.853,93.542,51.752,93.602,51.644,93.602 M52.35,92.347c-0.049,0-0.097-0.011-0.147-0.042
	c-0.154-0.083-0.202-0.271-0.122-0.418l0.205-0.361c0.085-0.145,0.275-0.2,0.423-0.112c0.146,0.083,0.202,0.266,0.112,0.418
	l-0.2,0.354C52.567,92.29,52.46,92.347,52.35,92.347 M53.062,91.093c-0.056,0-0.105-0.014-0.151-0.039
	c-0.147-0.085-0.202-0.273-0.12-0.42l0.202-0.361c0.083-0.149,0.276-0.2,0.423-0.112c0.152,0.08,0.2,0.269,0.115,0.418l-0.202,0.358
	C53.269,91.038,53.167,91.093,53.062,91.093 M53.77,89.838c-0.056,0-0.106-0.014-0.147-0.037c-0.156-0.087-0.207-0.276-0.124-0.425
	l0.202-0.356c0.083-0.147,0.273-0.202,0.418-0.12c0.151,0.087,0.207,0.273,0.119,0.423l-0.202,0.361
	C53.98,89.783,53.872,89.838,53.77,89.838 M54.477,88.586c-0.055,0-0.105-0.011-0.151-0.039c-0.151-0.087-0.207-0.271-0.122-0.418
	l0.205-0.363c0.087-0.147,0.271-0.203,0.423-0.115c0.148,0.081,0.197,0.269,0.116,0.418l-0.204,0.358
	C54.688,88.529,54.585,88.586,54.477,88.586 M55.185,87.33c-0.056,0-0.105-0.012-0.156-0.037c-0.145-0.085-0.197-0.273-0.115-0.418
	l0.2-0.361c0.085-0.149,0.278-0.202,0.423-0.117c0.149,0.083,0.199,0.271,0.117,0.42l-0.205,0.356
	C55.392,87.274,55.29,87.33,55.185,87.33 M55.888,86.08c-0.049,0-0.102-0.016-0.152-0.042c-0.146-0.083-0.195-0.273-0.114-0.421
	l0.197-0.36c0.085-0.146,0.278-0.195,0.423-0.115c0.149,0.082,0.202,0.27,0.117,0.42l-0.197,0.356
	C56.108,86.022,55.998,86.08,55.888,86.08 M56.6,84.822c-0.051,0-0.105-0.009-0.151-0.038c-0.149-0.082-0.198-0.27-0.12-0.418
	l0.207-0.361c0.081-0.15,0.267-0.202,0.416-0.117s0.2,0.273,0.117,0.421l-0.202,0.36C56.812,84.768,56.705,84.822,56.6,84.822
	 M57.305,83.573c-0.053,0-0.101-0.015-0.145-0.04c-0.156-0.085-0.202-0.273-0.122-0.421l0.2-0.357
	c0.083-0.148,0.275-0.202,0.418-0.121c0.152,0.085,0.207,0.273,0.12,0.424l-0.202,0.355C57.514,83.511,57.413,83.573,57.305,83.573
	 M58.011,82.316c-0.047,0-0.102-0.012-0.147-0.043c-0.151-0.082-0.207-0.268-0.119-0.418l0.206-0.358
	c0.078-0.15,0.267-0.195,0.414-0.115c0.149,0.083,0.202,0.27,0.119,0.419l-0.199,0.359C58.227,82.26,58.118,82.316,58.011,82.316
	 M58.723,81.062c-0.053,0-0.105-0.014-0.156-0.039c-0.147-0.08-0.197-0.271-0.112-0.421l0.195-0.355
	c0.087-0.148,0.275-0.205,0.422-0.118c0.152,0.083,0.203,0.273,0.12,0.419l-0.202,0.357C58.934,81.008,58.823,81.062,58.723,81.062
	 M59.428,79.811c-0.048,0-0.104-0.014-0.153-0.042c-0.147-0.083-0.198-0.271-0.115-0.421l0.204-0.357
	c0.081-0.148,0.27-0.2,0.421-0.115c0.146,0.083,0.197,0.272,0.119,0.423l-0.209,0.354C59.642,79.752,59.531,79.811,59.428,79.811
	 M60.14,78.556c-0.055,0-0.107-0.014-0.153-0.042c-0.147-0.082-0.202-0.268-0.115-0.418l0.193-0.36
	c0.09-0.148,0.278-0.201,0.427-0.116c0.152,0.085,0.198,0.273,0.115,0.419l-0.2,0.357C60.347,78.495,60.246,78.556,60.14,78.556
	 M60.841,77.303c-0.051,0-0.099-0.015-0.146-0.042c-0.152-0.08-0.203-0.271-0.12-0.419l0.202-0.357
	c0.085-0.146,0.271-0.2,0.421-0.117c0.149,0.084,0.204,0.272,0.117,0.42l-0.207,0.355C61.052,77.249,60.951,77.303,60.841,77.303
	 M61.553,76.046c-0.055,0-0.103-0.009-0.151-0.041c-0.156-0.082-0.202-0.268-0.115-0.418l0.203-0.358
	c0.082-0.15,0.266-0.202,0.42-0.117c0.145,0.085,0.195,0.273,0.108,0.421l-0.195,0.357C61.76,75.99,61.659,76.046,61.553,76.046
	 M62.256,74.795c-0.05,0-0.101-0.012-0.149-0.042c-0.148-0.083-0.197-0.271-0.112-0.422l0.197-0.353
	c0.085-0.153,0.276-0.205,0.423-0.121c0.146,0.085,0.202,0.273,0.115,0.421l-0.202,0.355C62.47,74.735,62.366,74.795,62.256,74.795
	 M62.969,73.541c-0.056,0-0.106-0.014-0.152-0.042c-0.151-0.083-0.202-0.268-0.119-0.418l0.2-0.356
	c0.09-0.153,0.273-0.203,0.42-0.12c0.152,0.087,0.202,0.27,0.12,0.42l-0.198,0.358C63.175,73.484,63.074,73.541,62.969,73.541
	 M63.679,72.284c-0.053,0-0.108-0.012-0.154-0.037c-0.151-0.085-0.202-0.273-0.124-0.419l0.209-0.36
	c0.085-0.148,0.271-0.2,0.421-0.118c0.142,0.087,0.197,0.276,0.114,0.424l-0.204,0.353C63.888,72.23,63.786,72.284,63.679,72.284
	 M64.384,71.035c-0.056,0-0.105-0.014-0.156-0.042c-0.147-0.085-0.197-0.27-0.115-0.421l0.202-0.36
	c0.085-0.146,0.267-0.197,0.423-0.115c0.147,0.084,0.202,0.27,0.115,0.42l-0.2,0.358C64.591,70.977,64.489,71.035,64.384,71.035
	 M65.092,69.781c-0.056,0-0.108-0.011-0.152-0.042c-0.149-0.082-0.202-0.27-0.119-0.418l0.202-0.36
	c0.083-0.146,0.271-0.203,0.418-0.116c0.151,0.08,0.205,0.271,0.119,0.421l-0.202,0.355C65.298,69.72,65.197,69.781,65.092,69.781
	 M65.799,68.527c-0.051,0-0.101-0.017-0.153-0.042c-0.149-0.085-0.203-0.271-0.117-0.419l0.202-0.359
	c0.087-0.146,0.275-0.2,0.423-0.117c0.146,0.082,0.201,0.27,0.114,0.423l-0.202,0.355C66.011,68.469,65.902,68.527,65.799,68.527
	 M66.341,67.219h-0.027c-0.175-0.016-0.299-0.162-0.277-0.339l0.034-0.406c0.014-0.172,0.165-0.294,0.335-0.28
	c0.166,0.014,0.294,0.167,0.278,0.336l-0.039,0.409C66.636,67.102,66.502,67.219,66.341,67.219 M66.47,65.787h-0.027
	c-0.17-0.017-0.294-0.17-0.278-0.336l0.037-0.409c0.019-0.172,0.168-0.294,0.333-0.278c0.177,0.014,0.299,0.164,0.28,0.334
	l-0.034,0.409C66.764,65.664,66.631,65.787,66.47,65.787 M66.607,64.352h-0.036c-0.166-0.017-0.295-0.167-0.28-0.334l0.046-0.413
	c0.009-0.167,0.165-0.294,0.326-0.277c0.175,0.014,0.299,0.164,0.287,0.333l-0.039,0.41C66.897,64.233,66.764,64.352,66.607,64.352
	 M66.736,62.92c0,0-0.019,0-0.027-0.002c-0.175-0.016-0.299-0.167-0.28-0.336l0.041-0.409c0.01-0.169,0.166-0.294,0.331-0.278
	c0.17,0.015,0.294,0.166,0.28,0.334l-0.037,0.41C67.03,62.801,66.893,62.92,66.736,62.92 M66.87,61.485h-0.032
	c-0.175-0.016-0.299-0.167-0.283-0.336l0.044-0.407c0.009-0.174,0.165-0.299,0.335-0.283c0.171,0.014,0.294,0.165,0.276,0.334
	l-0.037,0.409C67.164,61.366,67.026,61.485,66.87,61.485 M66.994,60.051h-0.023c-0.17-0.017-0.299-0.166-0.282-0.334l0.043-0.409
	c0.014-0.172,0.166-0.298,0.331-0.28c0.175,0.014,0.294,0.162,0.28,0.336l-0.037,0.407C67.292,59.933,67.154,60.051,66.994,60.051
	 M67.132,58.615h-0.027c-0.171-0.016-0.297-0.162-0.285-0.333l0.041-0.413c0.017-0.167,0.166-0.292,0.336-0.274
	c0.17,0.014,0.294,0.162,0.277,0.333l-0.034,0.41C67.426,58.498,67.288,58.615,67.132,58.615 M67.26,57.185l-0.022-0.002
	c-0.175-0.014-0.297-0.167-0.28-0.336l0.037-0.409c0.014-0.169,0.165-0.292,0.33-0.278c0.175,0.013,0.299,0.166,0.28,0.336
	l-0.034,0.41C67.555,57.065,67.416,57.185,67.26,57.185 M67.394,55.752h-0.019c-0.179-0.019-0.303-0.167-0.285-0.339l0.032-0.407
	c0.019-0.172,0.166-0.294,0.343-0.28c0.168,0.016,0.292,0.167,0.271,0.336l-0.034,0.407C67.688,55.633,67.55,55.752,67.394,55.752
	 M67.522,54.319c0,0-0.019,0-0.023-0.004c-0.175-0.015-0.294-0.166-0.28-0.334l0.037-0.411c0.019-0.17,0.17-0.292,0.335-0.276
	c0.17,0.016,0.297,0.162,0.28,0.334l-0.039,0.409C67.816,54.197,67.683,54.319,67.522,54.319 M67.655,52.887
	c0,0-0.016,0-0.022-0.005c-0.168-0.015-0.302-0.167-0.288-0.336l0.044-0.41c0.017-0.167,0.161-0.292,0.338-0.277
	c0.168,0.016,0.292,0.164,0.278,0.336l-0.042,0.411C67.949,52.762,67.816,52.887,67.655,52.887 M67.789,51.451l-0.028-0.002
	c-0.17-0.014-0.291-0.164-0.28-0.339l0.037-0.407c0.019-0.169,0.17-0.292,0.335-0.28c0.171,0.02,0.295,0.17,0.281,0.334
	l-0.037,0.415C68.078,51.332,67.945,51.451,67.789,51.451 M67.922,50.016c0,0-0.019,0-0.027-0.002
	c-0.168-0.014-0.297-0.164-0.28-0.334l0.004-0.032c-0.082-0.066-0.124-0.17-0.105-0.278c0.021-0.17,0.18-0.29,0.348-0.262l0.42,0.06
	l-0.046,0.568C68.212,49.896,68.078,50.016,67.922,50.016 M66.796,49.574c0,0-0.027,0-0.041-0.005l-0.409-0.059
	c-0.165-0.022-0.282-0.182-0.262-0.348c0.027-0.17,0.184-0.29,0.349-0.259l0.409,0.057c0.166,0.025,0.285,0.18,0.263,0.351
	C67.081,49.461,66.95,49.574,66.796,49.574 M65.369,49.37c0,0-0.022,0-0.039-0.005l-0.406-0.056
	c-0.173-0.026-0.287-0.184-0.265-0.354c0.027-0.164,0.18-0.281,0.35-0.256l0.409,0.054c0.17,0.029,0.284,0.184,0.259,0.351
	C65.656,49.259,65.523,49.37,65.369,49.37 M63.952,49.165l-0.046-0.002l-0.409-0.062c-0.17-0.021-0.29-0.178-0.258-0.35
	c0.023-0.165,0.18-0.285,0.35-0.259l0.399,0.059c0.17,0.026,0.29,0.182,0.262,0.351C64.228,49.051,64.099,49.165,63.952,49.165
	 M62.522,48.955c0,0-0.032,0-0.046,0l-0.409-0.056c-0.165-0.025-0.282-0.182-0.257-0.353c0.022-0.167,0.184-0.285,0.349-0.259
	l0.407,0.059c0.165,0.023,0.287,0.18,0.262,0.348C62.808,48.847,62.675,48.955,62.522,48.955 M61.099,48.752l-0.03-0.002
	l-0.421-0.057c-0.172-0.025-0.289-0.181-0.264-0.348c0.027-0.172,0.182-0.289,0.352-0.265l0.409,0.061
	c0.165,0.023,0.28,0.178,0.257,0.348C61.379,48.642,61.245,48.752,61.099,48.752 M59.669,48.55c0,0-0.022,0-0.039-0.004
	l-0.411-0.057c-0.165-0.028-0.28-0.181-0.262-0.348c0.027-0.172,0.184-0.287,0.349-0.267l0.414,0.062
	c0.163,0.021,0.285,0.178,0.258,0.348C59.956,48.438,59.823,48.55,59.669,48.55 M58.245,48.346c0,0-0.028,0-0.037-0.004
	l-0.414-0.059c-0.165-0.024-0.28-0.179-0.259-0.348c0.024-0.17,0.181-0.29,0.347-0.262l0.409,0.056
	c0.17,0.029,0.287,0.182,0.262,0.352C58.529,48.233,58.401,48.346,58.245,48.346 M56.825,48.142c0,0-0.028,0-0.046-0.005
	l-0.405-0.059c-0.174-0.026-0.289-0.182-0.266-0.349c0.022-0.167,0.181-0.284,0.352-0.263l0.406,0.059
	c0.172,0.026,0.285,0.182,0.262,0.351C57.105,48.028,56.972,48.142,56.825,48.142 M55.4,47.937c-0.019,0-0.03-0.002-0.046-0.006
	l-0.407-0.061c-0.172-0.021-0.289-0.178-0.264-0.346c0.027-0.167,0.184-0.287,0.349-0.261l0.412,0.059
	c0.163,0.021,0.284,0.179,0.257,0.348C55.681,47.826,55.548,47.937,55.4,47.937 M53.974,47.729h-0.053l-0.4-0.061
	c-0.167-0.025-0.284-0.178-0.262-0.35c0.025-0.167,0.184-0.287,0.35-0.259l0.409,0.059c0.17,0.023,0.284,0.179,0.262,0.348
	C54.259,47.621,54.123,47.729,53.974,47.729 M52.547,47.524c0,0-0.027,0-0.044-0.004l-0.406-0.056
	c-0.17-0.024-0.285-0.182-0.262-0.348c0.022-0.172,0.184-0.288,0.349-0.262l0.409,0.058c0.17,0.023,0.28,0.18,0.262,0.351
	C52.832,47.414,52.696,47.524,52.547,47.524 M51.125,47.318H51.09l-0.42-0.056c-0.168-0.029-0.283-0.187-0.258-0.353
	c0.021-0.17,0.182-0.285,0.347-0.262l0.405,0.06c0.174,0.025,0.291,0.178,0.262,0.348C51.402,47.21,51.274,47.318,51.125,47.318
	 M49.698,47.118c0,0-0.032-0.002-0.046-0.004l-0.405-0.061c-0.172-0.024-0.284-0.179-0.262-0.346c0.019-0.17,0.182-0.29,0.35-0.264
	l0.404,0.056c0.165,0.029,0.289,0.182,0.262,0.351C49.982,47.003,49.854,47.118,49.698,47.118 M48.278,46.911
	c-0.021,0-0.035,0-0.053-0.005l-0.402-0.06c-0.17-0.023-0.287-0.178-0.262-0.35c0.022-0.165,0.184-0.283,0.349-0.259l0.407,0.056
	c0.167,0.027,0.287,0.182,0.26,0.353C48.559,46.8,48.425,46.911,48.278,46.911 M46.849,46.707c0,0-0.029,0-0.041-0.006l-0.409-0.059
	c-0.17-0.023-0.289-0.178-0.262-0.348c0.022-0.167,0.182-0.287,0.345-0.261l0.413,0.059c0.166,0.023,0.28,0.182,0.263,0.351
	C47.129,46.595,47.001,46.707,46.849,46.707 M45.425,46.499c0,0-0.032,0-0.044-0.002l-0.411-0.059
	c-0.166-0.023-0.285-0.182-0.262-0.348c0.027-0.167,0.184-0.285,0.354-0.261l0.404,0.059c0.17,0.023,0.289,0.18,0.262,0.35
	C45.705,46.389,45.578,46.499,45.425,46.499 M44.002,46.294c0,0-0.029,0-0.053,0l-0.404-0.059c-0.17-0.026-0.285-0.184-0.262-0.35
	c0.027-0.17,0.184-0.285,0.349-0.262l0.407,0.06c0.172,0.023,0.287,0.18,0.262,0.348C44.28,46.186,44.151,46.294,44.002,46.294
	 M42.575,46.09c0,0-0.032,0-0.046-0.002l-0.409-0.059c-0.165-0.024-0.289-0.179-0.257-0.348c0.019-0.17,0.179-0.287,0.35-0.262
	l0.404,0.059c0.17,0.026,0.28,0.182,0.262,0.349C42.855,45.982,42.725,46.09,42.575,46.09 M41.146,45.888
	c-0.017,0-0.025-0.002-0.041-0.005l-0.414-0.056c-0.165-0.026-0.28-0.182-0.257-0.352c0.022-0.169,0.177-0.287,0.344-0.263
	l0.409,0.061c0.17,0.022,0.29,0.179,0.265,0.346C41.432,45.776,41.298,45.888,41.146,45.888 M39.722,45.681c0,0-0.029,0-0.046,0
	l-0.406-0.062c-0.166-0.023-0.283-0.178-0.26-0.35c0.022-0.167,0.179-0.285,0.349-0.259l0.405,0.057
	c0.17,0.026,0.289,0.181,0.267,0.353C40.007,45.569,39.869,45.681,39.722,45.681 M38.298,45.478c0,0-0.028-0.002-0.042-0.005
	l-0.409-0.059c-0.17-0.023-0.284-0.178-0.262-0.348c0.023-0.169,0.182-0.29,0.354-0.261l0.404,0.059
	c0.163,0.021,0.28,0.181,0.257,0.348C38.58,45.367,38.449,45.478,38.298,45.478 M36.873,45.273c0,0-0.032-0.004-0.046-0.004
	l-0.409-0.059c-0.165-0.026-0.28-0.182-0.257-0.351c0.022-0.17,0.179-0.285,0.349-0.262l0.409,0.06
	c0.165,0.023,0.282,0.18,0.262,0.353C37.153,45.16,37.024,45.273,36.873,45.273 M35.453,45.066c-0.019,0-0.037,0-0.051-0.002
	l-0.409-0.059c-0.165-0.026-0.284-0.182-0.262-0.351c0.027-0.17,0.184-0.285,0.352-0.259l0.407,0.057
	c0.172,0.023,0.282,0.181,0.262,0.351C35.729,44.956,35.596,45.066,35.453,45.066"/>
<path d="M82.392,54.965c-0.036,0-0.078-0.008-0.114-0.022c-0.156-0.065-0.234-0.247-0.173-0.402l0.149-0.381
	c0.069-0.16,0.243-0.238,0.399-0.171c0.161,0.063,0.241,0.242,0.178,0.402l-0.154,0.379C82.633,54.887,82.516,54.965,82.392,54.965
	 M83.219,54.894c-0.146,0-0.271-0.097-0.303-0.243c-0.032-0.167,0.075-0.329,0.241-0.364l0.401-0.089
	c0.17-0.038,0.331,0.072,0.363,0.238c0.037,0.167-0.069,0.329-0.234,0.364l-0.399,0.087C83.265,54.892,83.242,54.894,83.219,54.894
	 M84.63,54.593c-0.141,0-0.276-0.101-0.309-0.245c-0.031-0.167,0.071-0.332,0.239-0.368l0.399-0.086
	c0.166-0.04,0.336,0.068,0.368,0.235c0.037,0.167-0.064,0.329-0.236,0.364l-0.397,0.09C84.671,54.588,84.648,54.593,84.63,54.593
	 M86.033,54.283c-0.145,0-0.273-0.094-0.301-0.24c-0.034-0.167,0.071-0.332,0.234-0.368l0.404-0.089
	c0.165-0.032,0.331,0.071,0.368,0.238c0.031,0.168-0.074,0.332-0.239,0.368l-0.402,0.087C86.077,54.283,86.054,54.283,86.033,54.283
	 M87.439,53.98c-0.14,0-0.269-0.101-0.299-0.243c-0.034-0.168,0.069-0.33,0.232-0.368l0.404-0.09
	c0.165-0.034,0.331,0.074,0.367,0.238c0.039,0.167-0.068,0.332-0.238,0.368l-0.4,0.086C87.487,53.976,87.46,53.98,87.439,53.98
	 M88.846,53.675c-0.145,0-0.267-0.099-0.299-0.245c-0.037-0.167,0.071-0.332,0.234-0.364l0.402-0.087
	c0.17-0.041,0.331,0.068,0.367,0.233c0.037,0.167-0.073,0.332-0.234,0.367l-0.404,0.087C88.894,53.673,88.871,53.675,88.846,53.675
	 M82.925,53.625c-0.037,0-0.078-0.007-0.11-0.018c-0.161-0.068-0.241-0.243-0.175-0.402l0.152-0.381
	c0.06-0.16,0.248-0.235,0.395-0.172c0.163,0.062,0.239,0.24,0.18,0.399l-0.156,0.382C83.161,53.556,83.049,53.625,82.925,53.625
	 M90.254,53.367c-0.138,0-0.271-0.099-0.301-0.242c-0.039-0.167,0.068-0.332,0.236-0.364l0.404-0.09
	c0.166-0.038,0.326,0.07,0.368,0.236c0.034,0.168-0.069,0.331-0.244,0.366l-0.395,0.09C90.295,53.367,90.277,53.367,90.254,53.367
	 M91.66,53.062c-0.145,0-0.269-0.097-0.299-0.24c-0.039-0.167,0.069-0.334,0.232-0.37L92,52.365c0.165-0.035,0.333,0.07,0.363,0.234
	c0.032,0.168-0.069,0.332-0.234,0.37l-0.396,0.087C91.701,53.062,91.683,53.062,91.66,53.062 M93.066,52.758
	c-0.141,0-0.267-0.099-0.299-0.245c-0.037-0.166,0.069-0.328,0.239-0.365l0.395-0.09c0.17-0.034,0.338,0.071,0.368,0.236
	c0.039,0.167-0.062,0.332-0.23,0.37l-0.408,0.086C93.112,52.756,93.087,52.758,93.066,52.758 M94.477,52.452
	c-0.145,0-0.271-0.099-0.303-0.243c-0.035-0.167,0.068-0.331,0.231-0.366l0.412-0.09c0.163-0.035,0.326,0.074,0.36,0.238
	c0.039,0.164-0.071,0.33-0.236,0.366l-0.4,0.087C94.519,52.449,94.495,52.452,94.477,52.452 M83.456,52.29
	c-0.037,0-0.076-0.007-0.11-0.021c-0.159-0.064-0.237-0.243-0.173-0.403l0.151-0.38c0.064-0.158,0.244-0.233,0.404-0.172
	c0.152,0.063,0.23,0.24,0.173,0.397l-0.156,0.386C83.696,52.22,83.582,52.29,83.456,52.29 M95.888,52.148
	c-0.143,0-0.275-0.101-0.306-0.245c-0.039-0.167,0.071-0.33,0.236-0.369l0.4-0.085c0.165-0.038,0.333,0.068,0.367,0.236
	c0.037,0.167-0.073,0.333-0.239,0.364l-0.399,0.089C95.92,52.142,95.906,52.148,95.888,52.148 M97.284,51.84
	c-0.138,0-0.269-0.094-0.299-0.242c-0.034-0.168,0.074-0.332,0.239-0.365l0.402-0.091c0.165-0.033,0.328,0.07,0.367,0.237
	c0.032,0.17-0.073,0.332-0.236,0.367l-0.399,0.087C97.333,51.84,97.308,51.84,97.284,51.84 M98.69,51.535
	c-0.14,0-0.267-0.099-0.294-0.243c-0.039-0.167,0.064-0.33,0.234-0.368l0.402-0.085c0.167-0.039,0.33,0.069,0.365,0.233
	c0.034,0.17-0.064,0.33-0.234,0.372l-0.404,0.082C98.741,51.533,98.721,51.535,98.69,51.535 M100.102,51.23
	c-0.146,0-0.267-0.099-0.304-0.245c-0.034-0.165,0.073-0.329,0.239-0.364l0.404-0.089c0.163-0.036,0.333,0.071,0.365,0.235
	c0.034,0.169-0.073,0.332-0.239,0.366l-0.397,0.092C100.145,51.23,100.124,51.23,100.102,51.23 M83.991,50.954
	c-0.037,0-0.078-0.009-0.113-0.024c-0.158-0.061-0.236-0.243-0.17-0.4l0.149-0.384c0.064-0.157,0.244-0.232,0.396-0.169
	c0.165,0.061,0.243,0.243,0.175,0.397l-0.152,0.384C84.234,50.875,84.115,50.954,83.991,50.954 M101.512,50.923
	c-0.143,0-0.275-0.099-0.303-0.24c-0.032-0.167,0.073-0.332,0.234-0.367l0.401-0.089c0.173-0.038,0.331,0.072,0.368,0.238
	c0.036,0.164-0.069,0.332-0.234,0.366l-0.402,0.087C101.554,50.923,101.535,50.923,101.512,50.923 M102.92,50.617
	c-0.145,0-0.273-0.097-0.306-0.243c-0.031-0.164,0.074-0.327,0.239-0.364l0.4-0.087c0.167-0.036,0.33,0.068,0.365,0.232
	c0.039,0.167-0.069,0.334-0.234,0.368l-0.402,0.089C102.957,50.617,102.937,50.617,102.92,50.617 M104.319,50.314
	c-0.138,0-0.267-0.099-0.299-0.243c-0.036-0.167,0.076-0.33,0.234-0.368l0.407-0.089c0.163-0.035,0.331,0.073,0.365,0.24
	c0.041,0.167-0.069,0.33-0.237,0.365l-0.406,0.087C104.37,50.312,104.347,50.314,104.319,50.314 M105.73,50.011
	c-0.138,0-0.271-0.103-0.304-0.243c-0.032-0.17,0.069-0.332,0.239-0.372l0.399-0.085c0.175-0.038,0.333,0.071,0.372,0.238
	c0.032,0.164-0.073,0.33-0.238,0.365L105.795,50C105.773,50.007,105.749,50.011,105.73,50.011 M107.139,49.704
	c-0.145,0-0.273-0.101-0.299-0.245c-0.039-0.164,0.066-0.329,0.234-0.364l0.399-0.089c0.168-0.036,0.334,0.07,0.365,0.238
	c0.037,0.164-0.063,0.332-0.229,0.364l-0.413,0.087C107.178,49.702,107.159,49.704,107.139,49.704 M84.531,49.614
	c-0.039,0-0.081-0.007-0.117-0.023c-0.161-0.061-0.239-0.24-0.175-0.397l0.153-0.384c0.064-0.157,0.241-0.235,0.4-0.171
	c0.158,0.061,0.231,0.241,0.172,0.402l-0.156,0.381C84.763,49.542,84.648,49.614,84.531,49.614 M108.542,49.396
	c-0.138,0-0.266-0.094-0.298-0.243c-0.037-0.167,0.068-0.332,0.233-0.364l0.405-0.09c0.163-0.036,0.33,0.07,0.36,0.235
	c0.039,0.167-0.062,0.333-0.232,0.367l-0.401,0.087C108.588,49.396,108.561,49.396,108.542,49.396 M109.955,49.095
	c-0.149,0-0.277-0.101-0.306-0.245c-0.036-0.17,0.071-0.332,0.234-0.37l0.404-0.084c0.166-0.038,0.331,0.068,0.368,0.234
	c0.036,0.167-0.073,0.33-0.241,0.37l-0.4,0.085C109.994,49.093,109.972,49.095,109.955,49.095 M111.359,48.786
	c-0.143,0-0.267-0.096-0.304-0.241c-0.036-0.168,0.071-0.332,0.234-0.368l0.402-0.09c0.172-0.035,0.333,0.074,0.37,0.235
	c0.032,0.169-0.069,0.334-0.239,0.37l-0.399,0.088C111.398,48.786,111.378,48.786,111.359,48.786 M112.763,48.48
	c-0.138,0-0.269-0.099-0.301-0.243c-0.032-0.167,0.073-0.329,0.236-0.366l0.402-0.09c0.17-0.031,0.331,0.071,0.368,0.238
	c0.032,0.165-0.069,0.332-0.234,0.367l-0.405,0.087C112.807,48.478,112.788,48.48,112.763,48.48 M85.057,48.278
	c-0.034,0-0.071-0.009-0.11-0.021c-0.158-0.064-0.238-0.242-0.174-0.402l0.151-0.381c0.064-0.161,0.248-0.236,0.399-0.175
	c0.161,0.064,0.234,0.245,0.175,0.404l-0.149,0.381C85.296,48.204,85.184,48.278,85.057,48.278 M85.59,46.942
	c-0.036,0-0.075-0.007-0.112-0.022c-0.154-0.063-0.234-0.244-0.17-0.4l0.153-0.386c0.061-0.158,0.244-0.234,0.402-0.171
	c0.154,0.063,0.229,0.245,0.17,0.402l-0.153,0.379C85.831,46.866,85.719,46.942,85.59,46.942 M86.128,45.604
	c-0.042,0-0.078-0.008-0.12-0.022c-0.156-0.063-0.231-0.245-0.167-0.402l0.148-0.381c0.064-0.157,0.246-0.235,0.402-0.171
	c0.161,0.063,0.234,0.242,0.173,0.402l-0.156,0.377C86.364,45.53,86.247,45.604,86.128,45.604 M86.661,44.264
	c-0.042,0-0.076-0.004-0.12-0.018c-0.156-0.063-0.229-0.243-0.17-0.404l0.151-0.379c0.069-0.162,0.244-0.235,0.404-0.174
	c0.161,0.064,0.234,0.245,0.17,0.403l-0.153,0.383C86.899,44.196,86.78,44.264,86.661,44.264 M87.193,42.928
	c-0.041,0-0.078-0.007-0.117-0.021c-0.158-0.064-0.231-0.243-0.172-0.401l0.151-0.383c0.069-0.158,0.246-0.235,0.404-0.172
	c0.161,0.063,0.234,0.243,0.17,0.402l-0.153,0.381C87.433,42.858,87.313,42.928,87.193,42.928 M87.727,41.592
	c-0.041,0-0.078-0.007-0.114-0.022c-0.156-0.063-0.239-0.245-0.175-0.402l0.158-0.381c0.058-0.16,0.236-0.235,0.399-0.171
	c0.154,0.061,0.232,0.243,0.168,0.402l-0.145,0.381C87.963,41.517,87.846,41.592,87.727,41.592 M88.253,40.255
	c-0.03,0-0.069-0.004-0.108-0.022c-0.158-0.061-0.234-0.243-0.17-0.402l0.151-0.381c0.062-0.16,0.244-0.235,0.4-0.172
	c0.156,0.064,0.229,0.246,0.175,0.403l-0.154,0.38C88.494,40.181,88.382,40.255,88.253,40.255 M88.793,38.917
	c-0.037,0-0.076-0.005-0.115-0.021c-0.158-0.064-0.231-0.242-0.168-0.403l0.149-0.38c0.061-0.16,0.244-0.236,0.4-0.175
	c0.151,0.063,0.236,0.245,0.172,0.402l-0.154,0.383C89.034,38.847,88.914,38.917,88.793,38.917 M89.326,37.581
	c-0.042,0-0.078-0.007-0.115-0.021c-0.156-0.064-0.236-0.246-0.173-0.405l0.156-0.378c0.058-0.161,0.239-0.236,0.4-0.175
	c0.158,0.063,0.234,0.247,0.17,0.4l-0.154,0.384C89.562,37.507,89.45,37.581,89.326,37.581 M89.858,36.243
	c-0.036,0-0.075-0.008-0.114-0.022c-0.156-0.063-0.234-0.245-0.17-0.402l0.151-0.381c0.064-0.155,0.243-0.233,0.399-0.171
	c0.159,0.063,0.239,0.245,0.17,0.4l-0.149,0.383C90.098,36.169,89.982,36.243,89.858,36.243 M90.392,34.908
	c-0.032,0-0.078-0.009-0.114-0.023c-0.156-0.063-0.234-0.245-0.171-0.4l0.152-0.384c0.064-0.155,0.248-0.235,0.399-0.172
	c0.161,0.064,0.237,0.243,0.175,0.401l-0.151,0.38C90.626,34.833,90.516,34.908,90.392,34.908 M90.927,33.569
	c-0.034,0-0.08-0.007-0.112-0.021c-0.161-0.064-0.239-0.243-0.175-0.4l0.152-0.384c0.064-0.159,0.243-0.235,0.399-0.172
	c0.156,0.059,0.234,0.24,0.175,0.4l-0.156,0.381C91.164,33.497,91.049,33.569,90.927,33.569 M91.463,32.233
	c-0.042,0-0.083-0.009-0.115-0.024c-0.158-0.063-0.239-0.245-0.175-0.402l0.149-0.381c0.064-0.157,0.246-0.23,0.407-0.171
	c0.156,0.063,0.233,0.243,0.17,0.4l-0.149,0.384C91.701,32.157,91.577,32.233,91.463,32.233 M91.995,30.895
	c-0.041,0-0.08-0.008-0.114-0.024c-0.159-0.061-0.234-0.243-0.18-0.4l0.156-0.381c0.062-0.16,0.244-0.236,0.404-0.174
	c0.156,0.065,0.23,0.241,0.17,0.402L92.278,30.7C92.229,30.821,92.117,30.895,91.995,30.895 M92.531,29.556
	c-0.044,0-0.081-0.005-0.117-0.021c-0.156-0.064-0.237-0.242-0.175-0.399l0.156-0.381c0.06-0.158,0.241-0.236,0.395-0.175
	c0.164,0.064,0.239,0.242,0.173,0.402l-0.149,0.381C92.768,29.485,92.652,29.556,92.531,29.556 M93.062,28.22
	c-0.039,0-0.078-0.005-0.119-0.022c-0.156-0.065-0.23-0.244-0.166-0.4l0.149-0.386c0.062-0.155,0.241-0.23,0.4-0.169
	c0.158,0.063,0.236,0.24,0.177,0.399l-0.156,0.384C93.301,28.146,93.186,28.22,93.062,28.22 M93.595,26.883
	c-0.037,0-0.078-0.007-0.112-0.024c-0.163-0.063-0.241-0.245-0.171-0.402l0.149-0.381c0.058-0.157,0.239-0.235,0.396-0.168
	c0.161,0.061,0.241,0.242,0.175,0.399l-0.149,0.381C93.834,26.808,93.712,26.883,93.595,26.883 M94.128,25.546
	c-0.037,0-0.078-0.009-0.115-0.025c-0.156-0.061-0.234-0.238-0.175-0.397l0.156-0.381c0.064-0.157,0.244-0.238,0.402-0.177
	c0.154,0.069,0.232,0.245,0.168,0.405l-0.152,0.38C94.366,25.472,94.247,25.546,94.128,25.546 M94.661,24.208
	c-0.037,0-0.083-0.005-0.115-0.021c-0.154-0.064-0.234-0.24-0.175-0.401l0.156-0.382c0.064-0.159,0.239-0.235,0.397-0.174
	c0.158,0.065,0.236,0.245,0.172,0.402l-0.151,0.386C94.899,24.133,94.785,24.208,94.661,24.208 M95.193,22.872
	c-0.041,0-0.078-0.007-0.114-0.024c-0.156-0.063-0.234-0.245-0.175-0.399l0.153-0.382c0.064-0.159,0.242-0.232,0.407-0.173
	c0.151,0.063,0.229,0.245,0.165,0.4l-0.151,0.384C95.433,22.796,95.315,22.872,95.193,22.872 M95.727,21.536
	c-0.041,0-0.08-0.011-0.114-0.024c-0.156-0.063-0.234-0.245-0.173-0.399l0.154-0.384c0.064-0.158,0.241-0.236,0.399-0.171
	c0.156,0.063,0.236,0.243,0.175,0.4l-0.151,0.384C95.964,21.46,95.851,21.536,95.727,21.536 M96.255,20.199
	c-0.036,0-0.073-0.009-0.11-0.023c-0.156-0.066-0.236-0.242-0.172-0.402l0.158-0.384c0.06-0.155,0.244-0.233,0.4-0.172
	c0.153,0.064,0.229,0.24,0.17,0.403l-0.154,0.385C96.496,20.124,96.384,20.199,96.255,20.199 M96.793,18.86
	c-0.039,0-0.078-0.009-0.112-0.023c-0.159-0.062-0.237-0.24-0.173-0.401l0.151-0.38c0.061-0.161,0.244-0.235,0.404-0.172
	c0.156,0.063,0.23,0.24,0.17,0.397l-0.153,0.384C97.032,18.787,96.917,18.86,96.793,18.86"/>
<path d="M24.345,83.467c-0.122,0-0.241-0.075-0.285-0.2c-0.064-0.158,0.021-0.336,0.177-0.397l0.386-0.144
	c0.159-0.061,0.334,0.022,0.397,0.182c0.058,0.158-0.024,0.336-0.181,0.393l-0.391,0.148C24.42,83.463,24.379,83.467,24.345,83.467
	 M49.231,83.056c-0.08,0-0.168-0.038-0.228-0.101c-0.115-0.13-0.11-0.323,0.019-0.438l0.14-0.124
	c0.132-0.111,0.319-0.104,0.435,0.023s0.105,0.323-0.019,0.438l-0.138,0.125C49.381,83.031,49.308,83.056,49.231,83.056
	 M25.693,82.957c-0.127,0-0.244-0.072-0.29-0.195c-0.062-0.162,0.019-0.343,0.185-0.399l0.386-0.144
	c0.156-0.061,0.331,0.016,0.395,0.181c0.058,0.158-0.021,0.337-0.184,0.393l-0.381,0.148C25.769,82.955,25.729,82.957,25.693,82.957
	 M27.039,82.449c-0.128,0-0.243-0.073-0.291-0.197c-0.058-0.161,0.021-0.339,0.182-0.397l0.381-0.146
	c0.165-0.06,0.34,0.021,0.399,0.18c0.061,0.159-0.018,0.337-0.177,0.396l-0.384,0.146C27.113,82.447,27.074,82.449,27.039,82.449
	 M50.135,82.239c-0.088,0-0.166-0.032-0.23-0.101c-0.114-0.126-0.101-0.322,0.023-0.432l0.303-0.28
	c0.129-0.11,0.327-0.104,0.435,0.023c0.122,0.13,0.108,0.323-0.021,0.44l-0.306,0.276C50.279,82.216,50.21,82.239,50.135,82.239
	 M28.391,81.94c-0.124,0-0.246-0.075-0.294-0.2c-0.061-0.155,0.021-0.339,0.179-0.395l0.386-0.144
	c0.156-0.059,0.341,0.02,0.398,0.182c0.057,0.155-0.021,0.334-0.182,0.395l-0.387,0.144C28.459,81.934,28.427,81.94,28.391,81.94
	 M29.732,81.435c-0.124,0-0.241-0.075-0.29-0.2c-0.06-0.16,0.019-0.337,0.182-0.397l0.387-0.144
	c0.153-0.063,0.335,0.018,0.395,0.173c0.06,0.161-0.021,0.341-0.179,0.401l-0.382,0.146C29.811,81.426,29.773,81.435,29.732,81.435
	 M51.205,81.275c-0.087,0-0.175-0.033-0.234-0.099c-0.115-0.13-0.102-0.325,0.025-0.438l0.306-0.278
	c0.119-0.11,0.316-0.104,0.437,0.024c0.112,0.124,0.097,0.322-0.023,0.435l-0.308,0.275C51.353,81.249,51.274,81.275,51.205,81.275
	 M31.079,80.93c-0.122,0-0.242-0.078-0.288-0.202c-0.06-0.161,0.021-0.337,0.182-0.399l0.382-0.145
	c0.158-0.06,0.335,0.021,0.399,0.178c0.056,0.16-0.019,0.339-0.177,0.397l-0.391,0.146C31.152,80.919,31.115,80.93,31.079,80.93
	 M32.427,80.418c-0.124,0-0.241-0.077-0.284-0.202c-0.062-0.155,0.016-0.336,0.172-0.395l0.386-0.148
	c0.166-0.054,0.341,0.024,0.405,0.182c0.053,0.16-0.025,0.341-0.185,0.399l-0.386,0.144C32.501,80.412,32.462,80.418,32.427,80.418
	 M52.267,80.311c-0.078,0-0.166-0.036-0.223-0.101c-0.117-0.13-0.104-0.323,0.021-0.438l0.306-0.274
	c0.124-0.114,0.321-0.104,0.434,0.023c0.115,0.127,0.106,0.319-0.022,0.438l-0.304,0.27C52.413,80.285,52.343,80.311,52.267,80.311
	 M33.771,79.911c-0.122,0-0.244-0.078-0.28-0.202c-0.064-0.157,0.016-0.334,0.177-0.395l0.382-0.146
	c0.158-0.059,0.337,0.021,0.396,0.18c0.061,0.159-0.022,0.337-0.181,0.396l-0.384,0.144C33.845,79.904,33.808,79.911,33.771,79.911
	 M35.12,79.4c-0.127,0-0.241-0.078-0.287-0.201c-0.06-0.158,0.021-0.335,0.175-0.397l0.39-0.146c0.161-0.059,0.336,0.022,0.4,0.182
	c0.055,0.16-0.025,0.339-0.184,0.397l-0.389,0.144C35.191,79.393,35.154,79.4,35.12,79.4 M53.337,79.343
	c-0.082,0-0.165-0.032-0.225-0.101c-0.12-0.124-0.106-0.319,0.022-0.436l0.304-0.274c0.129-0.116,0.321-0.104,0.432,0.023
	c0.119,0.123,0.105,0.32-0.019,0.435l-0.306,0.273C53.484,79.318,53.415,79.343,53.337,79.343 M36.469,78.89
	c-0.129,0-0.241-0.07-0.29-0.195c-0.063-0.16,0.019-0.339,0.182-0.397l0.387-0.146c0.153-0.061,0.333,0.018,0.391,0.181
	c0.063,0.158-0.021,0.337-0.178,0.396l-0.384,0.146C36.542,78.887,36.505,78.89,36.469,78.89 M37.815,78.384
	c-0.122,0-0.239-0.076-0.295-0.2c-0.055-0.163,0.023-0.336,0.185-0.395l0.391-0.148c0.153-0.058,0.33,0.023,0.39,0.181
	c0.064,0.161-0.018,0.334-0.179,0.397l-0.382,0.146C37.886,78.377,37.852,78.384,37.815,78.384 M54.408,78.379
	c-0.085,0-0.171-0.033-0.234-0.099c-0.108-0.127-0.1-0.325,0.024-0.438l0.306-0.275c0.124-0.115,0.322-0.104,0.433,0.024
	c0.117,0.122,0.107,0.317-0.019,0.43l-0.308,0.278C54.553,78.355,54.481,78.379,54.408,78.379 M39.164,77.875
	c-0.129,0-0.241-0.072-0.292-0.2c-0.056-0.16,0.022-0.337,0.184-0.396l0.386-0.146c0.151-0.061,0.336,0.021,0.391,0.181
	c0.06,0.158-0.019,0.334-0.179,0.396l-0.384,0.146C39.235,77.868,39.198,77.875,39.164,77.875 M55.472,77.417
	c-0.08,0-0.168-0.036-0.226-0.101c-0.117-0.127-0.107-0.323,0.021-0.438l0.306-0.276c0.124-0.115,0.322-0.105,0.435,0.024
	c0.115,0.124,0.105,0.317-0.019,0.433l-0.308,0.274C55.621,77.388,55.548,77.417,55.472,77.417 M40.513,77.37
	c-0.129,0-0.241-0.081-0.295-0.202c-0.055-0.158,0.023-0.336,0.18-0.397l0.386-0.144c0.154-0.063,0.338,0.016,0.4,0.181
	c0.055,0.158-0.023,0.333-0.18,0.396l-0.386,0.146C40.581,77.36,40.542,77.37,40.513,77.37 M41.852,76.857
	c-0.122,0-0.241-0.071-0.282-0.195c-0.064-0.161,0.019-0.339,0.175-0.4l0.386-0.147c0.154-0.059,0.34,0.021,0.399,0.182
	c0.06,0.157-0.019,0.336-0.179,0.397l-0.382,0.146C41.933,76.855,41.891,76.857,41.852,76.857 M56.54,76.449
	c-0.083,0-0.166-0.034-0.229-0.101c-0.113-0.124-0.102-0.319,0.022-0.435l0.311-0.275c0.126-0.114,0.319-0.105,0.43,0.019
	c0.119,0.127,0.107,0.325-0.019,0.438l-0.306,0.276C56.689,76.426,56.616,76.449,56.54,76.449 M43.205,76.351
	c-0.129,0-0.246-0.077-0.29-0.2c-0.06-0.158,0.023-0.337,0.178-0.397l0.386-0.146c0.158-0.056,0.333,0.021,0.399,0.179
	c0.058,0.162-0.025,0.339-0.182,0.4l-0.381,0.146C43.276,76.346,43.237,76.351,43.205,76.351 M44.552,75.843
	c-0.124,0-0.248-0.076-0.292-0.2c-0.06-0.16,0.021-0.336,0.182-0.4l0.384-0.144c0.158-0.056,0.337,0.021,0.397,0.178
	c0.062,0.161-0.019,0.339-0.178,0.401l-0.386,0.146C44.62,75.836,44.583,75.843,44.552,75.843 M57.61,75.485
	c-0.085,0-0.165-0.033-0.229-0.101c-0.112-0.127-0.104-0.32,0.025-0.435l0.301-0.28c0.129-0.11,0.321-0.099,0.437,0.023
	c0.112,0.127,0.104,0.325-0.025,0.438l-0.301,0.273C57.758,75.457,57.685,75.485,57.61,75.485 M45.897,75.337
	c-0.126,0-0.248-0.078-0.292-0.204c-0.057-0.159,0.021-0.335,0.182-0.397l0.387-0.146c0.16-0.061,0.335,0.024,0.399,0.179
	c0.055,0.162-0.025,0.339-0.184,0.4l-0.387,0.144C45.969,75.327,45.933,75.337,45.897,75.337 M47.244,74.822
	c-0.124,0-0.243-0.073-0.285-0.195c-0.064-0.158,0.019-0.339,0.17-0.397l0.391-0.146c0.161-0.061,0.333,0.019,0.397,0.179
	c0.058,0.16-0.022,0.341-0.182,0.4l-0.386,0.144C47.317,74.819,47.281,74.822,47.244,74.822 M58.677,74.521
	c-0.078,0-0.166-0.036-0.223-0.104c-0.117-0.125-0.108-0.323,0.021-0.435l0.301-0.278c0.124-0.113,0.326-0.104,0.438,0.024
	c0.115,0.126,0.102,0.324-0.022,0.435l-0.308,0.275C58.823,74.492,58.753,74.521,58.677,74.521 M48.591,74.316
	c-0.124,0-0.241-0.076-0.295-0.2c-0.055-0.156,0.032-0.334,0.188-0.395l0.377-0.146c0.161-0.06,0.345,0.019,0.4,0.178
	c0.063,0.161-0.019,0.339-0.18,0.399L48.7,74.294C48.664,74.312,48.622,74.316,48.591,74.316 M49.937,73.81
	c-0.121,0-0.241-0.077-0.289-0.2c-0.06-0.162,0.019-0.336,0.184-0.397l0.384-0.146c0.154-0.059,0.338,0.021,0.396,0.182
	c0.06,0.159-0.017,0.336-0.178,0.395l-0.386,0.146C50.006,73.8,49.974,73.81,49.937,73.81 M59.75,73.553
	c-0.085,0-0.173-0.032-0.228-0.101c-0.12-0.126-0.11-0.321,0.018-0.435l0.309-0.277c0.119-0.114,0.321-0.104,0.432,0.023
	c0.115,0.125,0.104,0.323-0.019,0.435l-0.306,0.276C59.895,73.528,59.823,73.553,59.75,73.553 M51.283,73.299
	c-0.124,0-0.243-0.078-0.287-0.197c-0.06-0.16,0.021-0.339,0.177-0.397l0.386-0.148c0.159-0.059,0.34,0.021,0.396,0.184
	c0.064,0.155-0.014,0.335-0.173,0.395l-0.39,0.146C51.356,73.295,51.322,73.299,51.283,73.299 M52.632,72.792
	c-0.129,0-0.246-0.076-0.289-0.198c-0.062-0.163,0.016-0.339,0.181-0.399l0.387-0.145c0.156-0.062,0.335,0.019,0.395,0.178
	c0.056,0.157-0.021,0.339-0.179,0.395l-0.386,0.148C52.701,72.787,52.669,72.792,52.632,72.792 M60.818,72.589
	c-0.085,0-0.166-0.033-0.234-0.104c-0.113-0.124-0.097-0.319,0.027-0.434l0.303-0.273c0.124-0.115,0.322-0.105,0.433,0.019
	c0.112,0.127,0.107,0.323-0.017,0.438l-0.31,0.278C60.96,72.563,60.887,72.589,60.818,72.589 M53.976,72.283
	c-0.124,0-0.241-0.075-0.284-0.198c-0.064-0.162,0.018-0.339,0.179-0.399l0.382-0.144c0.16-0.059,0.337,0.021,0.401,0.182
	c0.058,0.157-0.025,0.334-0.182,0.395l-0.386,0.148C54.047,72.273,54.011,72.283,53.976,72.283 M55.327,71.777
	c-0.129,0-0.244-0.081-0.295-0.202c-0.06-0.16,0.021-0.336,0.185-0.397l0.386-0.142c0.158-0.061,0.335,0.019,0.399,0.174
	c0.056,0.163-0.022,0.339-0.19,0.397l-0.377,0.149C55.4,71.768,55.359,71.777,55.327,71.777 M61.88,71.627
	c-0.074,0-0.164-0.038-0.226-0.104c-0.108-0.13-0.105-0.323,0.022-0.436l0.304-0.278c0.126-0.115,0.324-0.104,0.437,0.024
	c0.115,0.125,0.105,0.319-0.023,0.436l-0.303,0.274C62.031,71.596,61.958,71.627,61.88,71.627 M56.669,71.267
	c-0.12,0-0.241-0.078-0.285-0.197c-0.062-0.163,0.016-0.339,0.184-0.401l0.379-0.144c0.159-0.061,0.336,0.021,0.396,0.177
	c0.064,0.16-0.021,0.341-0.177,0.4l-0.386,0.146C56.744,71.259,56.705,71.267,56.669,71.267 M58.02,70.758
	c-0.129,0-0.243-0.075-0.292-0.198c-0.06-0.159,0.021-0.341,0.182-0.397l0.382-0.148c0.163-0.056,0.34,0.021,0.404,0.182
	c0.055,0.16-0.023,0.336-0.182,0.397l-0.386,0.144C58.093,70.754,58.054,70.758,58.02,70.758 M62.952,70.66
	c-0.085,0-0.168-0.033-0.228-0.104c-0.119-0.125-0.105-0.319,0.019-0.435l0.306-0.275c0.126-0.116,0.319-0.107,0.437,0.021
	c0.112,0.127,0.108,0.32-0.027,0.438l-0.299,0.275C63.102,70.632,63.03,70.66,62.952,70.66 M59.368,70.25
	c-0.129,0-0.246-0.078-0.292-0.202c-0.055-0.155,0.021-0.334,0.182-0.397l0.384-0.141c0.156-0.064,0.336,0.019,0.396,0.178
	c0.063,0.161-0.017,0.337-0.177,0.401l-0.384,0.14C59.439,70.244,59.402,70.25,59.368,70.25 M60.712,69.739
	c-0.124,0-0.241-0.074-0.289-0.2c-0.06-0.157,0.019-0.335,0.182-0.395l0.379-0.146c0.165-0.061,0.338,0.022,0.404,0.182
	c0.062,0.157-0.023,0.336-0.18,0.397l-0.386,0.144C60.786,69.732,60.749,69.739,60.712,69.739 M64.021,69.692
	c-0.085,0-0.17-0.032-0.234-0.101c-0.107-0.124-0.097-0.322,0.027-0.436l0.309-0.274c0.119-0.115,0.316-0.106,0.432,0.021
	c0.115,0.13,0.105,0.325-0.021,0.436l-0.311,0.276C64.17,69.669,64.095,69.692,64.021,69.692 M62.063,69.234
	c-0.129,0-0.244-0.078-0.29-0.2c-0.062-0.16,0.023-0.339,0.173-0.397l0.388-0.146c0.156-0.059,0.341,0.019,0.397,0.179
	c0.062,0.16-0.016,0.335-0.182,0.397l-0.383,0.146C62.132,69.227,62.096,69.234,62.063,69.234 M65.087,68.729
	c-0.083,0-0.163-0.036-0.229-0.104c-0.11-0.127-0.106-0.32,0.027-0.433v-0.007l-0.025,0.012c-0.158,0.061-0.336-0.022-0.396-0.182
	c-0.064-0.157,0.021-0.336,0.182-0.393l0.382-0.148c0.16-0.061,0.335,0.022,0.399,0.179c0.027,0.061,0.027,0.122,0.009,0.186
	c0.069,0.009,0.139,0.042,0.188,0.097c0.115,0.128,0.102,0.326-0.022,0.437l-0.308,0.275C65.233,68.7,65.165,68.729,65.087,68.729
	 M63.4,68.724c-0.117,0-0.236-0.076-0.282-0.195c-0.062-0.166,0.021-0.344,0.177-0.4l0.386-0.146
	c0.158-0.06,0.336,0.021,0.393,0.178c0.064,0.163-0.016,0.336-0.172,0.397l-0.386,0.144C63.48,68.719,63.441,68.724,63.4,68.724
	 M66.155,67.764c-0.08,0-0.168-0.036-0.228-0.104c-0.002-0.004-0.009-0.007-0.014-0.014c-0.046-0.036-0.081-0.078-0.104-0.137
	c-0.062-0.16,0.022-0.337,0.182-0.396l1.723-0.657l-1.353,1.223C66.305,67.736,66.229,67.764,66.155,67.764"/>
<path d="M83.844,68.036h-0.005l-0.408-0.011c-0.175-0.005-0.304-0.144-0.304-0.315c0.005-0.17,0.158-0.296,0.317-0.301l0.413,0.009
	c0.166,0.002,0.304,0.146,0.299,0.312C84.151,67.902,84.019,68.036,83.844,68.036 M82.41,68.004h-0.009l-0.409-0.015
	c-0.175,0-0.308-0.14-0.308-0.312c0.009-0.169,0.165-0.299,0.319-0.299l0.411,0.007c0.17,0.005,0.308,0.144,0.303,0.318
	C82.714,67.869,82.573,68.004,82.41,68.004 M80.968,67.968H80.96l-0.406-0.007c-0.177-0.004-0.308-0.146-0.306-0.318
	c0.003-0.167,0.156-0.301,0.319-0.301l0.409,0.007c0.17,0.011,0.304,0.148,0.304,0.318C81.271,67.836,81.135,67.968,80.968,67.968
	 M79.534,67.933h-0.012l-0.407-0.005c-0.175-0.004-0.312-0.148-0.306-0.317c0.003-0.17,0.146-0.296,0.315-0.301l0.413,0.012
	c0.17,0.004,0.304,0.146,0.304,0.312C79.837,67.804,79.696,67.933,79.534,67.933 M78.086,67.902L78.086,67.902l-0.416-0.01
	c-0.167-0.004-0.303-0.145-0.301-0.317c0.005-0.167,0.151-0.29,0.317-0.301l0.413,0.011c0.171,0.002,0.304,0.144,0.304,0.312
	C78.398,67.768,78.261,67.902,78.086,67.902 M76.652,67.869h-0.007l-0.406-0.009c-0.18-0.002-0.312-0.144-0.312-0.316
	c0.009-0.169,0.151-0.298,0.321-0.298l0.409,0.007c0.17,0.006,0.303,0.144,0.303,0.318C76.953,67.735,76.82,67.869,76.652,67.869
	 M75.214,67.836h-0.009l-0.416-0.009c-0.165-0.004-0.301-0.146-0.299-0.315c0.007-0.17,0.149-0.296,0.315-0.301l0.413,0.009
	c0.17,0.004,0.308,0.144,0.304,0.312C75.516,67.703,75.378,67.836,75.214,67.836 M73.771,67.804h-0.005l-0.413-0.013
	c-0.17-0.002-0.304-0.143-0.299-0.312c0.002-0.171,0.14-0.294,0.312-0.301l0.404,0.007c0.179,0.004,0.317,0.146,0.312,0.318
	C74.077,67.672,73.939,67.804,73.771,67.804 M72.333,67.771h-0.009l-0.407-0.009c-0.172-0.004-0.306-0.146-0.301-0.316
	c0-0.171,0.138-0.303,0.317-0.303l0.404,0.011c0.175,0.004,0.312,0.144,0.308,0.316C72.639,67.636,72.499,67.771,72.333,67.771
	 M70.891,67.737h-0.005l-0.409-0.009c-0.172-0.005-0.303-0.146-0.303-0.315c0.004-0.172,0.156-0.299,0.316-0.299l0.414,0.005
	c0.17,0.004,0.303,0.146,0.296,0.314C71.196,67.606,71.062,67.737,70.891,67.737 M69.457,67.705h-0.01l-0.406-0.01
	c-0.177-0.005-0.311-0.145-0.306-0.317c0.005-0.167,0.151-0.305,0.317-0.298l0.411,0.009c0.172,0,0.299,0.146,0.296,0.316
	C69.758,67.573,69.624,67.705,69.457,67.705 M68.019,67.672h-0.005l-0.42-0.009c-0.168-0.007-0.302-0.146-0.297-0.318
	c0.005-0.169,0.151-0.296,0.317-0.301l0.409,0.011c0.167,0.006,0.301,0.144,0.301,0.316C68.319,67.537,68.184,67.672,68.019,67.672
	 M66.571,67.638L66.571,67.638l-0.28-0.004c-0.17-0.007-0.299-0.148-0.297-0.317c0-0.172,0.154-0.299,0.314-0.303l0.276,0.007
	c0.17,0.007,0.303,0.148,0.303,0.314C66.881,67.503,66.745,67.638,66.571,67.638 M84.102,67.368c-0.154,0-0.288-0.11-0.309-0.264
	l-0.06-0.409c-0.019-0.167,0.097-0.322,0.262-0.348c0.17-0.024,0.326,0.092,0.354,0.263l0.06,0.408
	c0.019,0.167-0.102,0.324-0.269,0.348L84.102,67.368z M83.895,65.945c-0.149,0-0.278-0.114-0.308-0.265l-0.056-0.411
	c-0.022-0.164,0.09-0.323,0.262-0.348c0.166-0.024,0.322,0.092,0.348,0.266l0.06,0.408c0.025,0.167-0.09,0.319-0.262,0.346
	C83.922,65.945,83.908,65.945,83.895,65.945 M83.692,64.52c-0.156,0-0.285-0.114-0.308-0.267l-0.056-0.407
	c-0.027-0.17,0.09-0.325,0.258-0.346c0.174-0.029,0.326,0.089,0.352,0.258l0.057,0.407c0.028,0.17-0.094,0.323-0.262,0.352
	C83.72,64.517,83.706,64.52,83.692,64.52 M83.487,63.094c-0.153,0-0.287-0.111-0.308-0.267l-0.053-0.406
	c-0.03-0.17,0.092-0.325,0.258-0.348c0.167-0.029,0.323,0.092,0.349,0.261l0.06,0.409c0.021,0.17-0.092,0.323-0.262,0.346
	C83.518,63.094,83.499,63.094,83.487,63.094 M83.285,61.668c-0.153,0-0.282-0.111-0.306-0.266l-0.063-0.407
	c-0.017-0.17,0.096-0.325,0.264-0.348c0.166-0.026,0.329,0.096,0.352,0.263l0.056,0.406c0.029,0.168-0.092,0.323-0.258,0.348
	C83.311,61.665,83.302,61.668,83.285,61.668 M83.086,60.241c-0.156,0-0.287-0.108-0.309-0.263l-0.06-0.407
	c-0.022-0.172,0.092-0.328,0.262-0.348c0.166-0.026,0.322,0.092,0.35,0.261l0.056,0.407c0.027,0.167-0.095,0.323-0.258,0.348
	C83.108,60.241,83.095,60.241,83.086,60.241 M82.879,58.816c-0.154,0-0.287-0.11-0.308-0.261l-0.056-0.407
	c-0.032-0.175,0.09-0.328,0.262-0.354c0.161-0.023,0.319,0.097,0.35,0.267l0.053,0.404c0.025,0.17-0.094,0.328-0.264,0.348
	C82.906,58.816,82.888,58.816,82.879,58.816 M82.672,57.393c-0.151,0-0.28-0.11-0.306-0.263l-0.057-0.407
	c-0.023-0.175,0.092-0.327,0.262-0.352c0.17-0.023,0.328,0.092,0.345,0.262l0.063,0.407c0.023,0.167-0.096,0.325-0.262,0.348
	C82.702,57.393,82.686,57.393,82.672,57.393 M82.466,55.964c-0.143,0-0.281-0.105-0.304-0.261l-0.06-0.409
	c-0.023-0.17,0.101-0.325,0.264-0.352c0.166-0.019,0.329,0.094,0.352,0.264l0.06,0.409c0.021,0.165-0.101,0.325-0.262,0.346
	C82.497,55.964,82.483,55.964,82.466,55.964 M81.831,54.894c-0.037,0-0.076-0.009-0.107-0.016l-0.384-0.146
	c-0.166-0.061-0.248-0.238-0.188-0.395c0.064-0.162,0.241-0.24,0.399-0.187l0.386,0.146c0.156,0.061,0.241,0.238,0.185,0.397
	C82.075,54.819,81.953,54.894,81.831,54.894 M80.478,54.393c-0.039,0-0.068-0.004-0.107-0.019l-0.386-0.144
	c-0.159-0.061-0.239-0.235-0.18-0.395c0.056-0.161,0.239-0.242,0.396-0.182l0.386,0.142c0.158,0.059,0.241,0.235,0.182,0.397
	C80.719,54.318,80.603,54.393,80.478,54.393 M79.129,53.892c-0.036,0-0.073-0.007-0.11-0.022l-0.379-0.142
	c-0.165-0.058-0.241-0.233-0.184-0.396c0.056-0.16,0.232-0.234,0.397-0.183l0.386,0.146c0.156,0.061,0.234,0.235,0.18,0.395
	C79.37,53.816,79.253,53.892,79.129,53.892 M77.778,53.391c-0.032,0-0.073-0.008-0.108-0.02l-0.379-0.144
	c-0.165-0.059-0.241-0.238-0.188-0.395c0.064-0.162,0.241-0.24,0.4-0.18l0.384,0.14c0.158,0.06,0.238,0.238,0.181,0.393
	C78.021,53.313,77.902,53.391,77.778,53.391 M76.43,52.889c-0.037,0-0.073-0.004-0.108-0.021l-0.386-0.144
	c-0.158-0.056-0.236-0.238-0.179-0.393c0.06-0.162,0.238-0.245,0.395-0.184l0.382,0.144c0.165,0.062,0.248,0.235,0.186,0.397
	C76.671,52.814,76.554,52.889,76.43,52.889 M75.079,52.389c-0.035,0-0.067-0.009-0.108-0.021l-0.379-0.144
	c-0.168-0.056-0.246-0.235-0.187-0.395c0.058-0.158,0.239-0.243,0.4-0.184l0.379,0.146c0.163,0.059,0.246,0.238,0.186,0.395
	C75.324,52.312,75.205,52.389,75.079,52.389 M73.73,51.888c-0.032,0-0.069-0.009-0.106-0.021l-0.386-0.141
	c-0.165-0.062-0.243-0.238-0.182-0.397c0.058-0.161,0.234-0.24,0.397-0.182l0.387,0.142c0.158,0.061,0.236,0.238,0.179,0.397
	C73.974,51.812,73.85,51.888,73.73,51.888 M72.384,51.384c-0.037,0-0.071-0.004-0.11-0.02l-0.386-0.144
	c-0.156-0.056-0.241-0.234-0.18-0.397c0.056-0.157,0.234-0.238,0.396-0.176l0.381,0.142c0.166,0.059,0.246,0.234,0.185,0.397
	C72.627,51.306,72.506,51.384,72.384,51.384 M71.033,50.886c-0.035,0-0.074-0.01-0.115-0.021l-0.384-0.142
	c-0.154-0.059-0.232-0.235-0.177-0.4c0.058-0.157,0.234-0.24,0.399-0.179l0.387,0.142c0.156,0.062,0.233,0.238,0.179,0.397
	C71.276,50.81,71.157,50.886,71.033,50.886 M69.685,50.381c-0.039,0-0.081-0.007-0.108-0.016l-0.386-0.144
	c-0.166-0.061-0.244-0.24-0.182-0.395c0.055-0.164,0.236-0.245,0.393-0.188l0.386,0.146c0.161,0.061,0.244,0.238,0.185,0.395
	C69.921,50.307,69.811,50.381,69.685,50.381 M68.331,49.881c-0.037,0-0.071-0.005-0.105-0.016l-0.391-0.144
	c-0.156-0.062-0.239-0.238-0.178-0.398c0.058-0.161,0.237-0.242,0.4-0.181l0.384,0.139c0.16,0.061,0.238,0.24,0.179,0.399
	C68.574,49.806,68.46,49.881,68.331,49.881"/>
<path d="M107.137,70.074h-0.028l-0.408-0.042c-0.175-0.017-0.299-0.166-0.281-0.334c0.019-0.172,0.166-0.298,0.334-0.282
	l0.416,0.042c0.16,0.016,0.289,0.164,0.275,0.334C107.426,69.951,107.293,70.074,107.137,70.074 M105.705,69.941h-0.03l-0.408-0.04
	c-0.175-0.016-0.299-0.167-0.283-0.334c0.017-0.171,0.17-0.304,0.336-0.279l0.411,0.034c0.167,0.02,0.289,0.17,0.28,0.337
	C105.994,69.819,105.858,69.941,105.705,69.941 M104.271,69.807c0,0-0.025,0-0.03-0.002l-0.413-0.038
	c-0.166-0.016-0.29-0.167-0.278-0.335c0.016-0.172,0.168-0.296,0.343-0.28l0.406,0.04c0.17,0.016,0.289,0.167,0.273,0.333
	C104.561,69.686,104.425,69.807,104.271,69.807 M102.835,69.673c-0.011,0-0.018-0.002-0.018-0.002l-0.419-0.037
	c-0.174-0.015-0.294-0.168-0.282-0.334c0.016-0.17,0.165-0.292,0.338-0.28l0.409,0.041c0.167,0.011,0.296,0.167,0.28,0.334
	C103.13,69.553,102.991,69.673,102.835,69.673 M101.399,69.542l-0.025-0.002l-0.409-0.036c-0.17-0.016-0.296-0.167-0.28-0.339
	c0.019-0.167,0.166-0.296,0.336-0.278l0.408,0.038c0.171,0.015,0.295,0.168,0.281,0.334
	C101.693,69.419,101.561,69.542,101.399,69.542 M99.973,69.407h-0.037l-0.406-0.038c-0.173-0.016-0.294-0.167-0.278-0.336
	c0.014-0.167,0.166-0.294,0.336-0.279l0.406,0.037c0.173,0.02,0.301,0.17,0.278,0.339C100.258,69.288,100.124,69.407,99.973,69.407
	 M98.534,69.278l-0.027-0.005l-0.411-0.034c-0.17-0.022-0.294-0.17-0.273-0.337c0.007-0.17,0.161-0.298,0.335-0.278l0.409,0.038
	c0.17,0.011,0.294,0.162,0.267,0.336C98.824,69.156,98.69,69.278,98.534,69.278 M97.101,69.145H97.08l-0.421-0.041
	c-0.167-0.02-0.289-0.167-0.275-0.334c0.014-0.169,0.17-0.296,0.336-0.28l0.413,0.038c0.17,0.016,0.294,0.165,0.275,0.337
	C97.395,69.021,97.257,69.145,97.101,69.145 M95.667,69.01c0,0-0.021,0-0.027-0.002l-0.414-0.038
	c-0.168-0.016-0.289-0.164-0.275-0.334c0.019-0.169,0.165-0.297,0.335-0.279l0.409,0.039c0.17,0.015,0.294,0.165,0.278,0.334
	C95.956,68.889,95.823,69.01,95.667,69.01 M94.238,68.878c0,0-0.019,0-0.032-0.005l-0.414-0.035
	c-0.165-0.016-0.289-0.167-0.275-0.333c0.019-0.174,0.168-0.3,0.335-0.278l0.404,0.038c0.18,0.014,0.302,0.164,0.285,0.336
	C94.527,68.758,94.39,68.878,94.238,68.878 M92.8,68.745c0,0-0.019,0-0.03,0l-0.406-0.04c-0.17-0.015-0.294-0.166-0.28-0.332
	c0.019-0.172,0.17-0.299,0.335-0.283l0.411,0.04c0.168,0.016,0.292,0.167,0.278,0.334C93.092,68.624,92.958,68.745,92.8,68.745
	 M91.366,68.612h-0.019l-0.418-0.04c-0.17-0.016-0.294-0.164-0.283-0.334c0.021-0.167,0.173-0.294,0.338-0.282l0.411,0.04
	c0.168,0.017,0.297,0.167,0.278,0.334C91.66,68.492,91.522,68.612,91.366,68.612 M89.937,68.478c-0.014,0-0.022,0-0.032-0.002
	l-0.411-0.038c-0.167-0.014-0.291-0.162-0.282-0.334c0.021-0.169,0.17-0.294,0.34-0.277l0.414,0.036
	c0.165,0.021,0.289,0.167,0.275,0.338C90.227,68.361,90.098,68.478,89.937,68.478 M88.499,68.346c0,0-0.019,0-0.028-0.002
	l-0.411-0.037c-0.165-0.015-0.291-0.166-0.277-0.334c0.021-0.17,0.165-0.296,0.337-0.28l0.412,0.038
	c0.17,0.016,0.287,0.167,0.275,0.336C88.788,68.229,88.659,68.346,88.499,68.346 M87.072,68.215c0,0-0.025,0-0.032-0.002
	l-0.414-0.038c-0.168-0.016-0.296-0.168-0.273-0.336c0.012-0.171,0.161-0.294,0.336-0.278l0.404,0.036
	c0.17,0.016,0.299,0.168,0.28,0.339C87.359,68.094,87.226,68.215,87.072,68.215 M85.634,68.083c0,0-0.021,0-0.03-0.002l-0.409-0.04
	c-0.172-0.016-0.294-0.165-0.277-0.334c0.016-0.171,0.168-0.299,0.335-0.277l0.411,0.037c0.166,0.015,0.29,0.166,0.276,0.337
	C85.926,67.961,85.792,68.083,85.634,68.083"/>
<path d="M95.646,96.469c-0.122,0-0.237-0.073-0.283-0.197l-0.16-0.381c-0.06-0.156,0.016-0.335,0.172-0.402
	c0.161-0.057,0.338,0.016,0.407,0.175l0.151,0.381c0.06,0.159-0.014,0.338-0.17,0.402C95.722,96.46,95.686,96.469,95.646,96.469
	 M95.106,95.132c-0.119,0-0.234-0.074-0.285-0.193l-0.151-0.381c-0.064-0.159,0.014-0.338,0.17-0.404
	c0.154-0.06,0.338,0.018,0.402,0.172l0.153,0.382c0.064,0.161-0.018,0.342-0.174,0.404C95.18,95.127,95.147,95.132,95.106,95.132
	 M94.568,93.799c-0.119,0-0.236-0.076-0.284-0.195l-0.154-0.381c-0.064-0.159,0.009-0.338,0.172-0.402
	c0.159-0.064,0.341,0.014,0.4,0.17l0.151,0.386c0.069,0.154-0.009,0.333-0.165,0.395C94.643,93.79,94.61,93.799,94.568,93.799
	 M94.031,92.46c-0.119,0-0.239-0.071-0.287-0.193l-0.149-0.379c-0.069-0.161,0.009-0.34,0.17-0.404
	c0.156-0.064,0.335,0.019,0.399,0.172l0.156,0.384c0.06,0.156-0.009,0.335-0.177,0.399C94.109,92.453,94.07,92.46,94.031,92.46
	 M93.493,91.125c-0.119,0-0.236-0.071-0.284-0.193l-0.152-0.381c-0.064-0.159,0.01-0.336,0.166-0.4
	c0.16-0.062,0.34,0.009,0.404,0.17L93.78,90.7c0.062,0.163-0.011,0.338-0.172,0.407C93.571,91.12,93.535,91.125,93.493,91.125
	 M92.958,89.79c-0.124,0-0.241-0.073-0.287-0.193l-0.151-0.384c-0.064-0.156,0.014-0.34,0.165-0.4
	c0.161-0.06,0.34,0.012,0.402,0.172l0.154,0.379c0.068,0.158-0.012,0.337-0.171,0.404C93.031,89.783,92.992,89.79,92.958,89.79
	 M92.418,88.455c-0.124,0-0.241-0.073-0.289-0.193l-0.151-0.381c-0.062-0.159,0.014-0.34,0.17-0.4
	c0.158-0.069,0.34,0.014,0.404,0.168l0.153,0.381c0.062,0.158-0.009,0.337-0.167,0.402C92.499,88.446,92.455,88.455,92.418,88.455
	 M91.886,87.118c-0.125,0-0.244-0.069-0.295-0.191l-0.151-0.381c-0.064-0.163,0.014-0.338,0.17-0.402
	c0.161-0.062,0.34,0.014,0.402,0.17l0.158,0.381c0.056,0.156-0.019,0.34-0.175,0.404C91.959,87.109,91.915,87.118,91.886,87.118
	 M91.343,85.783c-0.124,0-0.238-0.07-0.289-0.193l-0.152-0.381c-0.063-0.158,0.015-0.338,0.168-0.402
	c0.156-0.063,0.343,0.014,0.407,0.175l0.156,0.381c0.06,0.157-0.019,0.335-0.175,0.4C91.419,85.778,91.38,85.783,91.343,85.783
	 M90.803,84.447c-0.121,0-0.236-0.074-0.282-0.193l-0.156-0.381c-0.064-0.157,0.014-0.336,0.165-0.399
	c0.166-0.063,0.345,0.011,0.407,0.171l0.153,0.379c0.064,0.163-0.014,0.336-0.17,0.402C90.884,84.442,90.842,84.447,90.803,84.447
	 M90.263,83.113c-0.117,0-0.236-0.073-0.284-0.193l-0.154-0.384c-0.06-0.157,0.017-0.339,0.173-0.397
	c0.158-0.066,0.335,0.012,0.404,0.167l0.151,0.384c0.062,0.16-0.012,0.337-0.17,0.4C90.339,83.109,90.305,83.113,90.263,83.113
	 M89.726,81.778c-0.119,0-0.234-0.072-0.287-0.195l-0.154-0.38c-0.06-0.157,0.014-0.337,0.175-0.4
	c0.156-0.064,0.34,0.011,0.399,0.171l0.154,0.376c0.066,0.162-0.012,0.344-0.172,0.407C89.804,81.771,89.765,81.778,89.726,81.778
	 M89.192,80.44c-0.122,0-0.243-0.07-0.287-0.193l-0.154-0.381c-0.063-0.16,0.01-0.333,0.17-0.402c0.156-0.061,0.336,0.015,0.4,0.174
	l0.151,0.381c0.064,0.158-0.009,0.339-0.168,0.402C89.266,80.436,89.229,80.44,89.192,80.44 M88.652,79.109
	c-0.121,0-0.236-0.076-0.287-0.193l-0.156-0.384c-0.06-0.157,0.014-0.337,0.177-0.402c0.156-0.063,0.334,0.014,0.402,0.175
	l0.151,0.38c0.062,0.158-0.014,0.334-0.174,0.397C88.729,79.102,88.688,79.109,88.652,79.109 M88.112,77.773
	c-0.121,0-0.234-0.076-0.287-0.193l-0.151-0.383c-0.062-0.155,0.012-0.337,0.172-0.4c0.161-0.063,0.338,0.011,0.4,0.169l0.156,0.381
	c0.064,0.16-0.014,0.341-0.175,0.404C88.193,77.768,88.149,77.773,88.112,77.773 M87.575,76.436c-0.119,0-0.239-0.072-0.285-0.192
	l-0.154-0.379c-0.062-0.161,0.008-0.339,0.168-0.404c0.163-0.062,0.34,0.014,0.404,0.171l0.152,0.381
	c0.068,0.16-0.015,0.339-0.17,0.4C87.653,76.426,87.616,76.436,87.575,76.436 M87.04,75.104c-0.127,0-0.237-0.077-0.287-0.197
	l-0.152-0.381c-0.068-0.158,0.01-0.338,0.17-0.402c0.156-0.061,0.336,0.012,0.4,0.172l0.151,0.381
	c0.069,0.16-0.009,0.338-0.17,0.404C87.115,75.093,87.076,75.104,87.04,75.104 M86.5,73.768c-0.124,0-0.241-0.075-0.285-0.193
	l-0.156-0.386c-0.06-0.155,0.019-0.337,0.17-0.4c0.163-0.061,0.34,0.014,0.404,0.169l0.151,0.381
	c0.062,0.161-0.014,0.339-0.17,0.402C86.578,73.759,86.536,73.768,86.5,73.768 M85.96,72.432c-0.119,0-0.236-0.074-0.282-0.195
	l-0.156-0.381c-0.061-0.16,0.014-0.339,0.17-0.402c0.16-0.064,0.342,0.014,0.401,0.171l0.154,0.381
	c0.064,0.157-0.012,0.337-0.17,0.402C86.04,72.423,86.001,72.432,85.96,72.432 M85.425,71.095c-0.12,0-0.237-0.074-0.285-0.195
	l-0.151-0.378c-0.067-0.157,0.009-0.339,0.165-0.399c0.158-0.064,0.345,0.011,0.4,0.169l0.158,0.379
	c0.058,0.157-0.014,0.339-0.173,0.404C85.505,71.088,85.466,71.095,85.425,71.095 M84.885,69.759c-0.122,0-0.236-0.07-0.285-0.193
	l-0.153-0.38c-0.064-0.161,0.014-0.339,0.17-0.401c0.16-0.065,0.337,0.013,0.404,0.17l0.151,0.381
	c0.064,0.16-0.014,0.335-0.17,0.402C84.96,69.75,84.924,69.759,84.885,69.759 M84.35,68.423c-0.124,0-0.239-0.073-0.29-0.193
	l-0.151-0.381c-0.064-0.157,0.014-0.337,0.17-0.4c0.161-0.065,0.34,0.012,0.399,0.175l0.156,0.378
	c0.064,0.159-0.014,0.336-0.17,0.401C84.425,68.418,84.386,68.423,84.35,68.423"/>
</svg>
